<?xml version="1.0" standalone="no"?>
<!DOCTYPE svg PUBLIC "-//W3C//DTD SVG 1.1//EN" "http://www.w3.org/Graphics/SVG/1.1/DTD/svg11.dtd">
<!--Generator: Xara Designer (www.xara.com), SVG filter version: 3.0.2.3-->
<svg stroke-width="0.501" stroke-linejoin="bevel" fill-rule="evenodd" xmlns:xlink="http://www.w3.org/1999/xlink" xmlns="http://www.w3.org/2000/svg" version="1.1" overflow="visible" width="841.891pt" height="595.277pt" viewBox="0 0 841.891 595.277">
 <defs>
  <marker id="DefaultArrow2" markerUnits="strokeWidth" viewBox="0 0 1 1" markerWidth="1" markerHeight="1" overflow="visible" orient="auto">
   <!-- REF_ARROW_STRAIGHT (-2) -->
   <g transform="scale(0.0092592592)">
    <!-- 1/108 -->
    <path d="M -9 54 L -9 -54 L 117 0 z"/>
   </g>
  </marker>
  <marker id="DefaultArrow3" markerUnits="strokeWidth" viewBox="0 0 1 1" markerWidth="1" markerHeight="1" overflow="visible" orient="auto">
   <!-- REF_ARROW_ANGLED -->
   <g transform="scale(0.0092592592)">
    <path d="M -27 54 L -9 0 L -27 -54 L 135 0 z"/>
   </g>
  </marker>
  <marker id="DefaultArrow4" markerUnits="strokeWidth" viewBox="0 0 1 1" markerWidth="1" markerHeight="1" overflow="visible" orient="auto">
   <!-- REF_ARROW_ROUNDED -->
   <g transform="scale(0.0092592592)">
    <path d="M -9,0 L -9,-45 C -9,-51.708 2.808,-56.580 9,-54 L 117,-9 C 120.916,-7.369 126.000,-4.242 126,0 C 126,4.242 120.916,7.369 117,9 L 9,54 C 2.808,56.580 -9,51.708 -9,45 z"/>
   </g>
  </marker>
  <marker id="DefaultArrow5" markerUnits="strokeWidth" viewBox="0 0 1 1" markerWidth="1" markerHeight="1" overflow="visible" orient="auto">
   <!-- REF_ARROW_SPOT -->
   <g transform="scale(0.0092592592)">
    <path d="M -54, 0 C -54,29.807 -29.807,54 0,54 C 29.807,54 54,29.807 54,0 C 54,-29.807 29.807,-54 0,-54 C -29.807,-54 -54,-29.807 -54,0 z"/>
   </g>
  </marker>
  <marker id="DefaultArrow6" markerUnits="strokeWidth" viewBox="0 0 1 1" markerWidth="1" markerHeight="1" overflow="visible" orient="auto">
   <!-- REF_ARROW_DIAMOND -->
   <g transform="scale(0.0092592592)">
    <path d="M -63,0 L 0,63 L 63,0 L 0,-63 z"/>
   </g>
  </marker>
  <marker id="DefaultArrow7" markerUnits="strokeWidth" viewBox="0 0 1 1" markerWidth="1" markerHeight="1" overflow="visible" orient="auto">
   <!-- REF_ARROW_FEATHER -->
   <g transform="scale(0.0092592592)">
    <path d="M 18,-54 L 108,-54 L 63,0 L 108,54 L 18, 54 L -36,0 z"/>
   </g>
  </marker>
  <marker id="DefaultArrow8" markerUnits="strokeWidth" viewBox="0 0 1 1" markerWidth="1" markerHeight="1" overflow="visible" orient="auto">
   <!-- REF_ARROW_FEATHER2 -->
   <g transform="scale(0.0092592592)">
    <path d="M -36,0 L 18,-54 L 54,-54 L 18,-18 L 27,-18 L 63,-54 L 99,-54 L 63,-18 L 72,-18 L 108,-54 L 144,-54 L 90,0 L 144,54 L 108,54 L 72,18 L 63,18 L 99,54 L 63,54 L 27,18 L 18,18 L 54,54 L 18,54 z"/>
   </g>
  </marker>
  <marker id="DefaultArrow9" markerUnits="strokeWidth" viewBox="0 0 1 1" markerWidth="1" markerHeight="1" overflow="visible" orient="auto">
   <!-- REF_ARROW_HOLLOWDIAMOND -->
   <g transform="scale(0.0092592592)">
    <path d="M 0,45 L -45,0 L 0, -45 L 45, 0 z M 0, 63 L-63, 0 L 0, -63 L 63, 0 z"/>
   </g>
  </marker>
  <filter id="StainedFilter">
   <feBlend mode="multiply" in2="BackgroundImage" in="SourceGraphic" result="blend"/>
   <feComposite in="blend" in2="SourceAlpha" operator="in" result="comp"/>
  </filter>
  <filter id="BleachFilter">
   <feBlend mode="screen" in2="BackgroundImage" in="SourceGraphic" result="blend"/>
   <feComposite in="blend" in2="SourceAlpha" operator="in" result="comp"/>
  </filter>
  <filter id="InvertTransparencyBitmapFilter">
   <feComponentTransfer>
    <feFuncR type="gamma" amplitude="1.055" exponent=".416666666" offset="-0.055"/>
    <feFuncG type="gamma" amplitude="1.055" exponent=".416666666" offset="-0.055"/>
    <feFuncB type="gamma" amplitude="1.055" exponent=".416666666" offset="-0.055"/>
   </feComponentTransfer>
   <feComponentTransfer>
    <feFuncR type="linear" slope="-1" intercept="1"/>
    <feFuncG type="linear" slope="-1" intercept="1"/>
    <feFuncB type="linear" slope="-1" intercept="1"/>
    <feFuncA type="linear" slope="1" intercept="0"/>
   </feComponentTransfer>
   <feComponentTransfer>
    <feFuncR type="gamma" amplitude="1" exponent="2.4" offset="0"/>
    <feFuncG type="gamma" amplitude="1" exponent="2.4" offset="0"/>
    <feFuncB type="gamma" amplitude="1" exponent="2.4" offset="0"/>
   </feComponentTransfer>
  </filter>
  <marker id="DefaultArrowScaled" markerUnits="strokeWidth" viewBox="0 0 1 1" markerWidth="18" markerHeight="18" overflow="visible" orient="auto">
   <!-- REF_ARROW_STRAIGHT (-2) -->
   <g transform="scale(0.0092592592)">
    <!-- 1/108 -->
    <path d="M -9 54 L -9 -54 L 117 0 z"/>
   </g>
  </marker>
  <marker id="DefaultArrowScaled_1" markerUnits="strokeWidth" viewBox="0 0 1 1" markerWidth="18" markerHeight="18" overflow="visible" orient="auto">
   <!-- REF_ARROW_STRAIGHT (-2) -->
   <g transform="scale(0.0092592592) scale(-1 1)">
    <!-- 1/108 -->
    <path d="M -9 54 L -9 -54 L 117 0 z"/>
   </g>
  </marker>
 </defs>
 <g id="Document" fill="none" stroke="black" font-family="Times New Roman" font-size="16" transform="scale(1 -1)">
  <g id="Spread" transform="translate(0 -595.277)">
   <g id="Layer 2">
    <g id="Group" stroke-linejoin="miter" stroke="#000000" stroke-width="0.25" stroke-miterlimit="79.8403193612775">
     <path d="M 388.493,419.758 L 388.493,250.179 L 432.252,250.179 L 432.252,419.758 L 388.493,419.758 Z" marker-start="none" marker-end="none"/>
     <path d="M 401.302,440.355 L 401.302,419.858 L 419.301,419.858 L 419.301,440.355 L 401.302,440.355 Z" marker-start="none" marker-end="none"/>
     <path d="M 401.373,250.028 L 401.373,229.531 L 419.372,229.531 L 419.372,250.028 L 401.373,250.028 Z" marker-start="none" marker-end="none"/>
    </g>
    <path d="M 505.868,175.033 L 487.635,281.345 L 564.871,356.63 L 458.134,372.139 L 410.404,468.862 L 362.667,372.139 L 255.923,356.628 L 333.162,281.34 L 314.93,175.03 L 410.397,225.226 L 505.868,175.033 Z" stroke="#000000" stroke-width="1.431" stroke-linejoin="miter" marker-start="none" marker-end="none" stroke-miterlimit="79.8403193612775"/>
    <path d="M 496.318,189.743 L 479.909,285.423 L 549.421,353.18 L 453.358,367.138 L 410.401,454.188 L 367.438,367.138 L 271.369,353.178 L 340.884,285.42 L 324.475,189.741 L 410.395,234.917 L 496.318,189.743 Z" stroke-width="0.25" stroke="#000000" stroke-linejoin="miter" marker-start="none" marker-end="none" stroke-miterlimit="79.8403193612775"/>
    <path d="M 467.103,234.71 L 456.272,297.859 L 502.15,342.579 L 438.749,351.791 L 410.397,409.245 L 382.041,351.791 L 318.635,342.577 L 364.515,297.857 L 353.685,234.708 L 410.393,264.525 L 467.103,234.71 Z" stroke-width="0.25" stroke="#000000" stroke-linejoin="miter" marker-start="none" marker-end="none" stroke-miterlimit="79.8403193612775"/>
    <path d="M 438.748,278.352 L 433.333,309.927 L 456.272,332.286 L 424.571,336.893 L 410.395,365.619 L 396.217,336.893 L 364.514,332.286 L 387.454,309.925 L 382.039,278.351 L 410.393,293.259 L 438.748,278.352 Z" stroke-width="0.25" stroke="#000000" stroke-linejoin="miter" marker-start="none" marker-end="none" stroke-miterlimit="79.8403193612775"/>
   </g>
   <g id="Layer 1">
    <g id="Group_1" stroke-linejoin="miter" stroke="#000000" stroke-width="0.25" stroke-miterlimit="79.8403193612775">
     <path d="M 54.777,366.794 L 54.777,361.125 L 60.446,361.125 L 60.446,366.794 L 54.777,366.794 Z" marker-start="none" marker-end="none"/>
     <path d="M 53.36,368.211 L 53.36,359.708 L 61.863,359.708 L 61.863,368.211 L 53.36,368.211 Z" marker-start="none" marker-end="none"/>
    </g>
    <g id="Group_2" stroke-linejoin="miter" stroke="#000000" stroke-width="0.25" stroke-miterlimit="79.8403193612775">
     <path d="M 268.535,356.013 L 268.535,350.344 L 274.204,350.344 L 274.204,356.013 L 268.535,356.013 Z" marker-start="none" marker-end="none"/>
     <path d="M 267.118,357.43 L 267.118,348.927 L 275.621,348.927 L 275.621,357.43 L 267.118,357.43 Z" marker-start="none" marker-end="none"/>
    </g>
    <g id="Group_3" stroke-linejoin="miter" stroke="#000000" stroke-width="0.25" stroke-miterlimit="79.8403193612775">
     <path d="M 315.801,345.412 L 315.801,339.743 L 321.47,339.743 L 321.47,345.412 L 315.801,345.412 Z" marker-start="none" marker-end="none"/>
     <path d="M 314.384,346.829 L 314.384,338.326 L 322.887,338.326 L 322.887,346.829 L 314.384,346.829 Z" marker-start="none" marker-end="none"/>
    </g>
    <g id="Group_4" stroke-linejoin="miter" stroke="#000000" stroke-width="0.25" stroke-miterlimit="79.8403193612775">
     <path d="M 361.68,335.121 L 361.68,329.452 L 367.349,329.452 L 367.349,335.121 L 361.68,335.121 Z" marker-start="none" marker-end="none"/>
     <path d="M 360.263,336.538 L 360.263,328.035 L 368.766,328.035 L 368.766,336.538 L 360.263,336.538 Z" marker-start="none" marker-end="none"/>
    </g>
    <g id="Group_5" stroke-linejoin="miter" stroke="#000000" stroke-width="0.25" stroke-miterlimit="79.8403193612775">
     <path d="M 393.383,339.728 L 393.383,334.059 L 399.052,334.059 L 399.052,339.728 L 393.383,339.728 Z" marker-start="none" marker-end="none"/>
     <path d="M 391.966,341.145 L 391.966,332.642 L 400.469,332.642 L 400.469,341.145 L 391.966,341.145 Z" marker-start="none" marker-end="none"/>
    </g>
    <g id="Group_6" stroke-linejoin="miter" stroke="#000000" stroke-width="0.25" stroke-miterlimit="79.8403193612775">
     <path d="M 379.207,354.626 L 379.207,348.957 L 384.876,348.957 L 384.876,354.626 L 379.207,354.626 Z" marker-start="none" marker-end="none"/>
     <path d="M 377.79,356.043 L 377.79,347.54 L 386.293,347.54 L 386.293,356.043 L 377.79,356.043 Z" marker-start="none" marker-end="none"/>
    </g>
    <g id="Group_7" stroke-linejoin="miter" stroke="#000000" stroke-width="0.25" stroke-miterlimit="79.8403193612775">
     <path d="M 364.604,369.973 L 364.604,364.304 L 370.273,364.304 L 370.273,369.973 L 364.604,369.973 Z" marker-start="none" marker-end="none"/>
     <path d="M 363.187,371.39 L 363.187,362.887 L 371.69,362.887 L 371.69,371.39 L 363.187,371.39 Z" marker-start="none" marker-end="none"/>
    </g>
    <g id="Group_8" stroke-linejoin="miter" stroke="#000000" stroke-width="0.25" stroke-miterlimit="79.8403193612775">
     <path d="M 338.05,288.255 L 338.05,282.586 L 343.719,282.586 L 343.719,288.255 L 338.05,288.255 Z" marker-start="none" marker-end="none"/>
     <path d="M 336.633,289.672 L 336.633,281.169 L 345.136,281.169 L 345.136,289.672 L 336.633,289.672 Z" marker-start="none" marker-end="none"/>
    </g>
    <g id="Group_9" stroke-linejoin="miter" stroke="#000000" stroke-width="0.25" stroke-miterlimit="79.8403193612775">
     <path d="M 361.681,300.692 L 361.681,295.023 L 367.35,295.023 L 367.35,300.692 L 361.681,300.692 Z" marker-start="none" marker-end="none"/>
     <path d="M 360.264,302.109 L 360.264,293.606 L 368.767,293.606 L 368.767,302.109 L 360.264,302.109 Z" marker-start="none" marker-end="none"/>
    </g>
    <g id="Group_10" stroke-linejoin="miter" stroke="#000000" stroke-width="0.25" stroke-miterlimit="79.8403193612775">
     <path d="M 384.62,312.76 L 384.62,307.091 L 390.289,307.091 L 390.289,312.76 L 384.62,312.76 Z" marker-start="none" marker-end="none"/>
     <path d="M 383.203,314.177 L 383.203,305.674 L 391.706,305.674 L 391.706,314.177 L 383.203,314.177 Z" marker-start="none" marker-end="none"/>
    </g>
    <g id="Group_11" stroke-linejoin="miter" stroke="#000000" stroke-width="0.25" stroke-miterlimit="79.8403193612775">
     <path d="M 379.205,281.186 L 379.205,275.517 L 384.874,275.517 L 384.874,281.186 L 379.205,281.186 Z" marker-start="none" marker-end="none"/>
     <path d="M 377.788,282.603 L 377.788,274.1 L 386.291,274.1 L 386.291,282.603 L 377.788,282.603 Z" marker-start="none" marker-end="none"/>
    </g>
    <g id="Group_12" stroke-linejoin="miter" stroke="#000000" stroke-width="0.25" stroke-miterlimit="79.8403193612775">
     <path d="M 350.851,237.543 L 350.851,231.874 L 356.52,231.874 L 356.52,237.543 L 350.851,237.543 Z" marker-start="none" marker-end="none"/>
     <path d="M 349.434,238.96 L 349.434,230.457 L 357.937,230.457 L 357.937,238.96 L 349.434,238.96 Z" marker-start="none" marker-end="none"/>
    </g>
    <g id="Group_13" stroke-linejoin="miter" stroke="#000000" stroke-width="0.25" stroke-miterlimit="79.8403193612775">
     <path d="M 321.641,192.576 L 321.641,186.907 L 327.31,186.907 L 327.31,192.576 L 321.641,192.576 Z" marker-start="none" marker-end="none"/>
     <path d="M 320.224,193.993 L 320.224,185.49 L 328.727,185.49 L 328.727,193.993 L 320.224,193.993 Z" marker-start="none" marker-end="none"/>
    </g>
    <g id="Group_14" stroke-linejoin="miter" stroke="#000000" stroke-width="0.25" stroke-miterlimit="79.8403193612775">
     <path d="M 407.561,237.752 L 407.561,232.083 L 413.23,232.083 L 413.23,237.752 L 407.561,237.752 Z" marker-start="none" marker-end="none"/>
     <path d="M 406.144,239.169 L 406.144,230.666 L 414.647,230.666 L 414.647,239.169 L 406.144,239.169 Z" marker-start="none" marker-end="none"/>
    </g>
    <g id="Group_15" stroke-linejoin="miter" stroke="#000000" stroke-width="0.25" stroke-miterlimit="79.8403193612775">
     <path d="M 407.559,267.36 L 407.559,261.691 L 413.228,261.691 L 413.228,267.36 L 407.559,267.36 Z" marker-start="none" marker-end="none"/>
     <path d="M 406.142,268.777 L 406.142,260.274 L 414.645,260.274 L 414.645,268.777 L 406.142,268.777 Z" marker-start="none" marker-end="none"/>
    </g>
    <g id="Group_16" stroke-linejoin="miter" stroke="#000000" stroke-width="0.25" stroke-miterlimit="79.8403193612775">
     <path d="M 407.559,296.094 L 407.559,290.425 L 413.228,290.425 L 413.228,296.094 L 407.559,296.094 Z" marker-start="none" marker-end="none"/>
     <path d="M 406.142,297.511 L 406.142,289.008 L 414.645,289.008 L 414.645,297.511 L 406.142,297.511 Z" marker-start="none" marker-end="none"/>
    </g>
    <g id="Group_17" stroke-linejoin="miter" stroke="#000000" stroke-width="0.25" stroke-miterlimit="79.8403193612775">
     <path d="M 430.499,312.762 L 430.499,307.093 L 436.168,307.093 L 436.168,312.762 L 430.499,312.762 Z" marker-start="none" marker-end="none"/>
     <path d="M 429.082,314.179 L 429.082,305.676 L 437.585,305.676 L 437.585,314.179 L 429.082,314.179 Z" marker-start="none" marker-end="none"/>
    </g>
    <g id="Group_18" stroke-linejoin="miter" stroke="#000000" stroke-width="0.25" stroke-miterlimit="79.8403193612775">
     <path d="M 435.914,281.187 L 435.914,275.518 L 441.583,275.518 L 441.583,281.187 L 435.914,281.187 Z" marker-start="none" marker-end="none"/>
     <path d="M 434.497,282.604 L 434.497,274.101 L 443,274.101 L 443,282.604 L 434.497,282.604 Z" marker-start="none" marker-end="none"/>
    </g>
    <g id="Group_19" stroke-linejoin="miter" stroke="#000000" stroke-width="0.25" stroke-miterlimit="79.8403193612775">
     <path d="M 464.269,237.545 L 464.269,231.876 L 469.938,231.876 L 469.938,237.545 L 464.269,237.545 Z" marker-start="none" marker-end="none"/>
     <path d="M 462.852,238.962 L 462.852,230.459 L 471.355,230.459 L 471.355,238.962 L 462.852,238.962 Z" marker-start="none" marker-end="none"/>
    </g>
    <g id="Group_20" stroke-linejoin="miter" stroke="#000000" stroke-width="0.25" stroke-miterlimit="79.8403193612775">
     <path d="M 493.484,192.578 L 493.484,186.909 L 499.153,186.909 L 499.153,192.578 L 493.484,192.578 Z" marker-start="none" marker-end="none"/>
     <path d="M 492.067,193.995 L 492.067,185.492 L 500.57,185.492 L 500.57,193.995 L 492.067,193.995 Z" marker-start="none" marker-end="none"/>
    </g>
    <g id="Group_21" stroke-linejoin="miter" stroke="#000000" stroke-width="0.25" stroke-miterlimit="79.8403193612775">
     <path d="M 477.075,288.258 L 477.075,282.589 L 482.744,282.589 L 482.744,288.258 L 477.075,288.258 Z" marker-start="none" marker-end="none"/>
     <path d="M 475.658,289.675 L 475.658,281.172 L 484.161,281.172 L 484.161,289.675 L 475.658,289.675 Z" marker-start="none" marker-end="none"/>
    </g>
    <g id="Group_22" stroke-linejoin="miter" stroke="#000000" stroke-width="0.25" stroke-miterlimit="79.8403193612775">
     <path d="M 453.438,300.694 L 453.438,295.025 L 459.107,295.025 L 459.107,300.694 L 453.438,300.694 Z" marker-start="none" marker-end="none"/>
     <path d="M 452.021,302.111 L 452.021,293.608 L 460.524,293.608 L 460.524,302.111 L 452.021,302.111 Z" marker-start="none" marker-end="none"/>
    </g>
    <g id="Group_23" stroke-linejoin="miter" stroke="#000000" stroke-width="0.25" stroke-miterlimit="79.8403193612775">
     <path d="M 453.438,335.121 L 453.438,329.452 L 459.107,329.452 L 459.107,335.121 L 453.438,335.121 Z" marker-start="none" marker-end="none"/>
     <path d="M 452.021,336.538 L 452.021,328.035 L 460.524,328.035 L 460.524,336.538 L 452.021,336.538 Z" marker-start="none" marker-end="none"/>
    </g>
    <g id="Group_24" stroke-linejoin="miter" stroke="#000000" stroke-width="0.25" stroke-miterlimit="79.8403193612775">
     <path d="M 499.316,345.414 L 499.316,339.745 L 504.985,339.745 L 504.985,345.414 L 499.316,345.414 Z" marker-start="none" marker-end="none"/>
     <path d="M 497.899,346.831 L 497.899,338.328 L 506.402,338.328 L 506.402,346.831 L 497.899,346.831 Z" marker-start="none" marker-end="none"/>
    </g>
    <g id="Group_25" stroke-linejoin="miter" stroke="#000000" stroke-width="0.25" stroke-miterlimit="79.8403193612775">
     <path d="M 546.587,356.015 L 546.587,350.346 L 552.256,350.346 L 552.256,356.015 L 546.587,356.015 Z" marker-start="none" marker-end="none"/>
     <path d="M 545.17,357.432 L 545.17,348.929 L 553.673,348.929 L 553.673,357.432 L 545.17,357.432 Z" marker-start="none" marker-end="none"/>
    </g>
    <g id="Group_26" stroke-linejoin="miter" stroke="#000000" stroke-width="0.25" stroke-miterlimit="79.8403193612775">
     <path d="M 435.915,354.626 L 435.915,348.957 L 441.584,348.957 L 441.584,354.626 L 435.915,354.626 Z" marker-start="none" marker-end="none"/>
     <path d="M 434.498,356.043 L 434.498,347.54 L 443.001,347.54 L 443.001,356.043 L 434.498,356.043 Z" marker-start="none" marker-end="none"/>
    </g>
    <g id="Group_27" stroke-linejoin="miter" stroke="#000000" stroke-width="0.25" stroke-miterlimit="79.8403193612775">
     <path d="M 450.524,369.973 L 450.524,364.304 L 456.193,364.304 L 456.193,369.973 L 450.524,369.973 Z" marker-start="none" marker-end="none"/>
     <path d="M 449.107,371.39 L 449.107,362.887 L 457.61,362.887 L 457.61,371.39 L 449.107,371.39 Z" marker-start="none" marker-end="none"/>
    </g>
    <g id="Group_28" stroke-linejoin="miter" stroke="#000000" stroke-width="0.25" stroke-miterlimit="79.8403193612775">
     <path d="M 407.561,368.454 L 407.561,362.785 L 413.23,362.785 L 413.23,368.454 L 407.561,368.454 Z" marker-start="none" marker-end="none"/>
     <path d="M 406.144,369.871 L 406.144,361.368 L 414.647,361.368 L 414.647,369.871 L 406.144,369.871 Z" marker-start="none" marker-end="none"/>
    </g>
    <g id="Group_29" stroke-linejoin="miter" stroke="#000000" stroke-width="0.25" stroke-miterlimit="79.8403193612775">
     <path d="M 421.737,339.728 L 421.737,334.059 L 427.406,334.059 L 427.406,339.728 L 421.737,339.728 Z" marker-start="none" marker-end="none"/>
     <path d="M 420.32,341.145 L 420.32,332.642 L 428.823,332.642 L 428.823,341.145 L 420.32,341.145 Z" marker-start="none" marker-end="none"/>
    </g>
    <g id="Group_30" stroke-linejoin="miter" stroke="#000000" stroke-width="0.25" stroke-miterlimit="79.8403193612775">
     <path d="M 407.563,412.08 L 407.563,406.411 L 413.232,406.411 L 413.232,412.08 L 407.563,412.08 Z" marker-start="none" marker-end="none"/>
     <path d="M 406.146,413.497 L 406.146,404.994 L 414.649,404.994 L 414.649,413.497 L 406.146,413.497 Z" marker-start="none" marker-end="none"/>
    </g>
    <g id="Group_31" stroke-linejoin="miter" stroke="#000000" stroke-width="0.25" stroke-miterlimit="79.8403193612775">
     <path d="M 407.567,457.023 L 407.567,451.354 L 413.236,451.354 L 413.236,457.023 L 407.567,457.023 Z" marker-start="none" marker-end="none"/>
     <path d="M 406.15,458.44 L 406.15,449.937 L 414.653,449.937 L 414.653,458.44 L 406.15,458.44 Z" marker-start="none" marker-end="none"/>
    </g>
    <g id="Group_32" stroke-linejoin="miter" stroke="#000000" stroke-width="0.25" stroke-miterlimit="79.8403193612775">
     <path d="M 407.559,320.214 L 407.559,314.545 L 413.228,314.545 L 413.228,320.214 L 407.559,320.214 Z" marker-start="none" marker-end="none"/>
     <path d="M 406.142,321.631 L 406.142,313.128 L 414.645,313.128 L 414.645,321.631 L 406.142,321.631 Z" marker-start="none" marker-end="none"/>
    </g>
    <g id="Group_33" stroke-linecap="round" stroke-width="0.5" stroke-miterlimit="79.8403193612775">
     <path d="M 413.774,340.613 L 406.971,340.613 L 406.971,329.274 L 413.774,329.274 L 413.774,340.613 Z" fill="#4c4c4c" stroke="#000000" stroke-linejoin="miter" marker-start="none" marker-end="none"/>
     <path d="M 409.045,337.769 C 409.486,338.507 410.445,338.748 411.183,338.307 C 411.921,337.866 412.162,336.907 411.721,336.169 C 411.28,335.431 410.321,335.19 409.583,335.631 C 408.845,336.072 408.604,337.031 409.045,337.769 Z" stroke-linejoin="miter" stroke="#000000" fill="#ffffff" marker-start="none" marker-end="none"/>
     <path d="M 409.24,331.413 C 409.552,332.043 410.32,332.301 410.95,331.989 C 411.58,331.677 411.838,330.909 411.526,330.279 C 411.214,329.649 410.446,329.391 409.816,329.703 C 409.186,330.015 408.928,330.783 409.24,331.413 Z" stroke-linejoin="miter" stroke="#000000" fill="#ffffff" marker-start="none" marker-end="none"/>
     <path d="M 413.658,333.567 L 406.971,333.567" fill="none" stroke-linejoin="round"/>
    </g>
   </g>
  </g>
 </g>
</svg>
