G75*
%MOIN*%
%OFA0B0*%
%FSLAX25Y25*%
%IPPOS*%
%LPD*%
%AMOC8*
5,1,8,0,0,1.08239X$1,22.5*
%
%ADD10C,0.00004*%
%ADD11C,0.00400*%
%ADD12R,0.02362X0.02835*%
%ADD13C,0.00394*%
%ADD14C,0.00236*%
%ADD15C,0.00000*%
%ADD16C,0.02000*%
%ADD17C,0.02800*%
%ADD18C,0.00800*%
%ADD19C,0.01000*%
D10*
X0138209Y0001002D02*
X0163768Y0150020D01*
X0055500Y0255555D01*
X0205122Y0277296D01*
X0272035Y0412877D01*
X0338949Y0277296D01*
X0488571Y0255555D01*
X0380303Y0150020D01*
X0405862Y0001002D01*
X0272035Y0071359D01*
X0138209Y0001002D01*
D11*
X0502938Y0251202D02*
X0504118Y0252382D01*
X0503528Y0252382D02*
X0505298Y0252382D01*
X0505298Y0251202D02*
X0505298Y0254742D01*
X0503528Y0254742D01*
X0502938Y0254152D01*
X0502938Y0252972D01*
X0503528Y0252382D01*
X0506563Y0251202D02*
X0508924Y0251202D01*
X0508924Y0254742D01*
X0506563Y0254742D01*
X0507744Y0252972D02*
X0508924Y0252972D01*
X0510189Y0252972D02*
X0510779Y0252382D01*
X0512549Y0252382D01*
X0512549Y0251202D02*
X0512549Y0254742D01*
X0510779Y0254742D01*
X0510189Y0254152D01*
X0510189Y0252972D01*
X0513814Y0252972D02*
X0514404Y0252382D01*
X0516174Y0252382D01*
X0516174Y0251202D02*
X0516174Y0254742D01*
X0514404Y0254742D01*
X0513814Y0254152D01*
X0513814Y0252972D01*
X0517439Y0254152D02*
X0518029Y0254742D01*
X0519209Y0254742D01*
X0519799Y0254152D01*
X0519799Y0251792D01*
X0519209Y0251202D01*
X0518029Y0251202D01*
X0517439Y0251792D01*
X0517439Y0254152D01*
X0521064Y0254152D02*
X0521654Y0254742D01*
X0522834Y0254742D01*
X0523424Y0254152D01*
X0523424Y0251792D01*
X0522834Y0251202D01*
X0521654Y0251202D01*
X0521064Y0251792D01*
X0528314Y0251202D02*
X0528314Y0254742D01*
X0529494Y0253562D01*
X0530674Y0254742D01*
X0530674Y0251202D01*
X0531939Y0251792D02*
X0531939Y0254152D01*
X0532529Y0254742D01*
X0533709Y0254742D01*
X0534299Y0254152D01*
X0534299Y0251792D01*
X0533709Y0251202D01*
X0532529Y0251202D01*
X0531939Y0251792D01*
X0535565Y0254742D02*
X0537925Y0254742D01*
X0536745Y0254742D02*
X0536745Y0251202D01*
X0540370Y0251202D02*
X0540370Y0254742D01*
X0541550Y0254742D02*
X0539190Y0254742D01*
X0542815Y0254152D02*
X0542815Y0251792D01*
X0543405Y0251202D01*
X0544585Y0251202D01*
X0545175Y0251792D01*
X0545175Y0254152D01*
X0544585Y0254742D01*
X0543405Y0254742D01*
X0542815Y0254152D01*
X0546440Y0254152D02*
X0546440Y0253562D01*
X0547030Y0252972D01*
X0548800Y0252972D01*
X0548800Y0254742D02*
X0547030Y0254742D01*
X0546440Y0254152D01*
X0547030Y0252972D02*
X0546440Y0252382D01*
X0546440Y0251792D01*
X0547030Y0251202D01*
X0548800Y0251202D01*
X0548800Y0254742D01*
D12*
X0274356Y0232630D03*
X0274356Y0228811D03*
X0274356Y0224993D03*
X0274356Y0221174D03*
X0268844Y0221174D03*
X0268844Y0224993D03*
X0268844Y0228811D03*
X0268844Y0232630D03*
D13*
X0257521Y0231832D02*
X0254765Y0231832D01*
X0257521Y0231832D02*
X0257521Y0230258D01*
X0254765Y0230258D01*
X0254765Y0231832D01*
X0254765Y0230651D02*
X0257521Y0230651D01*
X0257521Y0231044D02*
X0254765Y0231044D01*
X0254765Y0231437D02*
X0257521Y0231437D01*
X0257521Y0231830D02*
X0254765Y0231830D01*
X0250435Y0231832D02*
X0247679Y0231832D01*
X0250435Y0231832D02*
X0250435Y0230258D01*
X0247679Y0230258D01*
X0247679Y0231832D01*
X0247679Y0230651D02*
X0250435Y0230651D01*
X0250435Y0231044D02*
X0247679Y0231044D01*
X0247679Y0231437D02*
X0250435Y0231437D01*
X0250435Y0231830D02*
X0247679Y0231830D01*
X0247679Y0224746D02*
X0250435Y0224746D01*
X0250435Y0223172D01*
X0247679Y0223172D01*
X0247679Y0224746D01*
X0247679Y0223565D02*
X0250435Y0223565D01*
X0250435Y0223958D02*
X0247679Y0223958D01*
X0247679Y0224351D02*
X0250435Y0224351D01*
X0250435Y0224744D02*
X0247679Y0224744D01*
X0254765Y0224746D02*
X0257521Y0224746D01*
X0257521Y0223172D01*
X0254765Y0223172D01*
X0254765Y0224746D01*
X0254765Y0223565D02*
X0257521Y0223565D01*
X0257521Y0223958D02*
X0254765Y0223958D01*
X0254765Y0224351D02*
X0257521Y0224351D01*
X0257521Y0224744D02*
X0254765Y0224744D01*
X0267079Y0205032D02*
X0269835Y0205032D01*
X0269835Y0203458D01*
X0267079Y0203458D01*
X0267079Y0205032D01*
X0267079Y0203851D02*
X0269835Y0203851D01*
X0269835Y0204244D02*
X0267079Y0204244D01*
X0267079Y0204637D02*
X0269835Y0204637D01*
X0269835Y0205030D02*
X0267079Y0205030D01*
X0274165Y0205032D02*
X0276921Y0205032D01*
X0276921Y0203458D01*
X0274165Y0203458D01*
X0274165Y0205032D01*
X0274165Y0203851D02*
X0276921Y0203851D01*
X0276921Y0204244D02*
X0274165Y0204244D01*
X0274165Y0204637D02*
X0276921Y0204637D01*
X0276921Y0205030D02*
X0274165Y0205030D01*
X0274165Y0197946D02*
X0276921Y0197946D01*
X0276921Y0196372D01*
X0274165Y0196372D01*
X0274165Y0197946D01*
X0274165Y0196765D02*
X0276921Y0196765D01*
X0276921Y0197158D02*
X0274165Y0197158D01*
X0274165Y0197551D02*
X0276921Y0197551D01*
X0276921Y0197944D02*
X0274165Y0197944D01*
X0269835Y0197946D02*
X0267079Y0197946D01*
X0269835Y0197946D02*
X0269835Y0196372D01*
X0267079Y0196372D01*
X0267079Y0197946D01*
X0267079Y0196765D02*
X0269835Y0196765D01*
X0269835Y0197158D02*
X0267079Y0197158D01*
X0267079Y0197551D02*
X0269835Y0197551D01*
X0269835Y0197944D02*
X0267079Y0197944D01*
X0245521Y0194832D02*
X0242765Y0194832D01*
X0245521Y0194832D02*
X0245521Y0193258D01*
X0242765Y0193258D01*
X0242765Y0194832D01*
X0242765Y0193651D02*
X0245521Y0193651D01*
X0245521Y0194044D02*
X0242765Y0194044D01*
X0242765Y0194437D02*
X0245521Y0194437D01*
X0245521Y0194830D02*
X0242765Y0194830D01*
X0238435Y0194832D02*
X0235679Y0194832D01*
X0238435Y0194832D02*
X0238435Y0193258D01*
X0235679Y0193258D01*
X0235679Y0194832D01*
X0235679Y0193651D02*
X0238435Y0193651D01*
X0238435Y0194044D02*
X0235679Y0194044D01*
X0235679Y0194437D02*
X0238435Y0194437D01*
X0238435Y0194830D02*
X0235679Y0194830D01*
X0235679Y0187746D02*
X0238435Y0187746D01*
X0238435Y0186172D01*
X0235679Y0186172D01*
X0235679Y0187746D01*
X0235679Y0186565D02*
X0238435Y0186565D01*
X0238435Y0186958D02*
X0235679Y0186958D01*
X0235679Y0187351D02*
X0238435Y0187351D01*
X0238435Y0187744D02*
X0235679Y0187744D01*
X0242765Y0187746D02*
X0245521Y0187746D01*
X0245521Y0186172D01*
X0242765Y0186172D01*
X0242765Y0187746D01*
X0242765Y0186565D02*
X0245521Y0186565D01*
X0245521Y0186958D02*
X0242765Y0186958D01*
X0242765Y0187351D02*
X0245521Y0187351D01*
X0245521Y0187744D02*
X0242765Y0187744D01*
X0266979Y0171932D02*
X0269735Y0171932D01*
X0269735Y0170358D01*
X0266979Y0170358D01*
X0266979Y0171932D01*
X0266979Y0170751D02*
X0269735Y0170751D01*
X0269735Y0171144D02*
X0266979Y0171144D01*
X0266979Y0171537D02*
X0269735Y0171537D01*
X0269735Y0171930D02*
X0266979Y0171930D01*
X0274065Y0171932D02*
X0276821Y0171932D01*
X0276821Y0170358D01*
X0274065Y0170358D01*
X0274065Y0171932D01*
X0274065Y0170751D02*
X0276821Y0170751D01*
X0276821Y0171144D02*
X0274065Y0171144D01*
X0274065Y0171537D02*
X0276821Y0171537D01*
X0276821Y0171930D02*
X0274065Y0171930D01*
X0274065Y0164846D02*
X0276821Y0164846D01*
X0276821Y0163272D01*
X0274065Y0163272D01*
X0274065Y0164846D01*
X0274065Y0163665D02*
X0276821Y0163665D01*
X0276821Y0164058D02*
X0274065Y0164058D01*
X0274065Y0164451D02*
X0276821Y0164451D01*
X0276821Y0164844D02*
X0274065Y0164844D01*
X0269735Y0164846D02*
X0266979Y0164846D01*
X0269735Y0164846D02*
X0269735Y0163272D01*
X0266979Y0163272D01*
X0266979Y0164846D01*
X0266979Y0163665D02*
X0269735Y0163665D01*
X0269735Y0164058D02*
X0266979Y0164058D01*
X0266979Y0164451D02*
X0269735Y0164451D01*
X0269735Y0164844D02*
X0266979Y0164844D01*
X0238021Y0151632D02*
X0235265Y0151632D01*
X0238021Y0151632D02*
X0238021Y0150058D01*
X0235265Y0150058D01*
X0235265Y0151632D01*
X0235265Y0150451D02*
X0238021Y0150451D01*
X0238021Y0150844D02*
X0235265Y0150844D01*
X0235265Y0151237D02*
X0238021Y0151237D01*
X0238021Y0151630D02*
X0235265Y0151630D01*
X0230935Y0151632D02*
X0228179Y0151632D01*
X0230935Y0151632D02*
X0230935Y0150058D01*
X0228179Y0150058D01*
X0228179Y0151632D01*
X0228179Y0150451D02*
X0230935Y0150451D01*
X0230935Y0150844D02*
X0228179Y0150844D01*
X0228179Y0151237D02*
X0230935Y0151237D01*
X0230935Y0151630D02*
X0228179Y0151630D01*
X0228179Y0144546D02*
X0230935Y0144546D01*
X0230935Y0142972D01*
X0228179Y0142972D01*
X0228179Y0144546D01*
X0228179Y0143365D02*
X0230935Y0143365D01*
X0230935Y0143758D02*
X0228179Y0143758D01*
X0228179Y0144151D02*
X0230935Y0144151D01*
X0230935Y0144544D02*
X0228179Y0144544D01*
X0235265Y0144546D02*
X0238021Y0144546D01*
X0238021Y0142972D01*
X0235265Y0142972D01*
X0235265Y0144546D01*
X0235265Y0143365D02*
X0238021Y0143365D01*
X0238021Y0143758D02*
X0235265Y0143758D01*
X0235265Y0144151D02*
X0238021Y0144151D01*
X0238021Y0144544D02*
X0235265Y0144544D01*
X0266879Y0132732D02*
X0269635Y0132732D01*
X0269635Y0131158D01*
X0266879Y0131158D01*
X0266879Y0132732D01*
X0266879Y0131551D02*
X0269635Y0131551D01*
X0269635Y0131944D02*
X0266879Y0131944D01*
X0266879Y0132337D02*
X0269635Y0132337D01*
X0269635Y0132730D02*
X0266879Y0132730D01*
X0273965Y0132732D02*
X0276721Y0132732D01*
X0276721Y0131158D01*
X0273965Y0131158D01*
X0273965Y0132732D01*
X0273965Y0131551D02*
X0276721Y0131551D01*
X0276721Y0131944D02*
X0273965Y0131944D01*
X0273965Y0132337D02*
X0276721Y0132337D01*
X0276721Y0132730D02*
X0273965Y0132730D01*
X0273965Y0125646D02*
X0276721Y0125646D01*
X0276721Y0124072D01*
X0273965Y0124072D01*
X0273965Y0125646D01*
X0273965Y0124465D02*
X0276721Y0124465D01*
X0276721Y0124858D02*
X0273965Y0124858D01*
X0273965Y0125251D02*
X0276721Y0125251D01*
X0276721Y0125644D02*
X0273965Y0125644D01*
X0269635Y0125646D02*
X0266879Y0125646D01*
X0269635Y0125646D02*
X0269635Y0124072D01*
X0266879Y0124072D01*
X0266879Y0125646D01*
X0266879Y0124465D02*
X0269635Y0124465D01*
X0269635Y0124858D02*
X0266879Y0124858D01*
X0266879Y0125251D02*
X0269635Y0125251D01*
X0269635Y0125644D02*
X0266879Y0125644D01*
X0305879Y0144746D02*
X0308635Y0144746D01*
X0308635Y0143172D01*
X0305879Y0143172D01*
X0305879Y0144746D01*
X0305879Y0143565D02*
X0308635Y0143565D01*
X0308635Y0143958D02*
X0305879Y0143958D01*
X0305879Y0144351D02*
X0308635Y0144351D01*
X0308635Y0144744D02*
X0305879Y0144744D01*
X0312965Y0144746D02*
X0315721Y0144746D01*
X0315721Y0143172D01*
X0312965Y0143172D01*
X0312965Y0144746D01*
X0312965Y0143565D02*
X0315721Y0143565D01*
X0315721Y0143958D02*
X0312965Y0143958D01*
X0312965Y0144351D02*
X0315721Y0144351D01*
X0315721Y0144744D02*
X0312965Y0144744D01*
X0312965Y0151832D02*
X0315721Y0151832D01*
X0315721Y0150258D01*
X0312965Y0150258D01*
X0312965Y0151832D01*
X0312965Y0150651D02*
X0315721Y0150651D01*
X0315721Y0151044D02*
X0312965Y0151044D01*
X0312965Y0151437D02*
X0315721Y0151437D01*
X0315721Y0151830D02*
X0312965Y0151830D01*
X0308635Y0151832D02*
X0305879Y0151832D01*
X0308635Y0151832D02*
X0308635Y0150258D01*
X0305879Y0150258D01*
X0305879Y0151832D01*
X0305879Y0150651D02*
X0308635Y0150651D01*
X0308635Y0151044D02*
X0305879Y0151044D01*
X0305879Y0151437D02*
X0308635Y0151437D01*
X0308635Y0151830D02*
X0305879Y0151830D01*
X0329979Y0171246D02*
X0332735Y0171246D01*
X0332735Y0169672D01*
X0329979Y0169672D01*
X0329979Y0171246D01*
X0329979Y0170065D02*
X0332735Y0170065D01*
X0332735Y0170458D02*
X0329979Y0170458D01*
X0329979Y0170851D02*
X0332735Y0170851D01*
X0332735Y0171244D02*
X0329979Y0171244D01*
X0329979Y0178332D02*
X0332735Y0178332D01*
X0332735Y0176758D01*
X0329979Y0176758D01*
X0329979Y0178332D01*
X0329979Y0177151D02*
X0332735Y0177151D01*
X0332735Y0177544D02*
X0329979Y0177544D01*
X0329979Y0177937D02*
X0332735Y0177937D01*
X0332735Y0178330D02*
X0329979Y0178330D01*
X0337065Y0178332D02*
X0339821Y0178332D01*
X0339821Y0176758D01*
X0337065Y0176758D01*
X0337065Y0178332D01*
X0337065Y0177151D02*
X0339821Y0177151D01*
X0339821Y0177544D02*
X0337065Y0177544D01*
X0337065Y0177937D02*
X0339821Y0177937D01*
X0339821Y0178330D02*
X0337065Y0178330D01*
X0337065Y0171246D02*
X0339821Y0171246D01*
X0339821Y0169672D01*
X0337065Y0169672D01*
X0337065Y0171246D01*
X0337065Y0170065D02*
X0339821Y0170065D01*
X0339821Y0170458D02*
X0337065Y0170458D01*
X0337065Y0170851D02*
X0339821Y0170851D01*
X0339821Y0171244D02*
X0337065Y0171244D01*
X0362379Y0161232D02*
X0365135Y0161232D01*
X0365135Y0159658D01*
X0362379Y0159658D01*
X0362379Y0161232D01*
X0362379Y0160051D02*
X0365135Y0160051D01*
X0365135Y0160444D02*
X0362379Y0160444D01*
X0362379Y0160837D02*
X0365135Y0160837D01*
X0365135Y0161230D02*
X0362379Y0161230D01*
X0362379Y0154146D02*
X0365135Y0154146D01*
X0365135Y0152572D01*
X0362379Y0152572D01*
X0362379Y0154146D01*
X0362379Y0152965D02*
X0365135Y0152965D01*
X0365135Y0153358D02*
X0362379Y0153358D01*
X0362379Y0153751D02*
X0365135Y0153751D01*
X0365135Y0154144D02*
X0362379Y0154144D01*
X0369465Y0154146D02*
X0372221Y0154146D01*
X0372221Y0152572D01*
X0369465Y0152572D01*
X0369465Y0154146D01*
X0369465Y0152965D02*
X0372221Y0152965D01*
X0372221Y0153358D02*
X0369465Y0153358D01*
X0369465Y0153751D02*
X0372221Y0153751D01*
X0372221Y0154144D02*
X0369465Y0154144D01*
X0369465Y0161232D02*
X0372221Y0161232D01*
X0372221Y0159658D01*
X0369465Y0159658D01*
X0369465Y0161232D01*
X0369465Y0160051D02*
X0372221Y0160051D01*
X0372221Y0160444D02*
X0369465Y0160444D01*
X0369465Y0160837D02*
X0372221Y0160837D01*
X0372221Y0161230D02*
X0369465Y0161230D01*
X0308421Y0187746D02*
X0305665Y0187746D01*
X0308421Y0187746D02*
X0308421Y0186172D01*
X0305665Y0186172D01*
X0305665Y0187746D01*
X0305665Y0186565D02*
X0308421Y0186565D01*
X0308421Y0186958D02*
X0305665Y0186958D01*
X0305665Y0187351D02*
X0308421Y0187351D01*
X0308421Y0187744D02*
X0305665Y0187744D01*
X0301335Y0187746D02*
X0298579Y0187746D01*
X0301335Y0187746D02*
X0301335Y0186172D01*
X0298579Y0186172D01*
X0298579Y0187746D01*
X0298579Y0186565D02*
X0301335Y0186565D01*
X0301335Y0186958D02*
X0298579Y0186958D01*
X0298579Y0187351D02*
X0301335Y0187351D01*
X0301335Y0187744D02*
X0298579Y0187744D01*
X0298579Y0194832D02*
X0301335Y0194832D01*
X0301335Y0193258D01*
X0298579Y0193258D01*
X0298579Y0194832D01*
X0298579Y0193651D02*
X0301335Y0193651D01*
X0301335Y0194044D02*
X0298579Y0194044D01*
X0298579Y0194437D02*
X0301335Y0194437D01*
X0301335Y0194830D02*
X0298579Y0194830D01*
X0305665Y0194832D02*
X0308421Y0194832D01*
X0308421Y0193258D01*
X0305665Y0193258D01*
X0305665Y0194832D01*
X0305665Y0193651D02*
X0308421Y0193651D01*
X0308421Y0194044D02*
X0305665Y0194044D01*
X0305665Y0194437D02*
X0308421Y0194437D01*
X0308421Y0194830D02*
X0305665Y0194830D01*
X0329779Y0218446D02*
X0332535Y0218446D01*
X0332535Y0216872D01*
X0329779Y0216872D01*
X0329779Y0218446D01*
X0329779Y0217265D02*
X0332535Y0217265D01*
X0332535Y0217658D02*
X0329779Y0217658D01*
X0329779Y0218051D02*
X0332535Y0218051D01*
X0332535Y0218444D02*
X0329779Y0218444D01*
X0329779Y0225532D02*
X0332535Y0225532D01*
X0332535Y0223958D01*
X0329779Y0223958D01*
X0329779Y0225532D01*
X0329779Y0224351D02*
X0332535Y0224351D01*
X0332535Y0224744D02*
X0329779Y0224744D01*
X0329779Y0225137D02*
X0332535Y0225137D01*
X0332535Y0225530D02*
X0329779Y0225530D01*
X0336865Y0225532D02*
X0339621Y0225532D01*
X0339621Y0223958D01*
X0336865Y0223958D01*
X0336865Y0225532D01*
X0336865Y0224351D02*
X0339621Y0224351D01*
X0339621Y0224744D02*
X0336865Y0224744D01*
X0336865Y0225137D02*
X0339621Y0225137D01*
X0339621Y0225530D02*
X0336865Y0225530D01*
X0336865Y0218446D02*
X0339621Y0218446D01*
X0339621Y0216872D01*
X0336865Y0216872D01*
X0336865Y0218446D01*
X0336865Y0217265D02*
X0339621Y0217265D01*
X0339621Y0217658D02*
X0336865Y0217658D01*
X0336865Y0218051D02*
X0339621Y0218051D01*
X0339621Y0218444D02*
X0336865Y0218444D01*
X0317421Y0244646D02*
X0314665Y0244646D01*
X0317421Y0244646D02*
X0317421Y0243072D01*
X0314665Y0243072D01*
X0314665Y0244646D01*
X0314665Y0243465D02*
X0317421Y0243465D01*
X0317421Y0243858D02*
X0314665Y0243858D01*
X0314665Y0244251D02*
X0317421Y0244251D01*
X0317421Y0244644D02*
X0314665Y0244644D01*
X0314665Y0251732D02*
X0317421Y0251732D01*
X0317421Y0250158D01*
X0314665Y0250158D01*
X0314665Y0251732D01*
X0314665Y0250551D02*
X0317421Y0250551D01*
X0317421Y0250944D02*
X0314665Y0250944D01*
X0314665Y0251337D02*
X0317421Y0251337D01*
X0317421Y0251730D02*
X0314665Y0251730D01*
X0310335Y0251732D02*
X0307579Y0251732D01*
X0310335Y0251732D02*
X0310335Y0250158D01*
X0307579Y0250158D01*
X0307579Y0251732D01*
X0307579Y0250551D02*
X0310335Y0250551D01*
X0310335Y0250944D02*
X0307579Y0250944D01*
X0307579Y0251337D02*
X0310335Y0251337D01*
X0310335Y0251730D02*
X0307579Y0251730D01*
X0307579Y0244646D02*
X0310335Y0244646D01*
X0310335Y0243072D01*
X0307579Y0243072D01*
X0307579Y0244646D01*
X0307579Y0243465D02*
X0310335Y0243465D01*
X0310335Y0243858D02*
X0307579Y0243858D01*
X0307579Y0244251D02*
X0310335Y0244251D01*
X0310335Y0244644D02*
X0307579Y0244644D01*
X0296421Y0231832D02*
X0293665Y0231832D01*
X0296421Y0231832D02*
X0296421Y0230258D01*
X0293665Y0230258D01*
X0293665Y0231832D01*
X0293665Y0230651D02*
X0296421Y0230651D01*
X0296421Y0231044D02*
X0293665Y0231044D01*
X0293665Y0231437D02*
X0296421Y0231437D01*
X0296421Y0231830D02*
X0293665Y0231830D01*
X0289335Y0231832D02*
X0286579Y0231832D01*
X0289335Y0231832D02*
X0289335Y0230258D01*
X0286579Y0230258D01*
X0286579Y0231832D01*
X0286579Y0230651D02*
X0289335Y0230651D01*
X0289335Y0231044D02*
X0286579Y0231044D01*
X0286579Y0231437D02*
X0289335Y0231437D01*
X0289335Y0231830D02*
X0286579Y0231830D01*
X0286579Y0224746D02*
X0289335Y0224746D01*
X0289335Y0223172D01*
X0286579Y0223172D01*
X0286579Y0224746D01*
X0286579Y0223565D02*
X0289335Y0223565D01*
X0289335Y0223958D02*
X0286579Y0223958D01*
X0286579Y0224351D02*
X0289335Y0224351D01*
X0289335Y0224744D02*
X0286579Y0224744D01*
X0293665Y0224746D02*
X0296421Y0224746D01*
X0296421Y0223172D01*
X0293665Y0223172D01*
X0293665Y0224746D01*
X0293665Y0223565D02*
X0296421Y0223565D01*
X0296421Y0223958D02*
X0293665Y0223958D01*
X0293665Y0224351D02*
X0296421Y0224351D01*
X0296421Y0224744D02*
X0293665Y0224744D01*
X0277021Y0264146D02*
X0274265Y0264146D01*
X0277021Y0264146D02*
X0277021Y0262572D01*
X0274265Y0262572D01*
X0274265Y0264146D01*
X0274265Y0262965D02*
X0277021Y0262965D01*
X0277021Y0263358D02*
X0274265Y0263358D01*
X0274265Y0263751D02*
X0277021Y0263751D01*
X0277021Y0264144D02*
X0274265Y0264144D01*
X0269935Y0264146D02*
X0267179Y0264146D01*
X0269935Y0264146D02*
X0269935Y0262572D01*
X0267179Y0262572D01*
X0267179Y0264146D01*
X0267179Y0262965D02*
X0269935Y0262965D01*
X0269935Y0263358D02*
X0267179Y0263358D01*
X0267179Y0263751D02*
X0269935Y0263751D01*
X0269935Y0264144D02*
X0267179Y0264144D01*
X0267179Y0271232D02*
X0269935Y0271232D01*
X0269935Y0269658D01*
X0267179Y0269658D01*
X0267179Y0271232D01*
X0267179Y0270051D02*
X0269935Y0270051D01*
X0269935Y0270444D02*
X0267179Y0270444D01*
X0267179Y0270837D02*
X0269935Y0270837D01*
X0269935Y0271230D02*
X0267179Y0271230D01*
X0274265Y0271232D02*
X0277021Y0271232D01*
X0277021Y0269658D01*
X0274265Y0269658D01*
X0274265Y0271232D01*
X0274265Y0270051D02*
X0277021Y0270051D01*
X0277021Y0270444D02*
X0274265Y0270444D01*
X0274265Y0270837D02*
X0277021Y0270837D01*
X0277021Y0271230D02*
X0274265Y0271230D01*
X0237821Y0252232D02*
X0235065Y0252232D01*
X0237821Y0252232D02*
X0237821Y0250658D01*
X0235065Y0250658D01*
X0235065Y0252232D01*
X0235065Y0251051D02*
X0237821Y0251051D01*
X0237821Y0251444D02*
X0235065Y0251444D01*
X0235065Y0251837D02*
X0237821Y0251837D01*
X0237821Y0252230D02*
X0235065Y0252230D01*
X0230735Y0252232D02*
X0227979Y0252232D01*
X0230735Y0252232D02*
X0230735Y0250658D01*
X0227979Y0250658D01*
X0227979Y0252232D01*
X0227979Y0251051D02*
X0230735Y0251051D01*
X0230735Y0251444D02*
X0227979Y0251444D01*
X0227979Y0251837D02*
X0230735Y0251837D01*
X0230735Y0252230D02*
X0227979Y0252230D01*
X0227979Y0245146D02*
X0230735Y0245146D01*
X0230735Y0243572D01*
X0227979Y0243572D01*
X0227979Y0245146D01*
X0227979Y0243965D02*
X0230735Y0243965D01*
X0230735Y0244358D02*
X0227979Y0244358D01*
X0227979Y0244751D02*
X0230735Y0244751D01*
X0230735Y0245144D02*
X0227979Y0245144D01*
X0235065Y0245146D02*
X0237821Y0245146D01*
X0237821Y0243572D01*
X0235065Y0243572D01*
X0235065Y0245146D01*
X0235065Y0243965D02*
X0237821Y0243965D01*
X0237821Y0244358D02*
X0235065Y0244358D01*
X0235065Y0244751D02*
X0237821Y0244751D01*
X0237821Y0245144D02*
X0235065Y0245144D01*
X0218021Y0266146D02*
X0215265Y0266146D01*
X0218021Y0266146D02*
X0218021Y0264572D01*
X0215265Y0264572D01*
X0215265Y0266146D01*
X0215265Y0264965D02*
X0218021Y0264965D01*
X0218021Y0265358D02*
X0215265Y0265358D01*
X0215265Y0265751D02*
X0218021Y0265751D01*
X0218021Y0266144D02*
X0215265Y0266144D01*
X0210935Y0266146D02*
X0208179Y0266146D01*
X0210935Y0266146D02*
X0210935Y0264572D01*
X0208179Y0264572D01*
X0208179Y0266146D01*
X0208179Y0264965D02*
X0210935Y0264965D01*
X0210935Y0265358D02*
X0208179Y0265358D01*
X0208179Y0265751D02*
X0210935Y0265751D01*
X0210935Y0266144D02*
X0208179Y0266144D01*
X0208179Y0273232D02*
X0210935Y0273232D01*
X0210935Y0271658D01*
X0208179Y0271658D01*
X0208179Y0273232D01*
X0208179Y0272051D02*
X0210935Y0272051D01*
X0210935Y0272444D02*
X0208179Y0272444D01*
X0208179Y0272837D02*
X0210935Y0272837D01*
X0210935Y0273230D02*
X0208179Y0273230D01*
X0215265Y0273232D02*
X0218021Y0273232D01*
X0218021Y0271658D01*
X0215265Y0271658D01*
X0215265Y0273232D01*
X0215265Y0272051D02*
X0218021Y0272051D01*
X0218021Y0272444D02*
X0215265Y0272444D01*
X0215265Y0272837D02*
X0218021Y0272837D01*
X0218021Y0273230D02*
X0215265Y0273230D01*
X0151121Y0239532D02*
X0148365Y0239532D01*
X0151121Y0239532D02*
X0151121Y0237958D01*
X0148365Y0237958D01*
X0148365Y0239532D01*
X0148365Y0238351D02*
X0151121Y0238351D01*
X0151121Y0238744D02*
X0148365Y0238744D01*
X0148365Y0239137D02*
X0151121Y0239137D01*
X0151121Y0239530D02*
X0148365Y0239530D01*
X0144035Y0239532D02*
X0141279Y0239532D01*
X0144035Y0239532D02*
X0144035Y0237958D01*
X0141279Y0237958D01*
X0141279Y0239532D01*
X0141279Y0238351D02*
X0144035Y0238351D01*
X0144035Y0238744D02*
X0141279Y0238744D01*
X0141279Y0239137D02*
X0144035Y0239137D01*
X0144035Y0239530D02*
X0141279Y0239530D01*
X0141279Y0232446D02*
X0144035Y0232446D01*
X0144035Y0230872D01*
X0141279Y0230872D01*
X0141279Y0232446D01*
X0141279Y0231265D02*
X0144035Y0231265D01*
X0144035Y0231658D02*
X0141279Y0231658D01*
X0141279Y0232051D02*
X0144035Y0232051D01*
X0144035Y0232444D02*
X0141279Y0232444D01*
X0148365Y0232446D02*
X0151121Y0232446D01*
X0151121Y0230872D01*
X0148365Y0230872D01*
X0148365Y0232446D01*
X0148365Y0231265D02*
X0151121Y0231265D01*
X0151121Y0231658D02*
X0148365Y0231658D01*
X0148365Y0232051D02*
X0151121Y0232051D01*
X0151121Y0232444D02*
X0148365Y0232444D01*
X0204279Y0225432D02*
X0207035Y0225432D01*
X0207035Y0223858D01*
X0204279Y0223858D01*
X0204279Y0225432D01*
X0204279Y0224251D02*
X0207035Y0224251D01*
X0207035Y0224644D02*
X0204279Y0224644D01*
X0204279Y0225037D02*
X0207035Y0225037D01*
X0207035Y0225430D02*
X0204279Y0225430D01*
X0211365Y0225432D02*
X0214121Y0225432D01*
X0214121Y0223858D01*
X0211365Y0223858D01*
X0211365Y0225432D01*
X0211365Y0224251D02*
X0214121Y0224251D01*
X0214121Y0224644D02*
X0211365Y0224644D01*
X0211365Y0225037D02*
X0214121Y0225037D01*
X0214121Y0225430D02*
X0211365Y0225430D01*
X0211365Y0218346D02*
X0214121Y0218346D01*
X0214121Y0216772D01*
X0211365Y0216772D01*
X0211365Y0218346D01*
X0211365Y0217165D02*
X0214121Y0217165D01*
X0214121Y0217558D02*
X0211365Y0217558D01*
X0211365Y0217951D02*
X0214121Y0217951D01*
X0214121Y0218344D02*
X0211365Y0218344D01*
X0207035Y0218346D02*
X0204279Y0218346D01*
X0207035Y0218346D02*
X0207035Y0216772D01*
X0204279Y0216772D01*
X0204279Y0218346D01*
X0204279Y0217165D02*
X0207035Y0217165D01*
X0207035Y0217558D02*
X0204279Y0217558D01*
X0204279Y0217951D02*
X0207035Y0217951D01*
X0207035Y0218344D02*
X0204279Y0218344D01*
X0203179Y0180232D02*
X0205935Y0180232D01*
X0205935Y0178658D01*
X0203179Y0178658D01*
X0203179Y0180232D01*
X0203179Y0179051D02*
X0205935Y0179051D01*
X0205935Y0179444D02*
X0203179Y0179444D01*
X0203179Y0179837D02*
X0205935Y0179837D01*
X0205935Y0180230D02*
X0203179Y0180230D01*
X0203179Y0173146D02*
X0205935Y0173146D01*
X0205935Y0171572D01*
X0203179Y0171572D01*
X0203179Y0173146D01*
X0203179Y0171965D02*
X0205935Y0171965D01*
X0205935Y0172358D02*
X0203179Y0172358D01*
X0203179Y0172751D02*
X0205935Y0172751D01*
X0205935Y0173144D02*
X0203179Y0173144D01*
X0210265Y0173146D02*
X0213021Y0173146D01*
X0213021Y0171572D01*
X0210265Y0171572D01*
X0210265Y0173146D01*
X0210265Y0171965D02*
X0213021Y0171965D01*
X0213021Y0172358D02*
X0210265Y0172358D01*
X0210265Y0172751D02*
X0213021Y0172751D01*
X0213021Y0173144D02*
X0210265Y0173144D01*
X0210265Y0180232D02*
X0213021Y0180232D01*
X0213021Y0178658D01*
X0210265Y0178658D01*
X0210265Y0180232D01*
X0210265Y0179051D02*
X0213021Y0179051D01*
X0213021Y0179444D02*
X0210265Y0179444D01*
X0210265Y0179837D02*
X0213021Y0179837D01*
X0213021Y0180230D02*
X0210265Y0180230D01*
X0181621Y0161332D02*
X0178865Y0161332D01*
X0181621Y0161332D02*
X0181621Y0159758D01*
X0178865Y0159758D01*
X0178865Y0161332D01*
X0178865Y0160151D02*
X0181621Y0160151D01*
X0181621Y0160544D02*
X0178865Y0160544D01*
X0178865Y0160937D02*
X0181621Y0160937D01*
X0181621Y0161330D02*
X0178865Y0161330D01*
X0174535Y0161332D02*
X0171779Y0161332D01*
X0174535Y0161332D02*
X0174535Y0159758D01*
X0171779Y0159758D01*
X0171779Y0161332D01*
X0171779Y0160151D02*
X0174535Y0160151D01*
X0174535Y0160544D02*
X0171779Y0160544D01*
X0171779Y0160937D02*
X0174535Y0160937D01*
X0174535Y0161330D02*
X0171779Y0161330D01*
X0171779Y0154246D02*
X0174535Y0154246D01*
X0174535Y0152672D01*
X0171779Y0152672D01*
X0171779Y0154246D01*
X0171779Y0153065D02*
X0174535Y0153065D01*
X0174535Y0153458D02*
X0171779Y0153458D01*
X0171779Y0153851D02*
X0174535Y0153851D01*
X0174535Y0154244D02*
X0171779Y0154244D01*
X0178865Y0154246D02*
X0181621Y0154246D01*
X0181621Y0152672D01*
X0178865Y0152672D01*
X0178865Y0154246D01*
X0178865Y0153065D02*
X0181621Y0153065D01*
X0181621Y0153458D02*
X0178865Y0153458D01*
X0178865Y0153851D02*
X0181621Y0153851D01*
X0181621Y0154244D02*
X0178865Y0154244D01*
X0188979Y0091332D02*
X0191735Y0091332D01*
X0191735Y0089758D01*
X0188979Y0089758D01*
X0188979Y0091332D01*
X0188979Y0090151D02*
X0191735Y0090151D01*
X0191735Y0090544D02*
X0188979Y0090544D01*
X0188979Y0090937D02*
X0191735Y0090937D01*
X0191735Y0091330D02*
X0188979Y0091330D01*
X0196065Y0091332D02*
X0198821Y0091332D01*
X0198821Y0089758D01*
X0196065Y0089758D01*
X0196065Y0091332D01*
X0196065Y0090151D02*
X0198821Y0090151D01*
X0198821Y0090544D02*
X0196065Y0090544D01*
X0196065Y0090937D02*
X0198821Y0090937D01*
X0198821Y0091330D02*
X0196065Y0091330D01*
X0196065Y0084246D02*
X0198821Y0084246D01*
X0198821Y0082672D01*
X0196065Y0082672D01*
X0196065Y0084246D01*
X0196065Y0083065D02*
X0198821Y0083065D01*
X0198821Y0083458D02*
X0196065Y0083458D01*
X0196065Y0083851D02*
X0198821Y0083851D01*
X0198821Y0084244D02*
X0196065Y0084244D01*
X0191735Y0084246D02*
X0188979Y0084246D01*
X0191735Y0084246D02*
X0191735Y0082672D01*
X0188979Y0082672D01*
X0188979Y0084246D01*
X0188979Y0083065D02*
X0191735Y0083065D01*
X0191735Y0083458D02*
X0188979Y0083458D01*
X0188979Y0083851D02*
X0191735Y0083851D01*
X0191735Y0084244D02*
X0188979Y0084244D01*
X0159221Y0030232D02*
X0156465Y0030232D01*
X0159221Y0030232D02*
X0159221Y0028658D01*
X0156465Y0028658D01*
X0156465Y0030232D01*
X0156465Y0029051D02*
X0159221Y0029051D01*
X0159221Y0029444D02*
X0156465Y0029444D01*
X0156465Y0029837D02*
X0159221Y0029837D01*
X0159221Y0030230D02*
X0156465Y0030230D01*
X0152135Y0030232D02*
X0149379Y0030232D01*
X0152135Y0030232D02*
X0152135Y0028658D01*
X0149379Y0028658D01*
X0149379Y0030232D01*
X0149379Y0029051D02*
X0152135Y0029051D01*
X0152135Y0029444D02*
X0149379Y0029444D01*
X0149379Y0029837D02*
X0152135Y0029837D01*
X0152135Y0030230D02*
X0149379Y0030230D01*
X0149379Y0023146D02*
X0152135Y0023146D01*
X0152135Y0021572D01*
X0149379Y0021572D01*
X0149379Y0023146D01*
X0149379Y0021965D02*
X0152135Y0021965D01*
X0152135Y0022358D02*
X0149379Y0022358D01*
X0149379Y0022751D02*
X0152135Y0022751D01*
X0152135Y0023144D02*
X0149379Y0023144D01*
X0156465Y0023146D02*
X0159221Y0023146D01*
X0159221Y0021572D01*
X0156465Y0021572D01*
X0156465Y0023146D01*
X0156465Y0021965D02*
X0159221Y0021965D01*
X0159221Y0022358D02*
X0156465Y0022358D01*
X0156465Y0022751D02*
X0159221Y0022751D01*
X0159221Y0023144D02*
X0156465Y0023144D01*
X0267179Y0085046D02*
X0269935Y0085046D01*
X0269935Y0083472D01*
X0267179Y0083472D01*
X0267179Y0085046D01*
X0267179Y0083865D02*
X0269935Y0083865D01*
X0269935Y0084258D02*
X0267179Y0084258D01*
X0267179Y0084651D02*
X0269935Y0084651D01*
X0269935Y0085044D02*
X0267179Y0085044D01*
X0274265Y0085046D02*
X0277021Y0085046D01*
X0277021Y0083472D01*
X0274265Y0083472D01*
X0274265Y0085046D01*
X0274265Y0083865D02*
X0277021Y0083865D01*
X0277021Y0084258D02*
X0274265Y0084258D01*
X0274265Y0084651D02*
X0277021Y0084651D01*
X0277021Y0085044D02*
X0274265Y0085044D01*
X0274265Y0092132D02*
X0277021Y0092132D01*
X0277021Y0090558D01*
X0274265Y0090558D01*
X0274265Y0092132D01*
X0274265Y0090951D02*
X0277021Y0090951D01*
X0277021Y0091344D02*
X0274265Y0091344D01*
X0274265Y0091737D02*
X0277021Y0091737D01*
X0277021Y0092130D02*
X0274265Y0092130D01*
X0269935Y0092132D02*
X0267179Y0092132D01*
X0269935Y0092132D02*
X0269935Y0090558D01*
X0267179Y0090558D01*
X0267179Y0092132D01*
X0267179Y0090951D02*
X0269935Y0090951D01*
X0269935Y0091344D02*
X0267179Y0091344D01*
X0267179Y0091737D02*
X0269935Y0091737D01*
X0269935Y0092130D02*
X0267179Y0092130D01*
X0344779Y0091532D02*
X0347535Y0091532D01*
X0347535Y0089958D01*
X0344779Y0089958D01*
X0344779Y0091532D01*
X0344779Y0090351D02*
X0347535Y0090351D01*
X0347535Y0090744D02*
X0344779Y0090744D01*
X0344779Y0091137D02*
X0347535Y0091137D01*
X0347535Y0091530D02*
X0344779Y0091530D01*
X0351865Y0091532D02*
X0354621Y0091532D01*
X0354621Y0089958D01*
X0351865Y0089958D01*
X0351865Y0091532D01*
X0351865Y0090351D02*
X0354621Y0090351D01*
X0354621Y0090744D02*
X0351865Y0090744D01*
X0351865Y0091137D02*
X0354621Y0091137D01*
X0354621Y0091530D02*
X0351865Y0091530D01*
X0351865Y0084446D02*
X0354621Y0084446D01*
X0354621Y0082872D01*
X0351865Y0082872D01*
X0351865Y0084446D01*
X0351865Y0083265D02*
X0354621Y0083265D01*
X0354621Y0083658D02*
X0351865Y0083658D01*
X0351865Y0084051D02*
X0354621Y0084051D01*
X0354621Y0084444D02*
X0351865Y0084444D01*
X0347535Y0084446D02*
X0344779Y0084446D01*
X0347535Y0084446D02*
X0347535Y0082872D01*
X0344779Y0082872D01*
X0344779Y0084446D01*
X0344779Y0083265D02*
X0347535Y0083265D01*
X0347535Y0083658D02*
X0344779Y0083658D01*
X0344779Y0084051D02*
X0347535Y0084051D01*
X0347535Y0084444D02*
X0344779Y0084444D01*
X0384879Y0030032D02*
X0387635Y0030032D01*
X0387635Y0028458D01*
X0384879Y0028458D01*
X0384879Y0030032D01*
X0384879Y0028851D02*
X0387635Y0028851D01*
X0387635Y0029244D02*
X0384879Y0029244D01*
X0384879Y0029637D02*
X0387635Y0029637D01*
X0387635Y0030030D02*
X0384879Y0030030D01*
X0384879Y0022946D02*
X0387635Y0022946D01*
X0387635Y0021372D01*
X0384879Y0021372D01*
X0384879Y0022946D01*
X0384879Y0021765D02*
X0387635Y0021765D01*
X0387635Y0022158D02*
X0384879Y0022158D01*
X0384879Y0022551D02*
X0387635Y0022551D01*
X0387635Y0022944D02*
X0384879Y0022944D01*
X0391965Y0022946D02*
X0394721Y0022946D01*
X0394721Y0021372D01*
X0391965Y0021372D01*
X0391965Y0022946D01*
X0391965Y0021765D02*
X0394721Y0021765D01*
X0394721Y0022158D02*
X0391965Y0022158D01*
X0391965Y0022551D02*
X0394721Y0022551D01*
X0394721Y0022944D02*
X0391965Y0022944D01*
X0391965Y0030032D02*
X0394721Y0030032D01*
X0394721Y0028458D01*
X0391965Y0028458D01*
X0391965Y0030032D01*
X0391965Y0028851D02*
X0394721Y0028851D01*
X0394721Y0029244D02*
X0391965Y0029244D01*
X0391965Y0029637D02*
X0394721Y0029637D01*
X0394721Y0030030D02*
X0391965Y0030030D01*
X0391879Y0232146D02*
X0394635Y0232146D01*
X0394635Y0230572D01*
X0391879Y0230572D01*
X0391879Y0232146D01*
X0391879Y0230965D02*
X0394635Y0230965D01*
X0394635Y0231358D02*
X0391879Y0231358D01*
X0391879Y0231751D02*
X0394635Y0231751D01*
X0394635Y0232144D02*
X0391879Y0232144D01*
X0391879Y0239232D02*
X0394635Y0239232D01*
X0394635Y0237658D01*
X0391879Y0237658D01*
X0391879Y0239232D01*
X0391879Y0238051D02*
X0394635Y0238051D01*
X0394635Y0238444D02*
X0391879Y0238444D01*
X0391879Y0238837D02*
X0394635Y0238837D01*
X0394635Y0239230D02*
X0391879Y0239230D01*
X0398965Y0239232D02*
X0401721Y0239232D01*
X0401721Y0237658D01*
X0398965Y0237658D01*
X0398965Y0239232D01*
X0398965Y0238051D02*
X0401721Y0238051D01*
X0401721Y0238444D02*
X0398965Y0238444D01*
X0398965Y0238837D02*
X0401721Y0238837D01*
X0401721Y0239230D02*
X0398965Y0239230D01*
X0398965Y0232146D02*
X0401721Y0232146D01*
X0401721Y0230572D01*
X0398965Y0230572D01*
X0398965Y0232146D01*
X0398965Y0230965D02*
X0401721Y0230965D01*
X0401721Y0231358D02*
X0398965Y0231358D01*
X0398965Y0231751D02*
X0401721Y0231751D01*
X0401721Y0232144D02*
X0398965Y0232144D01*
X0457579Y0247046D02*
X0460335Y0247046D01*
X0460335Y0245472D01*
X0457579Y0245472D01*
X0457579Y0247046D01*
X0457579Y0245865D02*
X0460335Y0245865D01*
X0460335Y0246258D02*
X0457579Y0246258D01*
X0457579Y0246651D02*
X0460335Y0246651D01*
X0460335Y0247044D02*
X0457579Y0247044D01*
X0457579Y0254132D02*
X0460335Y0254132D01*
X0460335Y0252558D01*
X0457579Y0252558D01*
X0457579Y0254132D01*
X0457579Y0252951D02*
X0460335Y0252951D01*
X0460335Y0253344D02*
X0457579Y0253344D01*
X0457579Y0253737D02*
X0460335Y0253737D01*
X0460335Y0254130D02*
X0457579Y0254130D01*
X0464665Y0254132D02*
X0467421Y0254132D01*
X0467421Y0252558D01*
X0464665Y0252558D01*
X0464665Y0254132D01*
X0464665Y0252951D02*
X0467421Y0252951D01*
X0467421Y0253344D02*
X0464665Y0253344D01*
X0464665Y0253737D02*
X0467421Y0253737D01*
X0467421Y0254130D02*
X0464665Y0254130D01*
X0464665Y0247046D02*
X0467421Y0247046D01*
X0467421Y0245472D01*
X0464665Y0245472D01*
X0464665Y0247046D01*
X0464665Y0245865D02*
X0467421Y0245865D01*
X0467421Y0246258D02*
X0464665Y0246258D01*
X0464665Y0246651D02*
X0467421Y0246651D01*
X0467421Y0247044D02*
X0464665Y0247044D01*
X0335821Y0266146D02*
X0333065Y0266146D01*
X0335821Y0266146D02*
X0335821Y0264572D01*
X0333065Y0264572D01*
X0333065Y0266146D01*
X0333065Y0264965D02*
X0335821Y0264965D01*
X0335821Y0265358D02*
X0333065Y0265358D01*
X0333065Y0265751D02*
X0335821Y0265751D01*
X0335821Y0266144D02*
X0333065Y0266144D01*
X0328735Y0266146D02*
X0325979Y0266146D01*
X0328735Y0266146D02*
X0328735Y0264572D01*
X0325979Y0264572D01*
X0325979Y0266146D01*
X0325979Y0264965D02*
X0328735Y0264965D01*
X0328735Y0265358D02*
X0325979Y0265358D01*
X0325979Y0265751D02*
X0328735Y0265751D01*
X0328735Y0266144D02*
X0325979Y0266144D01*
X0325979Y0273232D02*
X0328735Y0273232D01*
X0328735Y0271658D01*
X0325979Y0271658D01*
X0325979Y0273232D01*
X0325979Y0272051D02*
X0328735Y0272051D01*
X0328735Y0272444D02*
X0325979Y0272444D01*
X0325979Y0272837D02*
X0328735Y0272837D01*
X0328735Y0273230D02*
X0325979Y0273230D01*
X0333065Y0273232D02*
X0335821Y0273232D01*
X0335821Y0271658D01*
X0333065Y0271658D01*
X0333065Y0273232D01*
X0333065Y0272051D02*
X0335821Y0272051D01*
X0335821Y0272444D02*
X0333065Y0272444D01*
X0333065Y0272837D02*
X0335821Y0272837D01*
X0335821Y0273230D02*
X0333065Y0273230D01*
X0276921Y0323846D02*
X0274165Y0323846D01*
X0276921Y0323846D02*
X0276921Y0322272D01*
X0274165Y0322272D01*
X0274165Y0323846D01*
X0274165Y0322665D02*
X0276921Y0322665D01*
X0276921Y0323058D02*
X0274165Y0323058D01*
X0274165Y0323451D02*
X0276921Y0323451D01*
X0276921Y0323844D02*
X0274165Y0323844D01*
X0269835Y0323846D02*
X0267079Y0323846D01*
X0269835Y0323846D02*
X0269835Y0322272D01*
X0267079Y0322272D01*
X0267079Y0323846D01*
X0267079Y0322665D02*
X0269835Y0322665D01*
X0269835Y0323058D02*
X0267079Y0323058D01*
X0267079Y0323451D02*
X0269835Y0323451D01*
X0269835Y0323844D02*
X0267079Y0323844D01*
X0267079Y0330932D02*
X0269835Y0330932D01*
X0269835Y0329358D01*
X0267079Y0329358D01*
X0267079Y0330932D01*
X0267079Y0329751D02*
X0269835Y0329751D01*
X0269835Y0330144D02*
X0267079Y0330144D01*
X0267079Y0330537D02*
X0269835Y0330537D01*
X0269835Y0330930D02*
X0267079Y0330930D01*
X0274165Y0330932D02*
X0276921Y0330932D01*
X0276921Y0329358D01*
X0274165Y0329358D01*
X0274165Y0330932D01*
X0274165Y0329751D02*
X0276921Y0329751D01*
X0276921Y0330144D02*
X0274165Y0330144D01*
X0274165Y0330537D02*
X0276921Y0330537D01*
X0276921Y0330930D02*
X0274165Y0330930D01*
X0274165Y0385446D02*
X0276921Y0385446D01*
X0276921Y0383872D01*
X0274165Y0383872D01*
X0274165Y0385446D01*
X0274165Y0384265D02*
X0276921Y0384265D01*
X0276921Y0384658D02*
X0274165Y0384658D01*
X0274165Y0385051D02*
X0276921Y0385051D01*
X0276921Y0385444D02*
X0274165Y0385444D01*
X0269835Y0385446D02*
X0267079Y0385446D01*
X0269835Y0385446D02*
X0269835Y0383872D01*
X0267079Y0383872D01*
X0267079Y0385446D01*
X0267079Y0384265D02*
X0269835Y0384265D01*
X0269835Y0384658D02*
X0267079Y0384658D01*
X0267079Y0385051D02*
X0269835Y0385051D01*
X0269835Y0385444D02*
X0267079Y0385444D01*
X0267079Y0392532D02*
X0269835Y0392532D01*
X0269835Y0390958D01*
X0267079Y0390958D01*
X0267079Y0392532D01*
X0267079Y0391351D02*
X0269835Y0391351D01*
X0269835Y0391744D02*
X0267079Y0391744D01*
X0267079Y0392137D02*
X0269835Y0392137D01*
X0269835Y0392530D02*
X0267079Y0392530D01*
X0274165Y0392532D02*
X0276921Y0392532D01*
X0276921Y0390958D01*
X0274165Y0390958D01*
X0274165Y0392532D01*
X0274165Y0391351D02*
X0276921Y0391351D01*
X0276921Y0391744D02*
X0274165Y0391744D01*
X0274165Y0392137D02*
X0276921Y0392137D01*
X0276921Y0392530D02*
X0274165Y0392530D01*
X0086321Y0254132D02*
X0083565Y0254132D01*
X0086321Y0254132D02*
X0086321Y0252558D01*
X0083565Y0252558D01*
X0083565Y0254132D01*
X0083565Y0252951D02*
X0086321Y0252951D01*
X0086321Y0253344D02*
X0083565Y0253344D01*
X0083565Y0253737D02*
X0086321Y0253737D01*
X0086321Y0254130D02*
X0083565Y0254130D01*
X0079235Y0254132D02*
X0076479Y0254132D01*
X0079235Y0254132D02*
X0079235Y0252558D01*
X0076479Y0252558D01*
X0076479Y0254132D01*
X0076479Y0252951D02*
X0079235Y0252951D01*
X0079235Y0253344D02*
X0076479Y0253344D01*
X0076479Y0253737D02*
X0079235Y0253737D01*
X0079235Y0254130D02*
X0076479Y0254130D01*
X0076479Y0247046D02*
X0079235Y0247046D01*
X0079235Y0245472D01*
X0076479Y0245472D01*
X0076479Y0247046D01*
X0076479Y0245865D02*
X0079235Y0245865D01*
X0079235Y0246258D02*
X0076479Y0246258D01*
X0076479Y0246651D02*
X0079235Y0246651D01*
X0079235Y0247044D02*
X0076479Y0247044D01*
X0083565Y0247046D02*
X0086321Y0247046D01*
X0086321Y0245472D01*
X0083565Y0245472D01*
X0083565Y0247046D01*
X0083565Y0245865D02*
X0086321Y0245865D01*
X0086321Y0246258D02*
X0083565Y0246258D01*
X0083565Y0246651D02*
X0086321Y0246651D01*
X0086321Y0247044D02*
X0083565Y0247044D01*
D14*
X0083486Y0250274D02*
X0086400Y0250274D01*
X0086400Y0249330D01*
X0083486Y0249330D01*
X0083486Y0250274D01*
X0083486Y0249565D02*
X0086400Y0249565D01*
X0086400Y0249800D02*
X0083486Y0249800D01*
X0083486Y0250035D02*
X0086400Y0250035D01*
X0086400Y0250270D02*
X0083486Y0250270D01*
X0079314Y0250274D02*
X0076400Y0250274D01*
X0079314Y0250274D02*
X0079314Y0249330D01*
X0076400Y0249330D01*
X0076400Y0250274D01*
X0076400Y0249565D02*
X0079314Y0249565D01*
X0079314Y0249800D02*
X0076400Y0249800D01*
X0076400Y0250035D02*
X0079314Y0250035D01*
X0079314Y0250270D02*
X0076400Y0250270D01*
X0141200Y0235674D02*
X0144114Y0235674D01*
X0144114Y0234730D01*
X0141200Y0234730D01*
X0141200Y0235674D01*
X0141200Y0234965D02*
X0144114Y0234965D01*
X0144114Y0235200D02*
X0141200Y0235200D01*
X0141200Y0235435D02*
X0144114Y0235435D01*
X0144114Y0235670D02*
X0141200Y0235670D01*
X0148286Y0235674D02*
X0151200Y0235674D01*
X0151200Y0234730D01*
X0148286Y0234730D01*
X0148286Y0235674D01*
X0148286Y0234965D02*
X0151200Y0234965D01*
X0151200Y0235200D02*
X0148286Y0235200D01*
X0148286Y0235435D02*
X0151200Y0235435D01*
X0151200Y0235670D02*
X0148286Y0235670D01*
X0204200Y0221574D02*
X0207114Y0221574D01*
X0207114Y0220630D01*
X0204200Y0220630D01*
X0204200Y0221574D01*
X0204200Y0220865D02*
X0207114Y0220865D01*
X0207114Y0221100D02*
X0204200Y0221100D01*
X0204200Y0221335D02*
X0207114Y0221335D01*
X0207114Y0221570D02*
X0204200Y0221570D01*
X0211286Y0221574D02*
X0214200Y0221574D01*
X0214200Y0220630D01*
X0211286Y0220630D01*
X0211286Y0221574D01*
X0211286Y0220865D02*
X0214200Y0220865D01*
X0214200Y0221100D02*
X0211286Y0221100D01*
X0211286Y0221335D02*
X0214200Y0221335D01*
X0214200Y0221570D02*
X0211286Y0221570D01*
X0227900Y0248374D02*
X0230814Y0248374D01*
X0230814Y0247430D01*
X0227900Y0247430D01*
X0227900Y0248374D01*
X0227900Y0247665D02*
X0230814Y0247665D01*
X0230814Y0247900D02*
X0227900Y0247900D01*
X0227900Y0248135D02*
X0230814Y0248135D01*
X0230814Y0248370D02*
X0227900Y0248370D01*
X0234986Y0248374D02*
X0237900Y0248374D01*
X0237900Y0247430D01*
X0234986Y0247430D01*
X0234986Y0248374D01*
X0234986Y0247665D02*
X0237900Y0247665D01*
X0237900Y0247900D02*
X0234986Y0247900D01*
X0234986Y0248135D02*
X0237900Y0248135D01*
X0237900Y0248370D02*
X0234986Y0248370D01*
X0218100Y0269374D02*
X0215186Y0269374D01*
X0218100Y0269374D02*
X0218100Y0268430D01*
X0215186Y0268430D01*
X0215186Y0269374D01*
X0215186Y0268665D02*
X0218100Y0268665D01*
X0218100Y0268900D02*
X0215186Y0268900D01*
X0215186Y0269135D02*
X0218100Y0269135D01*
X0218100Y0269370D02*
X0215186Y0269370D01*
X0211014Y0269374D02*
X0208100Y0269374D01*
X0211014Y0269374D02*
X0211014Y0268430D01*
X0208100Y0268430D01*
X0208100Y0269374D01*
X0208100Y0268665D02*
X0211014Y0268665D01*
X0211014Y0268900D02*
X0208100Y0268900D01*
X0208100Y0269135D02*
X0211014Y0269135D01*
X0211014Y0269370D02*
X0208100Y0269370D01*
X0247600Y0227974D02*
X0250514Y0227974D01*
X0250514Y0227030D01*
X0247600Y0227030D01*
X0247600Y0227974D01*
X0247600Y0227265D02*
X0250514Y0227265D01*
X0250514Y0227500D02*
X0247600Y0227500D01*
X0247600Y0227735D02*
X0250514Y0227735D01*
X0250514Y0227970D02*
X0247600Y0227970D01*
X0254686Y0227974D02*
X0257600Y0227974D01*
X0257600Y0227030D01*
X0254686Y0227030D01*
X0254686Y0227974D01*
X0254686Y0227265D02*
X0257600Y0227265D01*
X0257600Y0227500D02*
X0254686Y0227500D01*
X0254686Y0227735D02*
X0257600Y0227735D01*
X0257600Y0227970D02*
X0254686Y0227970D01*
X0286500Y0227974D02*
X0289414Y0227974D01*
X0289414Y0227030D01*
X0286500Y0227030D01*
X0286500Y0227974D01*
X0286500Y0227265D02*
X0289414Y0227265D01*
X0289414Y0227500D02*
X0286500Y0227500D01*
X0286500Y0227735D02*
X0289414Y0227735D01*
X0289414Y0227970D02*
X0286500Y0227970D01*
X0293586Y0227974D02*
X0296500Y0227974D01*
X0296500Y0227030D01*
X0293586Y0227030D01*
X0293586Y0227974D01*
X0293586Y0227265D02*
X0296500Y0227265D01*
X0296500Y0227500D02*
X0293586Y0227500D01*
X0293586Y0227735D02*
X0296500Y0227735D01*
X0296500Y0227970D02*
X0293586Y0227970D01*
X0307500Y0247874D02*
X0310414Y0247874D01*
X0310414Y0246930D01*
X0307500Y0246930D01*
X0307500Y0247874D01*
X0307500Y0247165D02*
X0310414Y0247165D01*
X0310414Y0247400D02*
X0307500Y0247400D01*
X0307500Y0247635D02*
X0310414Y0247635D01*
X0310414Y0247870D02*
X0307500Y0247870D01*
X0314586Y0247874D02*
X0317500Y0247874D01*
X0317500Y0246930D01*
X0314586Y0246930D01*
X0314586Y0247874D01*
X0314586Y0247165D02*
X0317500Y0247165D01*
X0317500Y0247400D02*
X0314586Y0247400D01*
X0314586Y0247635D02*
X0317500Y0247635D01*
X0317500Y0247870D02*
X0314586Y0247870D01*
X0325900Y0269374D02*
X0328814Y0269374D01*
X0328814Y0268430D01*
X0325900Y0268430D01*
X0325900Y0269374D01*
X0325900Y0268665D02*
X0328814Y0268665D01*
X0328814Y0268900D02*
X0325900Y0268900D01*
X0325900Y0269135D02*
X0328814Y0269135D01*
X0328814Y0269370D02*
X0325900Y0269370D01*
X0332986Y0269374D02*
X0335900Y0269374D01*
X0335900Y0268430D01*
X0332986Y0268430D01*
X0332986Y0269374D01*
X0332986Y0268665D02*
X0335900Y0268665D01*
X0335900Y0268900D02*
X0332986Y0268900D01*
X0332986Y0269135D02*
X0335900Y0269135D01*
X0335900Y0269370D02*
X0332986Y0269370D01*
X0277100Y0267374D02*
X0274186Y0267374D01*
X0277100Y0267374D02*
X0277100Y0266430D01*
X0274186Y0266430D01*
X0274186Y0267374D01*
X0274186Y0266665D02*
X0277100Y0266665D01*
X0277100Y0266900D02*
X0274186Y0266900D01*
X0274186Y0267135D02*
X0277100Y0267135D01*
X0277100Y0267370D02*
X0274186Y0267370D01*
X0270014Y0267374D02*
X0267100Y0267374D01*
X0270014Y0267374D02*
X0270014Y0266430D01*
X0267100Y0266430D01*
X0267100Y0267374D01*
X0267100Y0266665D02*
X0270014Y0266665D01*
X0270014Y0266900D02*
X0267100Y0266900D01*
X0267100Y0267135D02*
X0270014Y0267135D01*
X0270014Y0267370D02*
X0267100Y0267370D01*
X0329700Y0221674D02*
X0332614Y0221674D01*
X0332614Y0220730D01*
X0329700Y0220730D01*
X0329700Y0221674D01*
X0329700Y0220965D02*
X0332614Y0220965D01*
X0332614Y0221200D02*
X0329700Y0221200D01*
X0329700Y0221435D02*
X0332614Y0221435D01*
X0332614Y0221670D02*
X0329700Y0221670D01*
X0336786Y0221674D02*
X0339700Y0221674D01*
X0339700Y0220730D01*
X0336786Y0220730D01*
X0336786Y0221674D01*
X0336786Y0220965D02*
X0339700Y0220965D01*
X0339700Y0221200D02*
X0336786Y0221200D01*
X0336786Y0221435D02*
X0339700Y0221435D01*
X0339700Y0221670D02*
X0336786Y0221670D01*
X0308500Y0190974D02*
X0305586Y0190974D01*
X0308500Y0190974D02*
X0308500Y0190030D01*
X0305586Y0190030D01*
X0305586Y0190974D01*
X0305586Y0190265D02*
X0308500Y0190265D01*
X0308500Y0190500D02*
X0305586Y0190500D01*
X0305586Y0190735D02*
X0308500Y0190735D01*
X0308500Y0190970D02*
X0305586Y0190970D01*
X0301414Y0190974D02*
X0298500Y0190974D01*
X0301414Y0190974D02*
X0301414Y0190030D01*
X0298500Y0190030D01*
X0298500Y0190974D01*
X0298500Y0190265D02*
X0301414Y0190265D01*
X0301414Y0190500D02*
X0298500Y0190500D01*
X0298500Y0190735D02*
X0301414Y0190735D01*
X0301414Y0190970D02*
X0298500Y0190970D01*
X0277000Y0201174D02*
X0274086Y0201174D01*
X0277000Y0201174D02*
X0277000Y0200230D01*
X0274086Y0200230D01*
X0274086Y0201174D01*
X0274086Y0200465D02*
X0277000Y0200465D01*
X0277000Y0200700D02*
X0274086Y0200700D01*
X0274086Y0200935D02*
X0277000Y0200935D01*
X0277000Y0201170D02*
X0274086Y0201170D01*
X0269914Y0201174D02*
X0267000Y0201174D01*
X0269914Y0201174D02*
X0269914Y0200230D01*
X0267000Y0200230D01*
X0267000Y0201174D01*
X0267000Y0200465D02*
X0269914Y0200465D01*
X0269914Y0200700D02*
X0267000Y0200700D01*
X0267000Y0200935D02*
X0269914Y0200935D01*
X0269914Y0201170D02*
X0267000Y0201170D01*
X0245600Y0190974D02*
X0242686Y0190974D01*
X0245600Y0190974D02*
X0245600Y0190030D01*
X0242686Y0190030D01*
X0242686Y0190974D01*
X0242686Y0190265D02*
X0245600Y0190265D01*
X0245600Y0190500D02*
X0242686Y0190500D01*
X0242686Y0190735D02*
X0245600Y0190735D01*
X0245600Y0190970D02*
X0242686Y0190970D01*
X0238514Y0190974D02*
X0235600Y0190974D01*
X0238514Y0190974D02*
X0238514Y0190030D01*
X0235600Y0190030D01*
X0235600Y0190974D01*
X0235600Y0190265D02*
X0238514Y0190265D01*
X0238514Y0190500D02*
X0235600Y0190500D01*
X0235600Y0190735D02*
X0238514Y0190735D01*
X0238514Y0190970D02*
X0235600Y0190970D01*
X0213100Y0176374D02*
X0210186Y0176374D01*
X0213100Y0176374D02*
X0213100Y0175430D01*
X0210186Y0175430D01*
X0210186Y0176374D01*
X0210186Y0175665D02*
X0213100Y0175665D01*
X0213100Y0175900D02*
X0210186Y0175900D01*
X0210186Y0176135D02*
X0213100Y0176135D01*
X0213100Y0176370D02*
X0210186Y0176370D01*
X0206014Y0176374D02*
X0203100Y0176374D01*
X0206014Y0176374D02*
X0206014Y0175430D01*
X0203100Y0175430D01*
X0203100Y0176374D01*
X0203100Y0175665D02*
X0206014Y0175665D01*
X0206014Y0175900D02*
X0203100Y0175900D01*
X0203100Y0176135D02*
X0206014Y0176135D01*
X0206014Y0176370D02*
X0203100Y0176370D01*
X0181700Y0157474D02*
X0178786Y0157474D01*
X0181700Y0157474D02*
X0181700Y0156530D01*
X0178786Y0156530D01*
X0178786Y0157474D01*
X0178786Y0156765D02*
X0181700Y0156765D01*
X0181700Y0157000D02*
X0178786Y0157000D01*
X0178786Y0157235D02*
X0181700Y0157235D01*
X0181700Y0157470D02*
X0178786Y0157470D01*
X0174614Y0157474D02*
X0171700Y0157474D01*
X0174614Y0157474D02*
X0174614Y0156530D01*
X0171700Y0156530D01*
X0171700Y0157474D01*
X0171700Y0156765D02*
X0174614Y0156765D01*
X0174614Y0157000D02*
X0171700Y0157000D01*
X0171700Y0157235D02*
X0174614Y0157235D01*
X0174614Y0157470D02*
X0171700Y0157470D01*
X0228100Y0147774D02*
X0231014Y0147774D01*
X0231014Y0146830D01*
X0228100Y0146830D01*
X0228100Y0147774D01*
X0228100Y0147065D02*
X0231014Y0147065D01*
X0231014Y0147300D02*
X0228100Y0147300D01*
X0228100Y0147535D02*
X0231014Y0147535D01*
X0231014Y0147770D02*
X0228100Y0147770D01*
X0235186Y0147774D02*
X0238100Y0147774D01*
X0238100Y0146830D01*
X0235186Y0146830D01*
X0235186Y0147774D01*
X0235186Y0147065D02*
X0238100Y0147065D01*
X0238100Y0147300D02*
X0235186Y0147300D01*
X0235186Y0147535D02*
X0238100Y0147535D01*
X0238100Y0147770D02*
X0235186Y0147770D01*
X0266800Y0128874D02*
X0269714Y0128874D01*
X0269714Y0127930D01*
X0266800Y0127930D01*
X0266800Y0128874D01*
X0266800Y0128165D02*
X0269714Y0128165D01*
X0269714Y0128400D02*
X0266800Y0128400D01*
X0266800Y0128635D02*
X0269714Y0128635D01*
X0269714Y0128870D02*
X0266800Y0128870D01*
X0273886Y0128874D02*
X0276800Y0128874D01*
X0276800Y0127930D01*
X0273886Y0127930D01*
X0273886Y0128874D01*
X0273886Y0128165D02*
X0276800Y0128165D01*
X0276800Y0128400D02*
X0273886Y0128400D01*
X0273886Y0128635D02*
X0276800Y0128635D01*
X0276800Y0128870D02*
X0273886Y0128870D01*
X0305800Y0147974D02*
X0308714Y0147974D01*
X0308714Y0147030D01*
X0305800Y0147030D01*
X0305800Y0147974D01*
X0305800Y0147265D02*
X0308714Y0147265D01*
X0308714Y0147500D02*
X0305800Y0147500D01*
X0305800Y0147735D02*
X0308714Y0147735D01*
X0308714Y0147970D02*
X0305800Y0147970D01*
X0312886Y0147974D02*
X0315800Y0147974D01*
X0315800Y0147030D01*
X0312886Y0147030D01*
X0312886Y0147974D01*
X0312886Y0147265D02*
X0315800Y0147265D01*
X0315800Y0147500D02*
X0312886Y0147500D01*
X0312886Y0147735D02*
X0315800Y0147735D01*
X0315800Y0147970D02*
X0312886Y0147970D01*
X0329900Y0174474D02*
X0332814Y0174474D01*
X0332814Y0173530D01*
X0329900Y0173530D01*
X0329900Y0174474D01*
X0329900Y0173765D02*
X0332814Y0173765D01*
X0332814Y0174000D02*
X0329900Y0174000D01*
X0329900Y0174235D02*
X0332814Y0174235D01*
X0332814Y0174470D02*
X0329900Y0174470D01*
X0336986Y0174474D02*
X0339900Y0174474D01*
X0339900Y0173530D01*
X0336986Y0173530D01*
X0336986Y0174474D01*
X0336986Y0173765D02*
X0339900Y0173765D01*
X0339900Y0174000D02*
X0336986Y0174000D01*
X0336986Y0174235D02*
X0339900Y0174235D01*
X0339900Y0174470D02*
X0336986Y0174470D01*
X0362300Y0157374D02*
X0365214Y0157374D01*
X0365214Y0156430D01*
X0362300Y0156430D01*
X0362300Y0157374D01*
X0362300Y0156665D02*
X0365214Y0156665D01*
X0365214Y0156900D02*
X0362300Y0156900D01*
X0362300Y0157135D02*
X0365214Y0157135D01*
X0365214Y0157370D02*
X0362300Y0157370D01*
X0369386Y0157374D02*
X0372300Y0157374D01*
X0372300Y0156430D01*
X0369386Y0156430D01*
X0369386Y0157374D01*
X0369386Y0156665D02*
X0372300Y0156665D01*
X0372300Y0156900D02*
X0369386Y0156900D01*
X0369386Y0157135D02*
X0372300Y0157135D01*
X0372300Y0157370D02*
X0369386Y0157370D01*
X0354700Y0087674D02*
X0351786Y0087674D01*
X0354700Y0087674D02*
X0354700Y0086730D01*
X0351786Y0086730D01*
X0351786Y0087674D01*
X0351786Y0086965D02*
X0354700Y0086965D01*
X0354700Y0087200D02*
X0351786Y0087200D01*
X0351786Y0087435D02*
X0354700Y0087435D01*
X0354700Y0087670D02*
X0351786Y0087670D01*
X0347614Y0087674D02*
X0344700Y0087674D01*
X0347614Y0087674D02*
X0347614Y0086730D01*
X0344700Y0086730D01*
X0344700Y0087674D01*
X0344700Y0086965D02*
X0347614Y0086965D01*
X0347614Y0087200D02*
X0344700Y0087200D01*
X0344700Y0087435D02*
X0347614Y0087435D01*
X0347614Y0087670D02*
X0344700Y0087670D01*
X0277100Y0088274D02*
X0274186Y0088274D01*
X0277100Y0088274D02*
X0277100Y0087330D01*
X0274186Y0087330D01*
X0274186Y0088274D01*
X0274186Y0087565D02*
X0277100Y0087565D01*
X0277100Y0087800D02*
X0274186Y0087800D01*
X0274186Y0088035D02*
X0277100Y0088035D01*
X0277100Y0088270D02*
X0274186Y0088270D01*
X0270014Y0088274D02*
X0267100Y0088274D01*
X0270014Y0088274D02*
X0270014Y0087330D01*
X0267100Y0087330D01*
X0267100Y0088274D01*
X0267100Y0087565D02*
X0270014Y0087565D01*
X0270014Y0087800D02*
X0267100Y0087800D01*
X0267100Y0088035D02*
X0270014Y0088035D01*
X0270014Y0088270D02*
X0267100Y0088270D01*
X0198900Y0087474D02*
X0195986Y0087474D01*
X0198900Y0087474D02*
X0198900Y0086530D01*
X0195986Y0086530D01*
X0195986Y0087474D01*
X0195986Y0086765D02*
X0198900Y0086765D01*
X0198900Y0087000D02*
X0195986Y0087000D01*
X0195986Y0087235D02*
X0198900Y0087235D01*
X0198900Y0087470D02*
X0195986Y0087470D01*
X0191814Y0087474D02*
X0188900Y0087474D01*
X0191814Y0087474D02*
X0191814Y0086530D01*
X0188900Y0086530D01*
X0188900Y0087474D01*
X0188900Y0086765D02*
X0191814Y0086765D01*
X0191814Y0087000D02*
X0188900Y0087000D01*
X0188900Y0087235D02*
X0191814Y0087235D01*
X0191814Y0087470D02*
X0188900Y0087470D01*
X0159300Y0026374D02*
X0156386Y0026374D01*
X0159300Y0026374D02*
X0159300Y0025430D01*
X0156386Y0025430D01*
X0156386Y0026374D01*
X0156386Y0025665D02*
X0159300Y0025665D01*
X0159300Y0025900D02*
X0156386Y0025900D01*
X0156386Y0026135D02*
X0159300Y0026135D01*
X0159300Y0026370D02*
X0156386Y0026370D01*
X0152214Y0026374D02*
X0149300Y0026374D01*
X0152214Y0026374D02*
X0152214Y0025430D01*
X0149300Y0025430D01*
X0149300Y0026374D01*
X0149300Y0025665D02*
X0152214Y0025665D01*
X0152214Y0025900D02*
X0149300Y0025900D01*
X0149300Y0026135D02*
X0152214Y0026135D01*
X0152214Y0026370D02*
X0149300Y0026370D01*
X0266900Y0168074D02*
X0269814Y0168074D01*
X0269814Y0167130D01*
X0266900Y0167130D01*
X0266900Y0168074D01*
X0266900Y0167365D02*
X0269814Y0167365D01*
X0269814Y0167600D02*
X0266900Y0167600D01*
X0266900Y0167835D02*
X0269814Y0167835D01*
X0269814Y0168070D02*
X0266900Y0168070D01*
X0273986Y0168074D02*
X0276900Y0168074D01*
X0276900Y0167130D01*
X0273986Y0167130D01*
X0273986Y0168074D01*
X0273986Y0167365D02*
X0276900Y0167365D01*
X0276900Y0167600D02*
X0273986Y0167600D01*
X0273986Y0167835D02*
X0276900Y0167835D01*
X0276900Y0168070D02*
X0273986Y0168070D01*
X0391800Y0235374D02*
X0394714Y0235374D01*
X0394714Y0234430D01*
X0391800Y0234430D01*
X0391800Y0235374D01*
X0391800Y0234665D02*
X0394714Y0234665D01*
X0394714Y0234900D02*
X0391800Y0234900D01*
X0391800Y0235135D02*
X0394714Y0235135D01*
X0394714Y0235370D02*
X0391800Y0235370D01*
X0398886Y0235374D02*
X0401800Y0235374D01*
X0401800Y0234430D01*
X0398886Y0234430D01*
X0398886Y0235374D01*
X0398886Y0234665D02*
X0401800Y0234665D01*
X0401800Y0234900D02*
X0398886Y0234900D01*
X0398886Y0235135D02*
X0401800Y0235135D01*
X0401800Y0235370D02*
X0398886Y0235370D01*
X0457500Y0250274D02*
X0460414Y0250274D01*
X0460414Y0249330D01*
X0457500Y0249330D01*
X0457500Y0250274D01*
X0457500Y0249565D02*
X0460414Y0249565D01*
X0460414Y0249800D02*
X0457500Y0249800D01*
X0457500Y0250035D02*
X0460414Y0250035D01*
X0460414Y0250270D02*
X0457500Y0250270D01*
X0464586Y0250274D02*
X0467500Y0250274D01*
X0467500Y0249330D01*
X0464586Y0249330D01*
X0464586Y0250274D01*
X0464586Y0249565D02*
X0467500Y0249565D01*
X0467500Y0249800D02*
X0464586Y0249800D01*
X0464586Y0250035D02*
X0467500Y0250035D01*
X0467500Y0250270D02*
X0464586Y0250270D01*
X0277000Y0327074D02*
X0274086Y0327074D01*
X0277000Y0327074D02*
X0277000Y0326130D01*
X0274086Y0326130D01*
X0274086Y0327074D01*
X0274086Y0326365D02*
X0277000Y0326365D01*
X0277000Y0326600D02*
X0274086Y0326600D01*
X0274086Y0326835D02*
X0277000Y0326835D01*
X0277000Y0327070D02*
X0274086Y0327070D01*
X0269914Y0327074D02*
X0267000Y0327074D01*
X0269914Y0327074D02*
X0269914Y0326130D01*
X0267000Y0326130D01*
X0267000Y0327074D01*
X0267000Y0326365D02*
X0269914Y0326365D01*
X0269914Y0326600D02*
X0267000Y0326600D01*
X0267000Y0326835D02*
X0269914Y0326835D01*
X0269914Y0327070D02*
X0267000Y0327070D01*
X0267000Y0388674D02*
X0269914Y0388674D01*
X0269914Y0387730D01*
X0267000Y0387730D01*
X0267000Y0388674D01*
X0267000Y0387965D02*
X0269914Y0387965D01*
X0269914Y0388200D02*
X0267000Y0388200D01*
X0267000Y0388435D02*
X0269914Y0388435D01*
X0269914Y0388670D02*
X0267000Y0388670D01*
X0274086Y0388674D02*
X0277000Y0388674D01*
X0277000Y0387730D01*
X0274086Y0387730D01*
X0274086Y0388674D01*
X0274086Y0387965D02*
X0277000Y0387965D01*
X0277000Y0388200D02*
X0274086Y0388200D01*
X0274086Y0388435D02*
X0277000Y0388435D01*
X0277000Y0388670D02*
X0274086Y0388670D01*
X0384800Y0026174D02*
X0387714Y0026174D01*
X0387714Y0025230D01*
X0384800Y0025230D01*
X0384800Y0026174D01*
X0384800Y0025465D02*
X0387714Y0025465D01*
X0387714Y0025700D02*
X0384800Y0025700D01*
X0384800Y0025935D02*
X0387714Y0025935D01*
X0387714Y0026170D02*
X0384800Y0026170D01*
X0391886Y0026174D02*
X0394800Y0026174D01*
X0394800Y0025230D01*
X0391886Y0025230D01*
X0391886Y0026174D01*
X0391886Y0025465D02*
X0394800Y0025465D01*
X0394800Y0025700D02*
X0391886Y0025700D01*
X0391886Y0025935D02*
X0394800Y0025935D01*
X0394800Y0026170D02*
X0391886Y0026170D01*
D15*
X0294441Y0321656D02*
X0294443Y0321781D01*
X0294449Y0321906D01*
X0294459Y0322030D01*
X0294473Y0322154D01*
X0294490Y0322278D01*
X0294512Y0322401D01*
X0294538Y0322523D01*
X0294567Y0322645D01*
X0294600Y0322765D01*
X0294638Y0322884D01*
X0294678Y0323003D01*
X0294723Y0323119D01*
X0294771Y0323234D01*
X0294823Y0323348D01*
X0294879Y0323460D01*
X0294938Y0323570D01*
X0295000Y0323678D01*
X0295066Y0323785D01*
X0295135Y0323889D01*
X0295208Y0323990D01*
X0295283Y0324090D01*
X0295362Y0324187D01*
X0295444Y0324281D01*
X0295529Y0324373D01*
X0295616Y0324462D01*
X0295707Y0324548D01*
X0295800Y0324631D01*
X0295896Y0324712D01*
X0295994Y0324789D01*
X0296094Y0324863D01*
X0296197Y0324934D01*
X0296302Y0325001D01*
X0296410Y0325066D01*
X0296519Y0325126D01*
X0296630Y0325184D01*
X0296743Y0325237D01*
X0296857Y0325287D01*
X0296973Y0325334D01*
X0297090Y0325376D01*
X0297209Y0325415D01*
X0297329Y0325451D01*
X0297450Y0325482D01*
X0297572Y0325510D01*
X0297694Y0325533D01*
X0297818Y0325553D01*
X0297942Y0325569D01*
X0298066Y0325581D01*
X0298191Y0325589D01*
X0298316Y0325593D01*
X0298440Y0325593D01*
X0298565Y0325589D01*
X0298690Y0325581D01*
X0298814Y0325569D01*
X0298938Y0325553D01*
X0299062Y0325533D01*
X0299184Y0325510D01*
X0299306Y0325482D01*
X0299427Y0325451D01*
X0299547Y0325415D01*
X0299666Y0325376D01*
X0299783Y0325334D01*
X0299899Y0325287D01*
X0300013Y0325237D01*
X0300126Y0325184D01*
X0300237Y0325126D01*
X0300347Y0325066D01*
X0300454Y0325001D01*
X0300559Y0324934D01*
X0300662Y0324863D01*
X0300762Y0324789D01*
X0300860Y0324712D01*
X0300956Y0324631D01*
X0301049Y0324548D01*
X0301140Y0324462D01*
X0301227Y0324373D01*
X0301312Y0324281D01*
X0301394Y0324187D01*
X0301473Y0324090D01*
X0301548Y0323990D01*
X0301621Y0323889D01*
X0301690Y0323785D01*
X0301756Y0323678D01*
X0301818Y0323570D01*
X0301877Y0323460D01*
X0301933Y0323348D01*
X0301985Y0323234D01*
X0302033Y0323119D01*
X0302078Y0323003D01*
X0302118Y0322884D01*
X0302156Y0322765D01*
X0302189Y0322645D01*
X0302218Y0322523D01*
X0302244Y0322401D01*
X0302266Y0322278D01*
X0302283Y0322154D01*
X0302297Y0322030D01*
X0302307Y0321906D01*
X0302313Y0321781D01*
X0302315Y0321656D01*
X0302313Y0321531D01*
X0302307Y0321406D01*
X0302297Y0321282D01*
X0302283Y0321158D01*
X0302266Y0321034D01*
X0302244Y0320911D01*
X0302218Y0320789D01*
X0302189Y0320667D01*
X0302156Y0320547D01*
X0302118Y0320428D01*
X0302078Y0320309D01*
X0302033Y0320193D01*
X0301985Y0320078D01*
X0301933Y0319964D01*
X0301877Y0319852D01*
X0301818Y0319742D01*
X0301756Y0319634D01*
X0301690Y0319527D01*
X0301621Y0319423D01*
X0301548Y0319322D01*
X0301473Y0319222D01*
X0301394Y0319125D01*
X0301312Y0319031D01*
X0301227Y0318939D01*
X0301140Y0318850D01*
X0301049Y0318764D01*
X0300956Y0318681D01*
X0300860Y0318600D01*
X0300762Y0318523D01*
X0300662Y0318449D01*
X0300559Y0318378D01*
X0300454Y0318311D01*
X0300346Y0318246D01*
X0300237Y0318186D01*
X0300126Y0318128D01*
X0300013Y0318075D01*
X0299899Y0318025D01*
X0299783Y0317978D01*
X0299666Y0317936D01*
X0299547Y0317897D01*
X0299427Y0317861D01*
X0299306Y0317830D01*
X0299184Y0317802D01*
X0299062Y0317779D01*
X0298938Y0317759D01*
X0298814Y0317743D01*
X0298690Y0317731D01*
X0298565Y0317723D01*
X0298440Y0317719D01*
X0298316Y0317719D01*
X0298191Y0317723D01*
X0298066Y0317731D01*
X0297942Y0317743D01*
X0297818Y0317759D01*
X0297694Y0317779D01*
X0297572Y0317802D01*
X0297450Y0317830D01*
X0297329Y0317861D01*
X0297209Y0317897D01*
X0297090Y0317936D01*
X0296973Y0317978D01*
X0296857Y0318025D01*
X0296743Y0318075D01*
X0296630Y0318128D01*
X0296519Y0318186D01*
X0296409Y0318246D01*
X0296302Y0318311D01*
X0296197Y0318378D01*
X0296094Y0318449D01*
X0295994Y0318523D01*
X0295896Y0318600D01*
X0295800Y0318681D01*
X0295707Y0318764D01*
X0295616Y0318850D01*
X0295529Y0318939D01*
X0295444Y0319031D01*
X0295362Y0319125D01*
X0295283Y0319222D01*
X0295208Y0319322D01*
X0295135Y0319423D01*
X0295066Y0319527D01*
X0295000Y0319634D01*
X0294938Y0319742D01*
X0294879Y0319852D01*
X0294823Y0319964D01*
X0294771Y0320078D01*
X0294723Y0320193D01*
X0294678Y0320309D01*
X0294638Y0320428D01*
X0294600Y0320547D01*
X0294567Y0320667D01*
X0294538Y0320789D01*
X0294512Y0320911D01*
X0294490Y0321034D01*
X0294473Y0321158D01*
X0294459Y0321282D01*
X0294449Y0321406D01*
X0294443Y0321531D01*
X0294441Y0321656D01*
D16*
X0304250Y0326002D02*
X0316750Y0313502D01*
X0316750Y0294127D01*
X0315500Y0277877D02*
X0306750Y0277877D01*
X0286750Y0257877D01*
X0298625Y0246002D01*
X0298625Y0234127D01*
X0298000Y0234127D01*
X0298625Y0234127D02*
X0298625Y0226627D01*
X0296125Y0224127D01*
X0296750Y0223502D01*
X0296750Y0219127D01*
X0287375Y0222877D02*
X0283000Y0222877D01*
X0287375Y0222877D02*
X0287375Y0223502D01*
X0287957Y0223959D01*
X0287375Y0222877D02*
X0287375Y0209127D01*
X0319875Y0209127D01*
X0319875Y0209752D01*
X0319875Y0209127D02*
X0360500Y0209127D01*
X0367375Y0216002D01*
X0389250Y0216002D01*
X0400500Y0227252D01*
X0400500Y0227877D01*
X0398625Y0227877D01*
X0395500Y0231002D01*
X0393625Y0231002D01*
X0393257Y0231359D01*
X0400343Y0231359D02*
X0400500Y0231002D01*
X0404250Y0231002D01*
X0400500Y0227877D02*
X0440500Y0227877D01*
X0458625Y0246002D01*
X0458957Y0246259D01*
X0465500Y0246002D02*
X0465500Y0242877D01*
X0426125Y0203502D01*
X0404875Y0224752D01*
X0426125Y0203502D02*
X0394250Y0171627D01*
X0393625Y0172252D01*
X0342375Y0172252D01*
X0341750Y0172877D01*
X0339875Y0171002D01*
X0338625Y0171002D01*
X0338443Y0170459D01*
X0341750Y0172877D02*
X0341750Y0182252D01*
X0337375Y0186627D01*
X0319875Y0186627D01*
X0319875Y0188502D01*
X0319875Y0186627D02*
X0307375Y0186627D01*
X0307043Y0186959D01*
X0299957Y0186959D02*
X0299875Y0187877D01*
X0296125Y0187877D01*
X0299957Y0186959D02*
X0299875Y0186627D01*
X0316125Y0170377D01*
X0316125Y0167877D01*
X0316125Y0170377D02*
X0331125Y0170377D01*
X0331357Y0170459D01*
X0331750Y0169752D01*
X0348000Y0153502D01*
X0363625Y0153502D01*
X0363757Y0153359D01*
X0370500Y0152877D02*
X0370500Y0148502D01*
X0371125Y0148502D01*
X0394250Y0171627D01*
X0379250Y0184752D02*
X0361125Y0184752D01*
X0343000Y0202877D01*
X0338625Y0212252D02*
X0338625Y0217252D01*
X0338243Y0217659D01*
X0331157Y0217659D02*
X0331125Y0217877D01*
X0326125Y0217877D01*
X0322375Y0221627D01*
X0319875Y0219127D01*
X0322375Y0221627D02*
X0316125Y0227877D01*
X0308625Y0227877D01*
X0304250Y0232252D01*
X0304250Y0241627D01*
X0306125Y0243502D01*
X0305500Y0244127D01*
X0305500Y0256002D01*
X0314250Y0264752D01*
X0326750Y0264752D01*
X0327357Y0265359D01*
X0334443Y0265359D02*
X0334875Y0264752D01*
X0348000Y0264752D01*
X0319875Y0244127D02*
X0316125Y0244127D01*
X0316043Y0243859D01*
X0308957Y0243859D02*
X0308625Y0243502D01*
X0306125Y0243502D01*
X0296125Y0224127D02*
X0295500Y0224127D01*
X0295043Y0223959D01*
X0282375Y0218502D02*
X0282375Y0199752D01*
X0279875Y0197252D01*
X0276125Y0197252D01*
X0275543Y0197159D01*
X0273625Y0194127D02*
X0271125Y0196627D01*
X0268625Y0196627D01*
X0268457Y0197159D01*
X0273625Y0194127D02*
X0280500Y0194127D01*
X0284875Y0198502D01*
X0285500Y0197877D01*
X0286125Y0197877D01*
X0284875Y0198502D02*
X0287375Y0201002D01*
X0287375Y0209127D01*
X0282375Y0218502D02*
X0276125Y0224752D01*
X0278000Y0226627D01*
X0276125Y0224752D02*
X0274875Y0224752D01*
X0274356Y0224993D01*
X0259875Y0224127D02*
X0256750Y0224127D01*
X0256143Y0223959D01*
X0255500Y0223502D01*
X0254250Y0222252D01*
X0254250Y0214127D01*
X0244875Y0221002D02*
X0248000Y0224127D01*
X0228625Y0243502D01*
X0229357Y0244359D01*
X0229250Y0244127D01*
X0218000Y0244127D01*
X0216750Y0242877D01*
X0216125Y0243502D01*
X0216750Y0242877D02*
X0200500Y0226627D01*
X0200500Y0221627D01*
X0204250Y0217877D01*
X0205500Y0217877D01*
X0205657Y0217559D01*
X0209875Y0214752D02*
X0212375Y0217252D01*
X0212743Y0217559D01*
X0213625Y0217877D01*
X0222375Y0217877D01*
X0223000Y0218502D01*
X0226750Y0218502D01*
X0248000Y0224127D02*
X0248625Y0224127D01*
X0249057Y0223959D01*
X0238000Y0244752D02*
X0236750Y0244752D01*
X0236443Y0244359D01*
X0238000Y0244752D02*
X0241750Y0248502D01*
X0241750Y0253502D01*
X0242375Y0254127D01*
X0244250Y0254127D01*
X0248625Y0258502D01*
X0271125Y0258502D01*
X0275500Y0262877D01*
X0275643Y0263359D01*
X0276125Y0263502D01*
X0276750Y0264127D01*
X0279250Y0264127D01*
X0279250Y0271627D01*
X0276125Y0274752D01*
X0276125Y0322877D01*
X0275543Y0323059D01*
X0268457Y0323059D02*
X0268000Y0322877D01*
X0261750Y0316627D01*
X0261125Y0317252D01*
X0261125Y0353502D01*
X0268000Y0360377D01*
X0268000Y0384127D01*
X0268457Y0384659D01*
X0275543Y0384659D02*
X0276125Y0384127D01*
X0276125Y0368502D01*
X0304250Y0340377D01*
X0304250Y0326002D01*
X0261750Y0316627D02*
X0261750Y0277252D01*
X0227375Y0277252D01*
X0220500Y0270377D01*
X0216643Y0265359D02*
X0216750Y0264752D01*
X0230500Y0264752D01*
X0241750Y0253502D01*
X0261750Y0265377D02*
X0263625Y0263502D01*
X0268000Y0263502D01*
X0268557Y0263359D01*
X0261750Y0265377D02*
X0261750Y0277252D01*
X0279250Y0264127D02*
X0280500Y0264127D01*
X0286750Y0257877D01*
X0333000Y0206002D02*
X0361750Y0206002D01*
X0366750Y0211002D01*
X0376750Y0201002D01*
X0376750Y0192252D01*
X0370843Y0153359D02*
X0370500Y0152877D01*
X0370500Y0148502D02*
X0370500Y0099752D01*
X0354875Y0084127D01*
X0353625Y0084127D01*
X0353243Y0083659D01*
X0352375Y0083502D01*
X0349875Y0081002D01*
X0349875Y0095377D01*
X0312375Y0132877D01*
X0312375Y0137877D01*
X0311750Y0138502D01*
X0314250Y0141002D01*
X0314250Y0143502D01*
X0314343Y0143959D01*
X0310500Y0141627D02*
X0309875Y0141627D01*
X0308000Y0143502D01*
X0307257Y0143959D01*
X0306750Y0143502D01*
X0303625Y0146627D01*
X0288000Y0146627D01*
X0271125Y0163502D01*
X0268625Y0163502D01*
X0268357Y0164059D01*
X0267375Y0164127D01*
X0263000Y0164127D01*
X0262375Y0164752D01*
X0256125Y0164752D01*
X0237375Y0183502D01*
X0237375Y0186627D01*
X0237057Y0186959D01*
X0236125Y0187252D01*
X0222375Y0173502D01*
X0222375Y0149752D01*
X0228000Y0144127D01*
X0228625Y0144127D01*
X0229557Y0143759D01*
X0229875Y0143502D01*
X0248625Y0124752D01*
X0263000Y0124752D01*
X0263000Y0088502D01*
X0254875Y0080377D01*
X0236750Y0080377D01*
X0235500Y0081627D01*
X0208000Y0081627D01*
X0209875Y0077877D02*
X0197375Y0077877D01*
X0197375Y0057252D01*
X0163000Y0022877D01*
X0158000Y0022877D01*
X0157843Y0022359D01*
X0150757Y0022359D02*
X0150500Y0022877D01*
X0149250Y0022877D01*
X0147375Y0024752D01*
X0147375Y0036627D01*
X0187375Y0076627D01*
X0186750Y0077252D01*
X0186750Y0091627D01*
X0185500Y0092877D01*
X0191125Y0098502D01*
X0186125Y0099127D02*
X0186125Y0116002D01*
X0186750Y0116627D01*
X0186125Y0117252D01*
X0186125Y0136002D01*
X0181750Y0129752D02*
X0181750Y0122252D01*
X0186750Y0116627D02*
X0196750Y0106627D01*
X0185500Y0092877D02*
X0169250Y0109127D01*
X0169250Y0151627D01*
X0171125Y0153502D01*
X0173000Y0153502D01*
X0173157Y0153459D01*
X0173625Y0153502D01*
X0175500Y0151627D01*
X0176750Y0151627D01*
X0178000Y0154752D02*
X0176750Y0156002D01*
X0176750Y0162252D01*
X0184875Y0170377D01*
X0196125Y0170377D01*
X0197375Y0169127D01*
X0208000Y0169127D01*
X0211125Y0172252D01*
X0211643Y0172359D01*
X0204557Y0172359D02*
X0204250Y0172877D01*
X0197375Y0172877D01*
X0196750Y0173502D01*
X0183625Y0173502D01*
X0176750Y0166627D01*
X0178000Y0154752D02*
X0178625Y0154752D01*
X0179875Y0153502D01*
X0180243Y0153459D01*
X0180500Y0152877D01*
X0180500Y0144752D01*
X0236643Y0143759D02*
X0236750Y0143502D01*
X0279875Y0143502D01*
X0298625Y0143502D01*
X0302375Y0139752D01*
X0308000Y0139752D01*
X0309250Y0138502D01*
X0311750Y0138502D01*
X0301750Y0133502D02*
X0286750Y0133502D01*
X0285500Y0134752D01*
X0257375Y0134752D01*
X0252375Y0129752D01*
X0263000Y0124752D02*
X0268000Y0124752D01*
X0268257Y0124859D01*
X0275343Y0124859D02*
X0275500Y0124752D01*
X0286750Y0124752D01*
X0291750Y0119752D01*
X0325500Y0097877D02*
X0346125Y0077252D01*
X0346750Y0077252D01*
X0346750Y0083502D01*
X0346157Y0083659D01*
X0346750Y0077252D02*
X0346750Y0060377D01*
X0384875Y0022252D01*
X0386125Y0022252D01*
X0386257Y0022159D01*
X0388625Y0017252D02*
X0382375Y0017252D01*
X0331125Y0068502D01*
X0314875Y0068502D02*
X0314875Y0069752D01*
X0306125Y0078502D01*
X0291750Y0084752D02*
X0276125Y0084752D01*
X0275643Y0084259D01*
X0268557Y0084259D02*
X0268000Y0084752D01*
X0266750Y0084752D01*
X0263000Y0088502D01*
X0197443Y0083459D02*
X0197375Y0082877D01*
X0197375Y0077877D01*
X0189875Y0079127D02*
X0189875Y0082877D01*
X0190357Y0083459D01*
X0189875Y0079127D02*
X0187375Y0076627D01*
X0275500Y0163502D02*
X0280500Y0158502D01*
X0275500Y0163502D02*
X0275443Y0164059D01*
X0248000Y0187252D02*
X0244250Y0187252D01*
X0244143Y0186959D01*
X0165500Y0217877D02*
X0157375Y0217877D01*
X0149250Y0226002D01*
X0149250Y0231627D01*
X0149743Y0231659D01*
X0142657Y0231659D02*
X0142375Y0232252D01*
X0141125Y0232252D01*
X0134875Y0238502D01*
X0155500Y0259127D01*
X0195500Y0259127D01*
X0201125Y0264752D01*
X0209250Y0264752D01*
X0211750Y0262252D01*
X0209250Y0264752D02*
X0209557Y0265359D01*
X0134875Y0238502D02*
X0130500Y0242877D01*
X0083000Y0242877D01*
X0079875Y0246002D01*
X0078000Y0246002D01*
X0077857Y0246259D01*
X0084943Y0246259D02*
X0085500Y0246002D01*
X0091125Y0246002D01*
X0388625Y0017252D02*
X0393000Y0021627D01*
X0393343Y0022159D01*
X0465500Y0246002D02*
X0466043Y0246259D01*
D17*
X0469875Y0253502D03*
X0454875Y0246627D03*
X0451125Y0246627D03*
X0404250Y0231002D03*
X0404875Y0224752D03*
X0396750Y0236627D03*
X0387375Y0221002D03*
X0369250Y0223502D03*
X0358000Y0224752D03*
X0345500Y0221002D03*
X0341750Y0222877D03*
X0343000Y0227252D03*
X0333625Y0231002D03*
X0329875Y0227877D03*
X0328000Y0233502D03*
X0323000Y0239127D03*
X0320500Y0234127D03*
X0319875Y0244127D03*
X0319875Y0247877D03*
X0323625Y0255377D03*
X0328625Y0262252D03*
X0332375Y0262252D03*
X0346125Y0257877D03*
X0348000Y0264752D03*
X0358625Y0255377D03*
X0361125Y0241002D03*
X0356125Y0236002D03*
X0327375Y0221627D03*
X0319875Y0219127D03*
X0319875Y0209752D03*
X0319250Y0206002D03*
X0308000Y0213502D03*
X0302375Y0219127D03*
X0296750Y0219127D03*
X0283000Y0222877D03*
X0278000Y0226627D03*
X0284250Y0231002D03*
X0278000Y0232252D03*
X0292375Y0239127D03*
X0298000Y0234127D03*
X0307375Y0240377D03*
X0309875Y0231002D03*
X0335500Y0214127D03*
X0338625Y0212252D03*
X0333000Y0206002D03*
X0343000Y0202877D03*
X0344250Y0197252D03*
X0336750Y0182877D03*
X0327375Y0176627D03*
X0323625Y0176627D03*
X0321750Y0173502D03*
X0316125Y0167877D03*
X0298625Y0183502D03*
X0296125Y0187877D03*
X0296125Y0192877D03*
X0286125Y0197877D03*
X0279250Y0201002D03*
X0266125Y0209127D03*
X0262375Y0209127D03*
X0264875Y0204127D03*
X0251750Y0207252D03*
X0254250Y0214127D03*
X0244875Y0221002D03*
X0259875Y0224127D03*
X0259875Y0230377D03*
X0263625Y0230377D03*
X0278000Y0217877D03*
X0258000Y0187252D03*
X0248000Y0187252D03*
X0243000Y0182252D03*
X0240500Y0184752D03*
X0233000Y0190377D03*
X0227375Y0192252D03*
X0228625Y0184127D03*
X0221125Y0176627D03*
X0225500Y0172252D03*
X0230500Y0160377D03*
X0236750Y0154127D03*
X0241750Y0159127D03*
X0243000Y0151002D03*
X0243000Y0147252D03*
X0244250Y0134127D03*
X0237375Y0131627D03*
X0240500Y0124752D03*
X0252375Y0129752D03*
X0279875Y0143502D03*
X0280500Y0158502D03*
X0264250Y0167252D03*
X0263000Y0171002D03*
X0261125Y0161627D03*
X0250500Y0164127D03*
X0266750Y0182252D03*
X0233000Y0202252D03*
X0224250Y0215377D03*
X0226750Y0218502D03*
X0221750Y0225377D03*
X0219875Y0228502D03*
X0227375Y0231002D03*
X0226750Y0234752D03*
X0217375Y0237252D03*
X0216125Y0243502D03*
X0225500Y0247877D03*
X0225500Y0251627D03*
X0211750Y0262252D03*
X0213000Y0267252D03*
X0220500Y0270377D03*
X0244875Y0261002D03*
X0258625Y0264127D03*
X0264875Y0266627D03*
X0264875Y0270377D03*
X0258625Y0274127D03*
X0264875Y0279127D03*
X0272375Y0272877D03*
X0279250Y0261002D03*
X0279875Y0256627D03*
X0286750Y0263502D03*
X0301750Y0268502D03*
X0307375Y0264127D03*
X0311125Y0271627D03*
X0316125Y0271627D03*
X0318625Y0269127D03*
X0315500Y0277877D03*
X0319875Y0281002D03*
X0319875Y0284752D03*
X0316750Y0294127D03*
X0319875Y0303502D03*
X0291750Y0309127D03*
X0285500Y0352252D03*
X0264250Y0352252D03*
X0264875Y0370377D03*
X0272375Y0369127D03*
X0279250Y0388502D03*
X0272375Y0394127D03*
X0308625Y0254752D03*
X0314250Y0254127D03*
X0349250Y0212252D03*
X0366750Y0211002D03*
X0376750Y0192252D03*
X0379250Y0184752D03*
X0369875Y0167877D03*
X0367375Y0158502D03*
X0375500Y0157252D03*
X0376750Y0161002D03*
X0367375Y0136627D03*
X0379875Y0127877D03*
X0356125Y0118502D03*
X0338000Y0102877D03*
X0325500Y0097877D03*
X0301125Y0081002D03*
X0306125Y0078502D03*
X0294250Y0081627D03*
X0291750Y0084752D03*
X0291750Y0090377D03*
X0294250Y0097877D03*
X0291750Y0107877D03*
X0291750Y0119752D03*
X0301750Y0133502D03*
X0304250Y0136627D03*
X0310500Y0141627D03*
X0350500Y0150377D03*
X0319875Y0188502D03*
X0246125Y0251627D03*
X0209875Y0214752D03*
X0203625Y0197252D03*
X0201125Y0189752D03*
X0197375Y0182252D03*
X0185500Y0187252D03*
X0183000Y0184752D03*
X0173000Y0186627D03*
X0155500Y0191627D03*
X0151750Y0196627D03*
X0158000Y0198502D03*
X0165500Y0206002D03*
X0153000Y0208502D03*
X0152375Y0218502D03*
X0149250Y0226002D03*
X0143000Y0224752D03*
X0153625Y0235377D03*
X0164250Y0244127D03*
X0169250Y0235377D03*
X0169875Y0226002D03*
X0165500Y0221627D03*
X0165500Y0217877D03*
X0178625Y0218502D03*
X0178625Y0222252D03*
X0182375Y0218502D03*
X0178625Y0208502D03*
X0148000Y0189127D03*
X0149250Y0184127D03*
X0137375Y0189127D03*
X0132375Y0201002D03*
X0160500Y0169127D03*
X0168625Y0161002D03*
X0176750Y0166627D03*
X0186125Y0161002D03*
X0185500Y0155377D03*
X0176750Y0151627D03*
X0172375Y0150377D03*
X0180500Y0144752D03*
X0186125Y0136002D03*
X0181750Y0129752D03*
X0178000Y0129752D03*
X0181750Y0122252D03*
X0175500Y0116002D03*
X0172375Y0120377D03*
X0189250Y0104127D03*
X0196750Y0106627D03*
X0191125Y0098502D03*
X0186125Y0099127D03*
X0181750Y0092252D03*
X0208000Y0081627D03*
X0209875Y0077877D03*
X0237375Y0091627D03*
X0239250Y0087877D03*
X0245500Y0085377D03*
X0218625Y0106627D03*
X0205500Y0118502D03*
X0214875Y0127877D03*
X0197375Y0147252D03*
X0204250Y0149752D03*
X0214875Y0156002D03*
X0218625Y0152252D03*
X0216125Y0149752D03*
X0194875Y0167252D03*
X0191125Y0166627D03*
X0217375Y0184752D03*
X0214875Y0189752D03*
X0101750Y0239752D03*
X0091125Y0246002D03*
X0091750Y0249752D03*
X0088625Y0252252D03*
X0074250Y0250377D03*
X0314875Y0068502D03*
X0331125Y0068502D03*
X0340500Y0071627D03*
X0349875Y0081002D03*
X0382375Y0029752D03*
X0396750Y0027252D03*
X0174875Y0029752D03*
X0165500Y0029752D03*
X0166750Y0051627D03*
X0170500Y0051627D03*
D18*
X0154875Y0036002D01*
X0154875Y0029127D01*
X0153000Y0027252D01*
X0152375Y0027252D01*
X0151125Y0026002D01*
X0150757Y0025902D01*
X0150757Y0029445D02*
X0151125Y0029752D01*
X0151125Y0036002D01*
X0166750Y0051627D01*
X0165500Y0029752D02*
X0158000Y0029752D01*
X0157843Y0029445D01*
X0157843Y0025902D02*
X0157375Y0025377D01*
X0156750Y0025377D01*
X0154875Y0023502D01*
X0154875Y0021002D01*
X0156125Y0019752D01*
X0168625Y0019752D01*
X0224250Y0075377D01*
X0291750Y0075377D01*
X0299875Y0083502D01*
X0324875Y0083502D01*
X0339250Y0069127D01*
X0341750Y0069127D01*
X0343000Y0070377D01*
X0343000Y0072877D01*
X0311125Y0104752D01*
X0278000Y0104752D01*
X0265500Y0092252D01*
X0265500Y0090377D01*
X0268000Y0087877D01*
X0268557Y0087802D01*
X0271750Y0088502D02*
X0268625Y0091627D01*
X0268557Y0091345D01*
X0271750Y0088502D02*
X0271750Y0083502D01*
X0266125Y0077877D01*
X0224250Y0077877D01*
X0176125Y0029752D01*
X0174875Y0029752D01*
X0198000Y0086627D02*
X0197443Y0087002D01*
X0198000Y0086627D02*
X0233625Y0086627D01*
X0237375Y0082877D01*
X0246750Y0082877D01*
X0248000Y0084127D01*
X0248000Y0117252D01*
X0240500Y0124752D01*
X0237375Y0120377D02*
X0237375Y0091627D01*
X0237375Y0087877D02*
X0239250Y0087877D01*
X0237375Y0087877D02*
X0218625Y0106627D01*
X0214875Y0112877D02*
X0214875Y0127877D01*
X0205500Y0118502D02*
X0205500Y0111627D01*
X0198000Y0104127D01*
X0189250Y0104127D01*
X0190500Y0094127D02*
X0208000Y0111627D01*
X0208000Y0136627D01*
X0197375Y0147252D01*
X0197375Y0149752D02*
X0186125Y0161002D01*
X0180500Y0160377D02*
X0185500Y0155377D01*
X0183000Y0154752D02*
X0180500Y0157252D01*
X0180243Y0157002D01*
X0180500Y0160377D02*
X0180243Y0160545D01*
X0183000Y0154752D02*
X0183000Y0143502D01*
X0175500Y0136002D01*
X0175500Y0116002D01*
X0172375Y0120377D02*
X0172375Y0150377D01*
X0166750Y0151002D02*
X0166750Y0122252D01*
X0166125Y0121627D01*
X0166125Y0107877D01*
X0181750Y0092252D01*
X0190357Y0090545D02*
X0190500Y0091002D01*
X0190500Y0094127D01*
X0194250Y0092252D02*
X0194250Y0090377D01*
X0192375Y0088502D01*
X0191750Y0088502D01*
X0190500Y0087252D01*
X0190357Y0087002D01*
X0194250Y0092252D02*
X0214875Y0112877D01*
X0230500Y0131627D02*
X0237375Y0131627D01*
X0244250Y0134127D02*
X0251125Y0127252D01*
X0267375Y0127252D01*
X0268000Y0127877D01*
X0268257Y0128402D01*
X0271125Y0129127D02*
X0268625Y0131627D01*
X0268257Y0131945D01*
X0271125Y0129127D02*
X0271125Y0124752D01*
X0288000Y0107877D01*
X0291750Y0107877D01*
X0293000Y0100377D02*
X0311750Y0100377D01*
X0340500Y0071627D01*
X0346125Y0086627D02*
X0346157Y0087202D01*
X0346125Y0086627D02*
X0310500Y0122252D01*
X0292375Y0122252D01*
X0286750Y0127877D01*
X0275500Y0127877D01*
X0275343Y0128402D01*
X0275500Y0131627D02*
X0275343Y0131945D01*
X0275500Y0131627D02*
X0285500Y0131627D01*
X0293000Y0124127D01*
X0313000Y0124127D01*
X0346125Y0091002D01*
X0346157Y0090745D01*
X0353000Y0091002D02*
X0353243Y0090745D01*
X0353000Y0091002D02*
X0353000Y0147877D01*
X0350500Y0150377D01*
X0363757Y0156902D02*
X0364250Y0157252D01*
X0367375Y0154127D01*
X0367375Y0136627D01*
X0379875Y0127877D02*
X0379875Y0042877D01*
X0393000Y0029752D01*
X0393343Y0029245D01*
X0393625Y0026002D02*
X0393343Y0025702D01*
X0393625Y0026002D02*
X0395500Y0026002D01*
X0396750Y0027252D01*
X0389250Y0023502D02*
X0386750Y0026002D01*
X0386257Y0025702D01*
X0386257Y0029245D02*
X0386125Y0029752D01*
X0382375Y0029752D01*
X0389250Y0023502D02*
X0389250Y0021002D01*
X0388000Y0019752D01*
X0384250Y0019752D01*
X0323000Y0081002D01*
X0301125Y0081002D01*
X0294250Y0081627D02*
X0294250Y0097877D01*
X0293000Y0100377D02*
X0284250Y0091627D01*
X0276125Y0091627D01*
X0275643Y0091345D01*
X0276125Y0087877D02*
X0275643Y0087802D01*
X0276125Y0087877D02*
X0289250Y0087877D01*
X0291750Y0090377D01*
X0245500Y0085377D02*
X0237375Y0085377D01*
X0232375Y0090377D01*
X0198000Y0090377D01*
X0197443Y0090545D01*
X0237375Y0120377D02*
X0191125Y0166627D01*
X0194875Y0167252D02*
X0230500Y0131627D01*
X0229557Y0147302D02*
X0229250Y0147877D01*
X0228625Y0147877D01*
X0225500Y0151002D01*
X0225500Y0172252D01*
X0221125Y0176627D02*
X0228625Y0184127D01*
X0228625Y0187252D02*
X0185500Y0187252D01*
X0183000Y0184752D02*
X0217375Y0184752D01*
X0214875Y0189752D02*
X0228625Y0189752D01*
X0229875Y0191002D01*
X0229875Y0193502D01*
X0233000Y0196627D01*
X0233000Y0202252D01*
X0235500Y0196627D02*
X0234250Y0195377D01*
X0234250Y0192877D01*
X0236750Y0190377D01*
X0237057Y0190502D01*
X0237057Y0194045D02*
X0237375Y0194127D01*
X0237375Y0214127D01*
X0228625Y0222877D01*
X0214250Y0222877D01*
X0213000Y0224127D01*
X0212743Y0224645D01*
X0212743Y0221102D02*
X0213000Y0221002D01*
X0228000Y0221002D01*
X0235500Y0213502D01*
X0235500Y0196627D01*
X0241125Y0192877D02*
X0243625Y0190377D01*
X0244143Y0190502D01*
X0244250Y0193502D02*
X0244143Y0194045D01*
X0244250Y0193502D02*
X0245500Y0193502D01*
X0251750Y0187252D01*
X0258000Y0187252D01*
X0266750Y0182252D02*
X0243000Y0182252D01*
X0240500Y0184752D02*
X0276750Y0184752D01*
X0288625Y0196627D01*
X0301750Y0196627D01*
X0303000Y0195377D01*
X0303000Y0186627D01*
X0316125Y0173502D01*
X0321750Y0173502D01*
X0323625Y0176627D02*
X0326125Y0174127D01*
X0331125Y0174127D01*
X0331357Y0174002D01*
X0330500Y0176627D02*
X0331125Y0177252D01*
X0331357Y0177545D01*
X0330500Y0176627D02*
X0327375Y0176627D01*
X0335500Y0171627D02*
X0335500Y0169127D01*
X0336750Y0167877D01*
X0369875Y0167877D01*
X0371125Y0161002D02*
X0370843Y0160445D01*
X0371125Y0161002D02*
X0376750Y0161002D01*
X0375500Y0157252D02*
X0371125Y0157252D01*
X0370843Y0156902D01*
X0367375Y0158502D02*
X0365500Y0160377D01*
X0364250Y0160377D01*
X0363757Y0160445D01*
X0338443Y0174002D02*
X0338000Y0173502D01*
X0337375Y0173502D01*
X0335500Y0171627D01*
X0338443Y0177545D02*
X0338000Y0177877D01*
X0338000Y0181627D01*
X0336750Y0182877D01*
X0338000Y0191002D02*
X0344250Y0197252D01*
X0338000Y0191002D02*
X0307375Y0191002D01*
X0307043Y0190502D01*
X0307043Y0194045D02*
X0307375Y0194127D01*
X0319250Y0206002D01*
X0308000Y0213502D02*
X0333625Y0213502D01*
X0334250Y0214127D01*
X0335500Y0214127D01*
X0333000Y0215377D02*
X0335500Y0217877D01*
X0335500Y0219127D01*
X0338000Y0221627D01*
X0338243Y0221202D01*
X0338625Y0224127D02*
X0338243Y0224745D01*
X0338625Y0224127D02*
X0340500Y0224127D01*
X0341750Y0222877D01*
X0345500Y0221002D02*
X0387375Y0221002D01*
X0388625Y0218502D02*
X0390500Y0220377D01*
X0390500Y0236002D01*
X0393000Y0238502D01*
X0393257Y0238445D01*
X0395500Y0236627D02*
X0393625Y0234752D01*
X0393257Y0234902D01*
X0395500Y0236627D02*
X0396750Y0236627D01*
X0399875Y0238502D02*
X0397375Y0241002D01*
X0361125Y0241002D01*
X0356125Y0236002D02*
X0326125Y0236002D01*
X0324250Y0234127D01*
X0320500Y0234127D01*
X0323000Y0239127D02*
X0314250Y0239127D01*
X0313000Y0240377D01*
X0307375Y0240377D01*
X0313000Y0242877D02*
X0314250Y0241627D01*
X0326125Y0241627D01*
X0337375Y0252877D01*
X0389875Y0252877D01*
X0403000Y0239752D01*
X0403000Y0236627D01*
X0401750Y0235377D01*
X0400500Y0235377D01*
X0400343Y0234902D01*
X0400343Y0238445D02*
X0399875Y0238502D01*
X0388625Y0218502D02*
X0366750Y0218502D01*
X0360500Y0212252D01*
X0349250Y0212252D01*
X0349250Y0224752D02*
X0344250Y0229752D01*
X0336750Y0229752D01*
X0331750Y0224752D01*
X0331157Y0224745D01*
X0334250Y0224752D02*
X0334250Y0223502D01*
X0331750Y0221002D01*
X0331157Y0221202D01*
X0327375Y0221627D02*
X0327375Y0225377D01*
X0329875Y0227877D01*
X0333625Y0231002D02*
X0309875Y0231002D01*
X0302375Y0231002D02*
X0301750Y0231627D01*
X0301750Y0268502D01*
X0307375Y0264127D02*
X0311125Y0267877D01*
X0311125Y0271627D01*
X0316125Y0271627D02*
X0326125Y0271627D01*
X0326750Y0272252D01*
X0327357Y0272445D01*
X0326750Y0269127D02*
X0327357Y0268902D01*
X0326750Y0269127D02*
X0318625Y0269127D01*
X0316125Y0262252D02*
X0308625Y0254752D01*
X0311750Y0255377D02*
X0314250Y0257877D01*
X0346125Y0257877D01*
X0358625Y0255377D02*
X0323625Y0255377D01*
X0316043Y0250945D02*
X0315500Y0251002D01*
X0314250Y0252252D01*
X0314250Y0254127D01*
X0311750Y0253502D02*
X0311750Y0255377D01*
X0311750Y0253502D02*
X0309250Y0251002D01*
X0308957Y0250945D01*
X0308957Y0247402D02*
X0309250Y0247252D01*
X0310500Y0246002D01*
X0311125Y0246002D01*
X0313000Y0244127D01*
X0313000Y0242877D01*
X0316043Y0247402D02*
X0316125Y0247877D01*
X0319875Y0247877D01*
X0328000Y0233502D02*
X0359250Y0233502D01*
X0369250Y0223502D01*
X0358000Y0224752D02*
X0349250Y0224752D01*
X0343000Y0227252D02*
X0336750Y0227252D01*
X0334250Y0224752D01*
X0333000Y0215377D02*
X0325500Y0215377D01*
X0324875Y0216002D01*
X0294875Y0216002D01*
X0292375Y0218502D01*
X0292375Y0223502D01*
X0289875Y0226002D01*
X0289250Y0226002D01*
X0288000Y0227252D01*
X0287957Y0227502D01*
X0287957Y0231045D02*
X0287375Y0231002D01*
X0284250Y0231002D01*
X0292375Y0229752D02*
X0294875Y0227252D01*
X0295043Y0227502D01*
X0292375Y0229752D02*
X0292375Y0239127D01*
X0294875Y0245377D02*
X0294875Y0231627D01*
X0295043Y0231045D01*
X0302375Y0231002D02*
X0302375Y0219127D01*
X0279250Y0201002D02*
X0276125Y0201002D01*
X0275543Y0200702D01*
X0275543Y0204245D02*
X0275500Y0204752D01*
X0272375Y0204752D01*
X0270500Y0206627D01*
X0254875Y0206627D01*
X0253000Y0204752D01*
X0250500Y0204752D01*
X0244875Y0210377D01*
X0244875Y0217252D01*
X0229250Y0232877D01*
X0229250Y0236002D01*
X0228000Y0237252D01*
X0217375Y0237252D01*
X0211750Y0234752D02*
X0226750Y0234752D01*
X0227375Y0231002D02*
X0214875Y0231002D01*
X0208625Y0224752D01*
X0206125Y0224752D01*
X0205657Y0224645D01*
X0203000Y0226002D02*
X0203000Y0222877D01*
X0204250Y0221627D01*
X0205500Y0221627D01*
X0205657Y0221102D01*
X0203000Y0226002D02*
X0211750Y0234752D01*
X0219875Y0228502D02*
X0228000Y0228502D01*
X0243000Y0213502D01*
X0243000Y0209752D01*
X0251750Y0201002D01*
X0268000Y0201002D01*
X0268457Y0200702D01*
X0268000Y0204127D02*
X0264875Y0204127D01*
X0268000Y0204127D02*
X0268457Y0204245D01*
X0266125Y0209127D02*
X0271125Y0214127D01*
X0271125Y0226002D01*
X0273625Y0228502D01*
X0274250Y0228502D01*
X0274356Y0228811D01*
X0268844Y0228811D02*
X0268625Y0228502D01*
X0268000Y0228502D01*
X0262375Y0222877D01*
X0262375Y0209127D01*
X0251750Y0207252D02*
X0251750Y0231002D01*
X0254250Y0233502D01*
X0258000Y0233502D01*
X0258625Y0232877D01*
X0268625Y0232877D01*
X0268844Y0232630D01*
X0263625Y0230377D02*
X0261125Y0227877D01*
X0256750Y0227877D01*
X0256143Y0227502D01*
X0257375Y0230377D02*
X0256750Y0231002D01*
X0256143Y0231045D01*
X0257375Y0230377D02*
X0259875Y0230377D01*
X0268844Y0224993D02*
X0269250Y0224752D01*
X0269250Y0221627D01*
X0268844Y0221174D01*
X0249057Y0227502D02*
X0248625Y0227877D01*
X0248000Y0227877D01*
X0246125Y0229752D01*
X0246125Y0251627D01*
X0239250Y0250377D02*
X0239250Y0252877D01*
X0235500Y0256627D01*
X0156125Y0256627D01*
X0139875Y0240377D01*
X0139875Y0237252D01*
X0140500Y0236627D01*
X0141125Y0236627D01*
X0142375Y0235377D01*
X0142657Y0235202D01*
X0145500Y0234752D02*
X0149250Y0238502D01*
X0149743Y0238745D01*
X0149875Y0235377D02*
X0149743Y0235202D01*
X0149875Y0235377D02*
X0153625Y0235377D01*
X0145500Y0234752D02*
X0145500Y0184127D01*
X0149875Y0179752D01*
X0204250Y0179752D01*
X0204557Y0179445D01*
X0204250Y0176002D02*
X0204557Y0175902D01*
X0204250Y0176002D02*
X0150500Y0176002D01*
X0143625Y0182877D01*
X0143625Y0224127D01*
X0143000Y0224752D01*
X0152375Y0218502D02*
X0152375Y0216002D01*
X0149250Y0212877D01*
X0149250Y0195377D01*
X0153000Y0191627D01*
X0155500Y0191627D01*
X0156750Y0189127D02*
X0148000Y0189127D01*
X0149250Y0184127D02*
X0174250Y0184127D01*
X0195500Y0205377D01*
X0203625Y0197252D01*
X0206125Y0194752D02*
X0201125Y0189752D01*
X0197375Y0182252D02*
X0208625Y0182252D01*
X0211125Y0179752D01*
X0211643Y0179445D01*
X0211643Y0175902D02*
X0211750Y0175377D01*
X0213000Y0175377D01*
X0218625Y0169752D01*
X0218625Y0152252D01*
X0216125Y0149752D02*
X0214875Y0151002D01*
X0214875Y0156002D01*
X0204250Y0149752D02*
X0197375Y0149752D01*
X0196125Y0149752D01*
X0178000Y0131627D01*
X0178000Y0129752D01*
X0166750Y0151002D02*
X0137375Y0180377D01*
X0137375Y0189127D01*
X0139875Y0193502D02*
X0132375Y0201002D01*
X0141750Y0199752D02*
X0101750Y0239752D01*
X0091750Y0249752D02*
X0085500Y0249752D01*
X0084943Y0249802D01*
X0086125Y0252252D02*
X0085500Y0252877D01*
X0084943Y0253345D01*
X0086125Y0252252D02*
X0088625Y0252252D01*
X0084875Y0257252D02*
X0138625Y0257252D01*
X0147375Y0266002D01*
X0199250Y0266002D01*
X0208000Y0274752D01*
X0214250Y0274752D01*
X0216125Y0272877D01*
X0216643Y0272445D01*
X0216125Y0269127D02*
X0216643Y0268902D01*
X0216125Y0269127D02*
X0214250Y0267252D01*
X0213000Y0267252D01*
X0225500Y0251627D02*
X0229250Y0251627D01*
X0229357Y0251445D01*
X0229357Y0247902D02*
X0229250Y0247877D01*
X0225500Y0247877D01*
X0233000Y0254752D02*
X0236125Y0251627D01*
X0236443Y0251445D01*
X0239250Y0250377D02*
X0236750Y0247877D01*
X0236443Y0247902D01*
X0233000Y0254752D02*
X0161125Y0254752D01*
X0145500Y0239127D01*
X0143000Y0239127D01*
X0142657Y0238745D01*
X0164250Y0244127D02*
X0165500Y0242877D01*
X0165500Y0221627D01*
X0169875Y0226002D02*
X0169875Y0202252D01*
X0156750Y0189127D01*
X0151750Y0196627D02*
X0153625Y0198502D01*
X0158000Y0198502D01*
X0155500Y0206002D02*
X0153000Y0208502D01*
X0155500Y0206002D02*
X0165500Y0206002D01*
X0173000Y0216627D02*
X0173000Y0186627D01*
X0159250Y0174127D02*
X0149250Y0174127D01*
X0141750Y0181627D01*
X0141750Y0199752D01*
X0139875Y0193502D02*
X0139875Y0181002D01*
X0151750Y0169127D01*
X0160500Y0169127D01*
X0163000Y0170377D02*
X0163000Y0162877D01*
X0168625Y0157252D01*
X0173000Y0157252D01*
X0173157Y0157002D01*
X0173157Y0160545D02*
X0173000Y0161002D01*
X0168625Y0161002D01*
X0163000Y0170377D02*
X0159250Y0174127D01*
X0195500Y0205377D02*
X0182375Y0218502D01*
X0178625Y0218502D02*
X0178625Y0208502D01*
X0173000Y0216627D02*
X0178625Y0222252D01*
X0179875Y0228502D02*
X0185500Y0228502D01*
X0206125Y0207877D01*
X0206125Y0194752D01*
X0227375Y0192252D02*
X0227375Y0212252D01*
X0224250Y0215377D01*
X0221750Y0225377D02*
X0228625Y0225377D01*
X0241125Y0212877D01*
X0241125Y0192877D01*
X0233000Y0190377D02*
X0231750Y0190377D01*
X0228625Y0187252D01*
X0234250Y0164127D02*
X0230500Y0160377D01*
X0234250Y0164127D02*
X0250500Y0164127D01*
X0241750Y0159127D02*
X0236750Y0154127D01*
X0236750Y0151002D02*
X0236643Y0150845D01*
X0236750Y0151002D02*
X0243000Y0151002D01*
X0243000Y0147252D02*
X0236750Y0147252D01*
X0236643Y0147302D01*
X0229875Y0151002D02*
X0229557Y0150845D01*
X0229875Y0151002D02*
X0240500Y0161627D01*
X0261125Y0161627D01*
X0264250Y0167252D02*
X0268000Y0167252D01*
X0268357Y0167602D01*
X0268000Y0171002D02*
X0263000Y0171002D01*
X0268000Y0171002D02*
X0268357Y0171145D01*
X0275443Y0171145D02*
X0275500Y0171002D01*
X0287375Y0171002D01*
X0306750Y0151627D01*
X0307257Y0151045D01*
X0309875Y0151627D02*
X0313625Y0147877D01*
X0314250Y0147877D01*
X0314343Y0147502D01*
X0314343Y0151045D02*
X0314250Y0151627D01*
X0314250Y0166002D01*
X0311750Y0168502D01*
X0311750Y0170377D01*
X0298625Y0183502D01*
X0293625Y0184752D02*
X0293625Y0189127D01*
X0294875Y0190377D01*
X0299875Y0190377D01*
X0299957Y0190502D01*
X0299250Y0192877D02*
X0299875Y0193502D01*
X0299957Y0194045D01*
X0299250Y0192877D02*
X0296125Y0192877D01*
X0293625Y0184752D02*
X0309875Y0168502D01*
X0309875Y0151627D01*
X0307257Y0147502D02*
X0306750Y0147252D01*
X0286750Y0167252D01*
X0275500Y0167252D01*
X0275443Y0167602D01*
X0304250Y0136627D02*
X0338000Y0102877D01*
X0353243Y0087202D02*
X0353625Y0087252D01*
X0356125Y0089752D01*
X0356125Y0118502D01*
X0249057Y0231045D02*
X0249250Y0231627D01*
X0274250Y0256627D01*
X0279875Y0256627D01*
X0279250Y0261002D02*
X0294875Y0245377D01*
X0286750Y0263502D02*
X0286750Y0319127D01*
X0276125Y0329752D01*
X0275543Y0330145D01*
X0275500Y0326627D02*
X0275543Y0326602D01*
X0275500Y0326627D02*
X0274875Y0326627D01*
X0272375Y0324127D01*
X0272375Y0322877D01*
X0264875Y0315377D01*
X0264875Y0279127D01*
X0258625Y0274127D02*
X0258625Y0264127D01*
X0264875Y0266627D02*
X0268000Y0266627D01*
X0268557Y0266902D01*
X0268000Y0270377D02*
X0264875Y0270377D01*
X0268000Y0270377D02*
X0268557Y0270445D01*
X0272375Y0272877D02*
X0273625Y0272877D01*
X0275500Y0271002D01*
X0275643Y0270445D01*
X0275500Y0267252D02*
X0275643Y0266902D01*
X0275500Y0267252D02*
X0273000Y0264752D01*
X0273000Y0263502D01*
X0270500Y0261002D01*
X0244875Y0261002D01*
X0289250Y0307877D02*
X0289250Y0348502D01*
X0285500Y0352252D01*
X0286750Y0354752D02*
X0291750Y0349752D01*
X0291750Y0309127D01*
X0289250Y0307877D02*
X0318625Y0278502D01*
X0325500Y0278502D01*
X0331125Y0272877D01*
X0334250Y0272877D01*
X0334443Y0272445D01*
X0336750Y0274127D02*
X0329875Y0281002D01*
X0319875Y0281002D01*
X0319875Y0284752D02*
X0319875Y0303502D01*
X0336750Y0274127D02*
X0343625Y0274127D01*
X0360500Y0257252D01*
X0459250Y0257252D01*
X0461750Y0254752D01*
X0461750Y0253502D01*
X0464875Y0250377D01*
X0465500Y0250377D01*
X0466043Y0249802D01*
X0466043Y0253345D02*
X0466125Y0253502D01*
X0469875Y0253502D01*
X0458957Y0253345D02*
X0458625Y0252877D01*
X0457375Y0252877D01*
X0451125Y0246627D01*
X0454875Y0246627D02*
X0458625Y0250377D01*
X0458957Y0249802D01*
X0334443Y0268902D02*
X0334250Y0269127D01*
X0331750Y0266627D01*
X0331750Y0264127D01*
X0332375Y0263502D01*
X0332375Y0262252D01*
X0328625Y0262252D02*
X0316125Y0262252D01*
X0268457Y0326602D02*
X0268000Y0326627D01*
X0264250Y0330377D01*
X0264250Y0352252D01*
X0268625Y0339127D02*
X0284250Y0354752D01*
X0286750Y0354752D01*
X0272375Y0369127D02*
X0272375Y0384752D01*
X0269250Y0387877D01*
X0268625Y0387877D01*
X0268457Y0388202D01*
X0268000Y0391627D02*
X0268457Y0391745D01*
X0268000Y0391627D02*
X0264875Y0388502D01*
X0264875Y0370377D01*
X0275543Y0388202D02*
X0276125Y0388502D01*
X0279250Y0388502D01*
X0275543Y0391745D02*
X0275500Y0392252D01*
X0273625Y0394127D01*
X0272375Y0394127D01*
X0268625Y0339127D02*
X0268625Y0330377D01*
X0268457Y0330145D01*
X0173000Y0235377D02*
X0169250Y0235377D01*
X0173000Y0235377D02*
X0179875Y0228502D01*
X0084875Y0257252D02*
X0081125Y0253502D01*
X0078000Y0253502D01*
X0077857Y0253345D01*
X0077375Y0250377D02*
X0074250Y0250377D01*
X0077375Y0250377D02*
X0077857Y0249802D01*
D19*
X0274356Y0232630D02*
X0274875Y0232252D01*
X0278000Y0232252D01*
X0274356Y0221174D02*
X0274875Y0221002D01*
X0278000Y0217877D01*
M02*
