%
M48
M72
T01C0.0120
T02C0.0787
%
T01
X16550Y2975
X17488Y2975
X17050Y5163
X16675Y5163
X20800Y8163
X20988Y7788
X19113Y9850
X18613Y9913
X18175Y9225
X18925Y10413
X19675Y10663
X20550Y11850
X21488Y12788
X21863Y10663
X23738Y9163
X23925Y8788
X24550Y8538
X29175Y8475
X29425Y8163
X30113Y8100
X30613Y7850
X31488Y6850
X33113Y6850
X34050Y7163
X34988Y8100
X33800Y10288
X32550Y9788
X29425Y9788
X29175Y9038
X29175Y10788
X29175Y11975
X30175Y13350
X30425Y13663
X31050Y14163
X31613Y16788
X32175Y17350
X32363Y17663
X32738Y17663
X33675Y18288
X34425Y19725
X34300Y20288
X33863Y21225
X33550Y21413
X33300Y20600
X31988Y20975
X31925Y20600
X30800Y21350
X30238Y21913
X29675Y21913
X28300Y22288
X27800Y22663
X28425Y23100
X27800Y23225
X29238Y23913
X29800Y23413
X30738Y24038
X31988Y24413
X31988Y24788
X32363Y25538
X32863Y26225
X33238Y26225
X34613Y25788
X34800Y26475
X35863Y25538
X36113Y24100
X35613Y23600
X35800Y22475
X36925Y22350
X34925Y21225
X34550Y22100
X34175Y22288
X34300Y22725
X33363Y23100
X32988Y22788
X32800Y23350
X32050Y23413
X32300Y23913
X30988Y23100
X31988Y21913
X32738Y22163
X36675Y21100
X37675Y19225
X37925Y18475
X36988Y16788
X36738Y15850
X37550Y15725
X37675Y16100
X36738Y13663
X37988Y12788
X35613Y11850
X35050Y15038
X31988Y18850
X29863Y18350
X29613Y18788
X29613Y19288
X28613Y19788
X27925Y20100
X26613Y20913
X26238Y20913
X26488Y20413
X25175Y20725
X25425Y21413
X24488Y22100
X25988Y22413
X25988Y23038
X26363Y23038
X27800Y21788
X25800Y18725
X24800Y18725
X24300Y18225
X24050Y18475
X23300Y19038
X22738Y19225
X22863Y18413
X22113Y17663
X22550Y17225
X23050Y16038
X23675Y15413
X24175Y15913
X24300Y15100
X24300Y14725
X24425Y13413
X23738Y13163
X24050Y12475
X25238Y12975
X27988Y14350
X28050Y15850
X26425Y16725
X26300Y17100
X26113Y16163
X25050Y16413
X26675Y18225
X23300Y20225
X22425Y21538
X22675Y21850
X22175Y22538
X21988Y22850
X22738Y23100
X22675Y23475
X21738Y23725
X21613Y24350
X22550Y24788
X22550Y25163
X21175Y26225
X21300Y26725
X22050Y27038
X24488Y26100
X25863Y26413
X26488Y26663
X26488Y27038
X25863Y27413
X26488Y27913
X27238Y27288
X27925Y26100
X27988Y25663
X28675Y26350
X30175Y26850
X30738Y26413
X31113Y27163
X31613Y27163
X31863Y26913
X31550Y27788
X31988Y28100
X31988Y28475
X31675Y29413
X31988Y30350
X29175Y30913
X28550Y35225
X26425Y35225
X26488Y37038
X27238Y36913
X27925Y38850
X27238Y39413
X30863Y25475
X31425Y25413
X24613Y25163
X20988Y21475
X20363Y19725
X20113Y18975
X19738Y18225
X18550Y18725
X18300Y18475
X17300Y18663
X15550Y19163
X15175Y19663
X15800Y19850
X16550Y20600
X15300Y20850
X15238Y21850
X14925Y22600
X14300Y22475
X15363Y23538
X16425Y24413
X16925Y23538
X16988Y22600
X16550Y22163
X16550Y21788
X17863Y21850
X18238Y21850
X17863Y22225
X17863Y20850
X14800Y18913
X14925Y18413
X13738Y18913
X13238Y20100
X16050Y16913
X16863Y16100
X17675Y16663
X18613Y16100
X18550Y15538
X17675Y15163
X17238Y15038
X18050Y14475
X18613Y13600
X18175Y12975
X17800Y12975
X18175Y12225
X17550Y11600
X17238Y12038
X19738Y14725
X20425Y14975
X21488Y15600
X21863Y15225
X21613Y14975
X19488Y16725
X19113Y16663
X21738Y18475
X21488Y18975
X10175Y23975
X9113Y24600
X9175Y24975
X8863Y25225
X7425Y25038
X38238Y2975
X39675Y2725
X38738Y22100
X40488Y22475
X40425Y23100
X39675Y23663
X45113Y24663
X45488Y24663
X46988Y25350
T02
X29838Y32166
M30
