G75*
%MOIN*%
%OFA0B0*%
%FSLAX25Y25*%
%IPPOS*%
%LPD*%
%AMOC8*
5,1,8,0,0,1.08239X$1,22.5*
%
%ADD10C,0.00004*%
%ADD11C,0.00500*%
%ADD12C,0.00600*%
%ADD13C,0.00300*%
%ADD14C,0.00400*%
%ADD15C,0.01500*%
%ADD16R,0.03740X0.01969*%
%ADD17R,0.03000X0.01800*%
%ADD18R,0.09449X0.00591*%
%ADD19R,0.16732X0.01870*%
%ADD20R,0.03900X0.01800*%
%ADD21R,0.01800X0.03900*%
%ADD22R,0.01969X0.03740*%
%ADD23C,0.00800*%
%ADD24R,0.01800X0.03000*%
%ADD25C,0.01000*%
%ADD26C,0.01600*%
%ADD27R,0.02300X0.01800*%
%ADD28R,0.01800X0.02300*%
%ADD29C,0.00000*%
%ADD30R,0.10630X0.02362*%
%ADD31C,0.00394*%
%ADD32R,0.02362X0.10630*%
%ADD33C,0.01575*%
D10*
X0138209Y0001002D02*
X0163768Y0150020D01*
X0055500Y0255555D01*
X0205122Y0277296D01*
X0272035Y0412877D01*
X0338949Y0277296D01*
X0488571Y0255555D01*
X0380303Y0150020D01*
X0405862Y0001002D01*
X0272035Y0071359D01*
X0138209Y0001002D01*
D11*
X0240504Y0096459D02*
X0303496Y0096459D01*
X0303496Y0332285D01*
X0240504Y0332285D01*
X0240504Y0096459D01*
X0315764Y0173852D02*
X0322457Y0167159D01*
X0329543Y0167159D01*
X0336236Y0173852D01*
X0336236Y0180152D01*
X0329543Y0186844D01*
X0322457Y0186844D01*
X0315764Y0180152D01*
X0315764Y0173852D01*
X0371339Y0179187D02*
X0371339Y0189817D01*
X0388661Y0189817D01*
X0388661Y0179187D01*
X0371339Y0179187D01*
X0367500Y0226502D02*
X0367500Y0234502D01*
X0341000Y0233902D02*
X0335800Y0233902D01*
X0335800Y0245102D01*
X0341000Y0245102D01*
X0341000Y0233902D01*
X0320800Y0240802D02*
X0320800Y0246002D01*
X0309600Y0246002D01*
X0309600Y0240802D01*
X0320800Y0240802D01*
X0233700Y0216802D02*
X0225700Y0216802D01*
X0200500Y0254002D02*
X0190500Y0264002D01*
X0168500Y0264002D01*
X0141059Y0210301D02*
X0135941Y0210301D01*
X0135941Y0197703D01*
X0141059Y0197703D01*
X0141059Y0210301D01*
X0144500Y0198002D02*
X0138500Y0193002D01*
X0124500Y0193002D01*
X0190500Y0170002D02*
X0198500Y0170002D01*
X0201500Y0173002D01*
X0354185Y0128163D02*
X0354185Y0110841D01*
X0364815Y0110841D01*
X0364815Y0128163D01*
X0354185Y0128163D01*
D12*
X0333000Y0198002D02*
X0333000Y0201902D01*
X0331400Y0201902D01*
X0331400Y0198002D01*
X0333000Y0198002D01*
X0330500Y0198002D02*
X0330500Y0201902D01*
X0328900Y0201902D01*
X0328900Y0198002D01*
X0330500Y0198002D01*
X0327900Y0198002D02*
X0327900Y0201902D01*
X0326300Y0201902D01*
X0326300Y0198002D01*
X0327900Y0198002D01*
X0325400Y0198002D02*
X0325400Y0201902D01*
X0323800Y0201902D01*
X0323800Y0198002D01*
X0325400Y0198002D01*
X0322300Y0201902D02*
X0322300Y0214102D01*
X0322300Y0201902D01*
X0334500Y0201902D01*
X0334500Y0206802D01*
X0334500Y0209202D01*
X0334500Y0214102D01*
X0334500Y0209202D01*
X0334500Y0206802D01*
X0334500Y0201902D01*
X0334500Y0206802D02*
X0334431Y0206804D01*
X0334363Y0206810D01*
X0334295Y0206820D01*
X0334228Y0206833D01*
X0334162Y0206851D01*
X0334097Y0206872D01*
X0334033Y0206897D01*
X0333971Y0206925D01*
X0333910Y0206957D01*
X0333851Y0206992D01*
X0333795Y0207031D01*
X0333740Y0207073D01*
X0333689Y0207118D01*
X0333639Y0207166D01*
X0333593Y0207216D01*
X0333550Y0207269D01*
X0333509Y0207325D01*
X0333472Y0207382D01*
X0333439Y0207442D01*
X0333408Y0207504D01*
X0333382Y0207567D01*
X0333359Y0207631D01*
X0333339Y0207697D01*
X0333324Y0207764D01*
X0333312Y0207831D01*
X0333304Y0207899D01*
X0333300Y0207968D01*
X0333300Y0208036D01*
X0333304Y0208105D01*
X0333312Y0208173D01*
X0333324Y0208240D01*
X0333339Y0208307D01*
X0333359Y0208373D01*
X0333382Y0208437D01*
X0333408Y0208500D01*
X0333439Y0208562D01*
X0333472Y0208622D01*
X0333509Y0208679D01*
X0333550Y0208735D01*
X0333593Y0208788D01*
X0333639Y0208838D01*
X0333689Y0208886D01*
X0333740Y0208931D01*
X0333795Y0208973D01*
X0333851Y0209012D01*
X0333910Y0209047D01*
X0333971Y0209079D01*
X0334033Y0209107D01*
X0334097Y0209132D01*
X0334162Y0209153D01*
X0334228Y0209171D01*
X0334295Y0209184D01*
X0334363Y0209194D01*
X0334431Y0209200D01*
X0334500Y0209202D01*
X0334431Y0209200D01*
X0334363Y0209194D01*
X0334295Y0209184D01*
X0334228Y0209171D01*
X0334162Y0209153D01*
X0334097Y0209132D01*
X0334033Y0209107D01*
X0333971Y0209079D01*
X0333910Y0209047D01*
X0333851Y0209012D01*
X0333795Y0208973D01*
X0333740Y0208931D01*
X0333689Y0208886D01*
X0333639Y0208838D01*
X0333593Y0208788D01*
X0333550Y0208735D01*
X0333509Y0208679D01*
X0333472Y0208622D01*
X0333439Y0208562D01*
X0333408Y0208500D01*
X0333382Y0208437D01*
X0333359Y0208373D01*
X0333339Y0208307D01*
X0333324Y0208240D01*
X0333312Y0208173D01*
X0333304Y0208105D01*
X0333300Y0208036D01*
X0333300Y0207968D01*
X0333304Y0207899D01*
X0333312Y0207831D01*
X0333324Y0207764D01*
X0333339Y0207697D01*
X0333359Y0207631D01*
X0333382Y0207567D01*
X0333408Y0207504D01*
X0333439Y0207442D01*
X0333472Y0207382D01*
X0333509Y0207325D01*
X0333550Y0207269D01*
X0333593Y0207216D01*
X0333639Y0207166D01*
X0333689Y0207118D01*
X0333740Y0207073D01*
X0333795Y0207031D01*
X0333851Y0206992D01*
X0333910Y0206957D01*
X0333971Y0206925D01*
X0334033Y0206897D01*
X0334097Y0206872D01*
X0334162Y0206851D01*
X0334228Y0206833D01*
X0334295Y0206820D01*
X0334363Y0206810D01*
X0334431Y0206804D01*
X0334500Y0206802D01*
X0334500Y0214102D02*
X0322300Y0214102D01*
X0323800Y0214102D02*
X0323800Y0217902D01*
X0325400Y0218002D01*
X0325400Y0214102D01*
X0323800Y0214102D01*
X0326300Y0214102D02*
X0326300Y0218002D01*
X0327900Y0218002D01*
X0327900Y0214102D01*
X0326300Y0214102D01*
X0328900Y0214102D02*
X0328900Y0218002D01*
X0330500Y0218002D01*
X0330500Y0214102D01*
X0328900Y0214102D01*
X0331400Y0214102D02*
X0331400Y0218002D01*
X0333000Y0218002D01*
X0333000Y0214102D01*
X0331400Y0214102D01*
X0210300Y0242002D02*
X0210300Y0253202D01*
X0205100Y0253202D01*
X0205100Y0242002D01*
X0210300Y0242002D01*
X0191299Y0227401D02*
X0165098Y0227401D01*
X0163701Y0226004D01*
X0163701Y0199803D01*
X0191299Y0199803D01*
X0191299Y0227401D01*
X0165286Y0224402D02*
X0165288Y0224477D01*
X0165294Y0224551D01*
X0165304Y0224625D01*
X0165317Y0224698D01*
X0165335Y0224771D01*
X0165356Y0224842D01*
X0165381Y0224913D01*
X0165410Y0224982D01*
X0165443Y0225049D01*
X0165479Y0225114D01*
X0165518Y0225178D01*
X0165560Y0225239D01*
X0165606Y0225298D01*
X0165655Y0225355D01*
X0165707Y0225408D01*
X0165761Y0225459D01*
X0165818Y0225508D01*
X0165878Y0225552D01*
X0165940Y0225594D01*
X0166004Y0225633D01*
X0166070Y0225668D01*
X0166137Y0225699D01*
X0166207Y0225727D01*
X0166277Y0225751D01*
X0166349Y0225772D01*
X0166422Y0225788D01*
X0166495Y0225801D01*
X0166570Y0225810D01*
X0166644Y0225815D01*
X0166719Y0225816D01*
X0166793Y0225813D01*
X0166868Y0225806D01*
X0166941Y0225795D01*
X0167015Y0225781D01*
X0167087Y0225762D01*
X0167158Y0225740D01*
X0167228Y0225714D01*
X0167297Y0225684D01*
X0167363Y0225651D01*
X0167428Y0225614D01*
X0167491Y0225574D01*
X0167552Y0225530D01*
X0167610Y0225484D01*
X0167666Y0225434D01*
X0167719Y0225382D01*
X0167770Y0225327D01*
X0167817Y0225269D01*
X0167861Y0225209D01*
X0167902Y0225146D01*
X0167940Y0225082D01*
X0167974Y0225016D01*
X0168005Y0224947D01*
X0168032Y0224878D01*
X0168055Y0224807D01*
X0168074Y0224735D01*
X0168090Y0224662D01*
X0168102Y0224588D01*
X0168110Y0224514D01*
X0168114Y0224439D01*
X0168114Y0224365D01*
X0168110Y0224290D01*
X0168102Y0224216D01*
X0168090Y0224142D01*
X0168074Y0224069D01*
X0168055Y0223997D01*
X0168032Y0223926D01*
X0168005Y0223857D01*
X0167974Y0223788D01*
X0167940Y0223722D01*
X0167902Y0223658D01*
X0167861Y0223595D01*
X0167817Y0223535D01*
X0167770Y0223477D01*
X0167719Y0223422D01*
X0167666Y0223370D01*
X0167610Y0223320D01*
X0167552Y0223274D01*
X0167491Y0223230D01*
X0167428Y0223190D01*
X0167363Y0223153D01*
X0167297Y0223120D01*
X0167228Y0223090D01*
X0167158Y0223064D01*
X0167087Y0223042D01*
X0167015Y0223023D01*
X0166941Y0223009D01*
X0166868Y0222998D01*
X0166793Y0222991D01*
X0166719Y0222988D01*
X0166644Y0222989D01*
X0166570Y0222994D01*
X0166495Y0223003D01*
X0166422Y0223016D01*
X0166349Y0223032D01*
X0166277Y0223053D01*
X0166207Y0223077D01*
X0166137Y0223105D01*
X0166070Y0223136D01*
X0166004Y0223171D01*
X0165940Y0223210D01*
X0165878Y0223252D01*
X0165818Y0223296D01*
X0165761Y0223345D01*
X0165707Y0223396D01*
X0165655Y0223449D01*
X0165606Y0223506D01*
X0165560Y0223565D01*
X0165518Y0223626D01*
X0165479Y0223690D01*
X0165443Y0223755D01*
X0165410Y0223822D01*
X0165381Y0223891D01*
X0165356Y0223962D01*
X0165335Y0224033D01*
X0165317Y0224106D01*
X0165304Y0224179D01*
X0165294Y0224253D01*
X0165288Y0224327D01*
X0165286Y0224402D01*
X0198500Y0182702D02*
X0209700Y0182702D01*
X0209700Y0177502D01*
X0198500Y0177502D01*
X0198500Y0182702D01*
X0199100Y0152402D02*
X0210300Y0152402D01*
X0210300Y0147202D01*
X0199100Y0147202D01*
X0199100Y0152402D01*
X0200100Y0130802D02*
X0211300Y0130802D01*
X0211300Y0125602D01*
X0200100Y0125602D01*
X0200100Y0130802D01*
X0203100Y0112002D02*
X0203100Y0110702D01*
X0200500Y0110702D01*
X0200500Y0108702D01*
X0203100Y0108702D01*
X0203100Y0107002D01*
X0200500Y0107002D01*
X0200500Y0105002D01*
X0203100Y0105002D01*
X0203100Y0103302D01*
X0200500Y0103302D01*
X0200500Y0101302D01*
X0203100Y0101302D01*
X0203100Y0103302D01*
X0203100Y0105002D02*
X0203100Y0107002D01*
X0203100Y0108702D02*
X0203100Y0110702D01*
X0203100Y0112002D02*
X0205300Y0112002D01*
X0207700Y0112002D01*
X0209900Y0112002D01*
X0209900Y0110702D01*
X0212500Y0110702D01*
X0212500Y0108702D01*
X0209900Y0108702D01*
X0209900Y0110702D01*
X0209900Y0108702D02*
X0209900Y0103302D01*
X0212500Y0103302D01*
X0212500Y0101302D01*
X0209900Y0101302D01*
X0209900Y0103302D01*
X0209900Y0104702D02*
X0209900Y0107302D01*
X0209900Y0101302D02*
X0209900Y0100002D01*
X0203100Y0100002D01*
X0203100Y0101302D01*
X0205600Y0100002D02*
X0207400Y0100002D01*
X0207400Y0112002D02*
X0205600Y0112002D01*
X0205300Y0112002D02*
X0205302Y0111933D01*
X0205308Y0111865D01*
X0205318Y0111797D01*
X0205331Y0111730D01*
X0205349Y0111664D01*
X0205370Y0111599D01*
X0205395Y0111535D01*
X0205423Y0111473D01*
X0205455Y0111412D01*
X0205490Y0111353D01*
X0205529Y0111297D01*
X0205571Y0111242D01*
X0205616Y0111191D01*
X0205664Y0111141D01*
X0205714Y0111095D01*
X0205767Y0111052D01*
X0205823Y0111011D01*
X0205880Y0110974D01*
X0205940Y0110941D01*
X0206002Y0110910D01*
X0206065Y0110884D01*
X0206129Y0110861D01*
X0206195Y0110841D01*
X0206262Y0110826D01*
X0206329Y0110814D01*
X0206397Y0110806D01*
X0206466Y0110802D01*
X0206534Y0110802D01*
X0206603Y0110806D01*
X0206671Y0110814D01*
X0206738Y0110826D01*
X0206805Y0110841D01*
X0206871Y0110861D01*
X0206935Y0110884D01*
X0206998Y0110910D01*
X0207060Y0110941D01*
X0207120Y0110974D01*
X0207177Y0111011D01*
X0207233Y0111052D01*
X0207286Y0111095D01*
X0207336Y0111141D01*
X0207384Y0111191D01*
X0207429Y0111242D01*
X0207471Y0111297D01*
X0207510Y0111353D01*
X0207545Y0111412D01*
X0207577Y0111473D01*
X0207605Y0111535D01*
X0207630Y0111599D01*
X0207651Y0111664D01*
X0207669Y0111730D01*
X0207682Y0111797D01*
X0207692Y0111865D01*
X0207698Y0111933D01*
X0207700Y0112002D01*
D13*
X0201886Y0112336D02*
X0198750Y0115472D01*
X0201886Y0112336D01*
X0201886Y0113904D02*
X0198750Y0113904D01*
X0201886Y0113904D01*
X0201886Y0115472D02*
X0198750Y0112336D01*
X0201886Y0115472D01*
X0200318Y0115472D02*
X0200318Y0112336D01*
X0200318Y0115472D01*
X0332534Y0216616D02*
X0335670Y0219752D01*
X0332534Y0216616D01*
X0332534Y0218184D02*
X0335670Y0218184D01*
X0332534Y0218184D01*
X0332534Y0219752D02*
X0335670Y0216616D01*
X0332534Y0219752D01*
X0334102Y0219752D02*
X0334102Y0216616D01*
X0334102Y0219752D01*
D14*
X0342250Y0214404D02*
X0342250Y0211600D01*
X0345601Y0211600D02*
X0345601Y0214404D01*
X0340137Y0208577D02*
X0336597Y0208577D01*
X0336597Y0210937D01*
X0338367Y0209757D02*
X0338367Y0208577D01*
X0338367Y0207312D02*
X0339547Y0207312D01*
X0340137Y0206722D01*
X0340137Y0204952D01*
X0341317Y0204952D02*
X0337777Y0204952D01*
X0337777Y0206722D01*
X0338367Y0207312D01*
X0337187Y0203687D02*
X0336597Y0203687D01*
X0336597Y0201327D01*
X0337187Y0203687D02*
X0339547Y0201327D01*
X0340137Y0201327D01*
X0340137Y0200104D02*
X0340137Y0199514D01*
X0339547Y0199514D01*
X0339547Y0200104D01*
X0340137Y0200104D01*
X0340137Y0197659D02*
X0336597Y0197659D01*
X0338367Y0195889D01*
X0338367Y0198249D01*
X0337575Y0191805D02*
X0337575Y0188265D01*
X0336310Y0188265D02*
X0336310Y0190625D01*
X0337575Y0190035D02*
X0339935Y0190035D01*
X0339935Y0191805D02*
X0339935Y0188265D01*
X0336310Y0188265D02*
X0334540Y0188265D01*
X0333950Y0188855D01*
X0333950Y0190625D01*
X0332685Y0191215D02*
X0330325Y0188855D01*
X0330325Y0188265D01*
X0329102Y0188265D02*
X0328512Y0188265D01*
X0328512Y0188855D01*
X0329102Y0188855D01*
X0329102Y0188265D01*
X0326657Y0188265D02*
X0326657Y0191805D01*
X0324887Y0190035D01*
X0327247Y0190035D01*
X0330325Y0191805D02*
X0332685Y0191805D01*
X0332685Y0191215D01*
X0345097Y0201042D02*
X0345687Y0200452D01*
X0348047Y0200452D01*
X0348637Y0201042D01*
X0348637Y0202222D01*
X0348047Y0202812D01*
X0348047Y0204077D02*
X0348637Y0204667D01*
X0348637Y0205847D01*
X0348047Y0206437D01*
X0347457Y0206437D01*
X0346867Y0205847D01*
X0346867Y0205257D01*
X0346867Y0205847D02*
X0346277Y0206437D01*
X0345687Y0206437D01*
X0345097Y0205847D01*
X0345097Y0204667D01*
X0345687Y0204077D01*
X0345687Y0202812D02*
X0345097Y0202222D01*
X0345097Y0201042D01*
X0354097Y0205291D02*
X0354097Y0206471D01*
X0354687Y0207061D01*
X0355277Y0207061D01*
X0355867Y0206471D01*
X0356457Y0207061D01*
X0357047Y0207061D01*
X0357637Y0206471D01*
X0357637Y0205291D01*
X0357047Y0204701D01*
X0355867Y0205881D02*
X0355867Y0206471D01*
X0354687Y0204701D02*
X0354097Y0205291D01*
X0354687Y0208327D02*
X0354097Y0208917D01*
X0354097Y0210097D01*
X0354687Y0210687D01*
X0357047Y0208327D01*
X0357637Y0208917D01*
X0357637Y0210097D01*
X0357047Y0210687D01*
X0354687Y0210687D01*
X0354687Y0211952D02*
X0354097Y0212542D01*
X0354097Y0213722D01*
X0354687Y0214312D01*
X0357047Y0211952D01*
X0357637Y0212542D01*
X0357637Y0213722D01*
X0357047Y0214312D01*
X0354687Y0214312D01*
X0354097Y0215577D02*
X0357637Y0215577D01*
X0356457Y0215577D02*
X0354097Y0217937D01*
X0355867Y0216167D02*
X0357637Y0217937D01*
X0360750Y0213404D02*
X0360750Y0210600D01*
X0364101Y0210600D02*
X0364101Y0213404D01*
X0357047Y0211952D02*
X0354687Y0211952D01*
X0354687Y0208327D02*
X0357047Y0208327D01*
X0360597Y0204257D02*
X0364137Y0204257D01*
X0364137Y0203077D02*
X0364137Y0205437D01*
X0361777Y0203077D02*
X0360597Y0204257D01*
X0361187Y0201812D02*
X0362367Y0201812D01*
X0362957Y0201222D01*
X0362957Y0199452D01*
X0362957Y0200632D02*
X0364137Y0201812D01*
X0364137Y0199452D02*
X0360597Y0199452D01*
X0360597Y0201222D01*
X0361187Y0201812D01*
X0364373Y0195431D02*
X0366143Y0195431D01*
X0366733Y0194841D01*
X0366733Y0192481D01*
X0366143Y0191891D01*
X0364373Y0191891D01*
X0364373Y0195431D01*
X0367998Y0194841D02*
X0368588Y0195431D01*
X0369768Y0195431D01*
X0370358Y0194841D01*
X0370358Y0194251D01*
X0367998Y0191891D01*
X0370358Y0191891D01*
X0376660Y0198702D02*
X0376660Y0200472D01*
X0377250Y0201062D01*
X0378430Y0201062D01*
X0379020Y0200472D01*
X0379020Y0198702D01*
X0379020Y0199882D02*
X0380200Y0201062D01*
X0380200Y0202327D02*
X0377840Y0204687D01*
X0377250Y0204687D01*
X0376660Y0204097D01*
X0376660Y0202917D01*
X0377250Y0202327D01*
X0380200Y0202327D02*
X0380200Y0204687D01*
X0385097Y0204881D02*
X0388637Y0204881D01*
X0388637Y0203701D02*
X0388637Y0206061D01*
X0388047Y0207327D02*
X0388637Y0207917D01*
X0388637Y0209097D01*
X0388047Y0209687D01*
X0386867Y0209687D01*
X0386277Y0209097D01*
X0386277Y0208507D01*
X0386867Y0207327D01*
X0385097Y0207327D01*
X0385097Y0209687D01*
X0385687Y0210952D02*
X0385097Y0211542D01*
X0385097Y0212722D01*
X0385687Y0213312D01*
X0388047Y0210952D01*
X0388637Y0211542D01*
X0388637Y0212722D01*
X0388047Y0213312D01*
X0385687Y0213312D01*
X0385097Y0214577D02*
X0388637Y0214577D01*
X0387457Y0214577D02*
X0385097Y0216937D01*
X0386867Y0215167D02*
X0388637Y0216937D01*
X0391750Y0213404D02*
X0391750Y0210600D01*
X0395101Y0210600D02*
X0395101Y0213404D01*
X0388047Y0210952D02*
X0385687Y0210952D01*
X0380050Y0210600D02*
X0380050Y0213404D01*
X0376699Y0213404D02*
X0376699Y0210600D01*
X0373700Y0210597D02*
X0373110Y0211187D01*
X0370750Y0211187D01*
X0373110Y0208827D01*
X0373700Y0209417D01*
X0373700Y0210597D01*
X0373110Y0208827D02*
X0370750Y0208827D01*
X0370160Y0209417D01*
X0370160Y0210597D01*
X0370750Y0211187D01*
X0370750Y0212452D02*
X0370160Y0213042D01*
X0370160Y0214222D01*
X0370750Y0214812D01*
X0373110Y0212452D01*
X0373700Y0213042D01*
X0373700Y0214222D01*
X0373110Y0214812D01*
X0370750Y0214812D01*
X0370160Y0216077D02*
X0373700Y0216077D01*
X0372520Y0216077D02*
X0370160Y0218437D01*
X0371930Y0216667D02*
X0373700Y0218437D01*
X0374540Y0221328D02*
X0375720Y0221328D01*
X0376310Y0221918D01*
X0377575Y0223098D02*
X0379935Y0223098D01*
X0379345Y0224868D02*
X0377575Y0223098D01*
X0376310Y0224278D02*
X0375720Y0224868D01*
X0374540Y0224868D01*
X0373950Y0224278D01*
X0373950Y0221918D01*
X0374540Y0221328D01*
X0379345Y0221328D02*
X0379345Y0224868D01*
X0378969Y0236521D02*
X0378969Y0240061D01*
X0381329Y0240061D01*
X0380149Y0238291D02*
X0378969Y0238291D01*
X0377703Y0238881D02*
X0377703Y0236521D01*
X0375933Y0236521D01*
X0375343Y0237111D01*
X0375343Y0238881D01*
X0374078Y0239471D02*
X0371718Y0237111D01*
X0372308Y0236521D01*
X0373488Y0236521D01*
X0374078Y0237111D01*
X0374078Y0239471D01*
X0373488Y0240061D01*
X0372308Y0240061D01*
X0371718Y0239471D01*
X0371718Y0237111D01*
X0370453Y0237111D02*
X0369863Y0236521D01*
X0368683Y0236521D01*
X0368093Y0237111D01*
X0370453Y0239471D01*
X0370453Y0237111D01*
X0370453Y0239471D02*
X0369863Y0240061D01*
X0368683Y0240061D01*
X0368093Y0239471D01*
X0368093Y0237111D01*
X0366828Y0236521D02*
X0364468Y0236521D01*
X0365648Y0236521D02*
X0365648Y0240061D01*
X0364468Y0238881D01*
X0349700Y0238812D02*
X0349700Y0236452D01*
X0347340Y0238812D01*
X0346750Y0238812D01*
X0346160Y0238222D01*
X0346160Y0237042D01*
X0346750Y0236452D01*
X0346160Y0235187D02*
X0349700Y0235187D01*
X0346160Y0232827D01*
X0349700Y0232827D01*
X0349700Y0231562D02*
X0349700Y0229202D01*
X0347340Y0231562D01*
X0346750Y0231562D01*
X0346160Y0230972D01*
X0346160Y0229792D01*
X0346750Y0229202D01*
X0346750Y0240077D02*
X0347340Y0240077D01*
X0347930Y0240667D01*
X0347930Y0242437D01*
X0349110Y0242437D02*
X0346750Y0242437D01*
X0346160Y0241847D01*
X0346160Y0240667D01*
X0346750Y0240077D01*
X0349110Y0240077D02*
X0349700Y0240667D01*
X0349700Y0241847D01*
X0349110Y0242437D01*
X0349110Y0243703D02*
X0346750Y0246063D01*
X0349110Y0246063D01*
X0349700Y0245473D01*
X0349700Y0244293D01*
X0349110Y0243703D01*
X0346750Y0243703D01*
X0346160Y0244293D01*
X0346160Y0245473D01*
X0346750Y0246063D01*
X0346160Y0247328D02*
X0346160Y0249688D01*
X0346750Y0249688D01*
X0349110Y0247328D01*
X0349700Y0247328D01*
X0359724Y0259452D02*
X0362084Y0259452D01*
X0362674Y0260042D01*
X0362674Y0261222D01*
X0362084Y0261812D01*
X0362674Y0263077D02*
X0362674Y0265437D01*
X0362674Y0264257D02*
X0359134Y0264257D01*
X0360314Y0263077D01*
X0359724Y0261812D02*
X0359134Y0261222D01*
X0359134Y0260042D01*
X0359724Y0259452D01*
X0354945Y0269096D02*
X0354945Y0272636D01*
X0357305Y0272636D01*
X0356125Y0270866D02*
X0354945Y0270866D01*
X0353680Y0271456D02*
X0353680Y0269096D01*
X0351909Y0269096D01*
X0351320Y0269686D01*
X0351320Y0271456D01*
X0350054Y0272046D02*
X0347694Y0269686D01*
X0348284Y0269096D01*
X0349464Y0269096D01*
X0350054Y0269686D01*
X0350054Y0272046D01*
X0349464Y0272636D01*
X0348284Y0272636D01*
X0347694Y0272046D01*
X0347694Y0269686D01*
X0346429Y0269096D02*
X0344069Y0269096D01*
X0346429Y0271456D01*
X0346429Y0272046D01*
X0345839Y0272636D01*
X0344659Y0272636D01*
X0344069Y0272046D01*
X0342804Y0272046D02*
X0342214Y0272636D01*
X0341034Y0272636D01*
X0340444Y0272046D01*
X0342804Y0272046D02*
X0342804Y0271456D01*
X0340444Y0269096D01*
X0342804Y0269096D01*
X0332137Y0279452D02*
X0328597Y0279452D01*
X0328597Y0281222D01*
X0329187Y0281812D01*
X0330367Y0281812D01*
X0330957Y0281222D01*
X0330957Y0279452D01*
X0330957Y0280632D02*
X0332137Y0281812D01*
X0331547Y0283077D02*
X0330957Y0283077D01*
X0330367Y0283667D01*
X0330367Y0284847D01*
X0330957Y0285437D01*
X0331547Y0285437D01*
X0332137Y0284847D01*
X0332137Y0283667D01*
X0331547Y0283077D01*
X0330367Y0283667D02*
X0329777Y0283077D01*
X0329187Y0283077D01*
X0328597Y0283667D01*
X0328597Y0284847D01*
X0329187Y0285437D01*
X0329777Y0285437D01*
X0330367Y0284847D01*
X0326101Y0284404D02*
X0326101Y0281600D01*
X0322750Y0281600D02*
X0322750Y0284404D01*
X0322880Y0276642D02*
X0322880Y0273102D01*
X0321700Y0273102D02*
X0324060Y0273102D01*
X0325325Y0273102D02*
X0325325Y0276642D01*
X0326505Y0275462D01*
X0327685Y0276642D01*
X0327685Y0273102D01*
X0322880Y0276642D02*
X0321700Y0275462D01*
X0322750Y0265404D02*
X0322750Y0262600D01*
X0321637Y0262577D02*
X0318097Y0262577D01*
X0319277Y0263757D01*
X0318097Y0264937D01*
X0321637Y0264937D01*
X0321047Y0261312D02*
X0321637Y0260722D01*
X0321637Y0259542D01*
X0321047Y0258952D01*
X0319867Y0260132D02*
X0319867Y0260722D01*
X0320457Y0261312D01*
X0321047Y0261312D01*
X0319867Y0260722D02*
X0319277Y0261312D01*
X0318687Y0261312D01*
X0318097Y0260722D01*
X0318097Y0259542D01*
X0318687Y0258952D01*
X0313150Y0262600D02*
X0313150Y0265404D01*
X0309799Y0265404D02*
X0309799Y0262600D01*
X0306300Y0261097D02*
X0306300Y0259917D01*
X0305710Y0259327D01*
X0304530Y0259327D02*
X0303940Y0260507D01*
X0303940Y0261097D01*
X0304530Y0261687D01*
X0305710Y0261687D01*
X0306300Y0261097D01*
X0304530Y0259327D02*
X0302760Y0259327D01*
X0302760Y0261687D01*
X0301800Y0262042D02*
X0301210Y0261452D01*
X0300620Y0261452D01*
X0300030Y0262042D01*
X0300030Y0263222D01*
X0300620Y0263812D01*
X0301210Y0263812D01*
X0301800Y0263222D01*
X0301800Y0262042D01*
X0300030Y0262042D02*
X0299440Y0261452D01*
X0298850Y0261452D01*
X0298260Y0262042D01*
X0298260Y0263222D01*
X0298850Y0263812D01*
X0299440Y0263812D01*
X0300030Y0263222D01*
X0298260Y0260187D02*
X0301800Y0260187D01*
X0301800Y0257827D02*
X0298260Y0257827D01*
X0299440Y0259007D01*
X0298260Y0260187D01*
X0298260Y0255382D02*
X0301800Y0255382D01*
X0302760Y0255702D02*
X0302760Y0257472D01*
X0303350Y0258062D01*
X0304530Y0258062D01*
X0305120Y0257472D01*
X0305120Y0255702D01*
X0305120Y0256882D02*
X0306300Y0258062D01*
X0306300Y0255702D02*
X0302760Y0255702D01*
X0301800Y0256562D02*
X0301800Y0254202D01*
X0299440Y0254202D02*
X0298260Y0255382D01*
X0305900Y0250642D02*
X0308260Y0250642D01*
X0307080Y0250642D02*
X0307080Y0247102D01*
X0309525Y0247102D02*
X0311885Y0249462D01*
X0311885Y0250052D01*
X0311295Y0250642D01*
X0310115Y0250642D01*
X0309525Y0250052D01*
X0309525Y0247102D02*
X0311885Y0247102D01*
X0327597Y0251452D02*
X0327597Y0253222D01*
X0328187Y0253812D01*
X0329367Y0253812D01*
X0329957Y0253222D01*
X0329957Y0251452D01*
X0329957Y0252632D02*
X0331137Y0253812D01*
X0331137Y0255077D02*
X0330547Y0255077D01*
X0328187Y0257437D01*
X0327597Y0257437D01*
X0327597Y0255077D01*
X0327597Y0251452D02*
X0331137Y0251452D01*
X0333700Y0247187D02*
X0333700Y0244827D01*
X0333700Y0246007D02*
X0330160Y0246007D01*
X0331340Y0244827D01*
X0330160Y0243562D02*
X0330160Y0241202D01*
X0330160Y0242382D02*
X0333700Y0242382D01*
X0324796Y0228642D02*
X0323616Y0228642D01*
X0323026Y0228052D01*
X0321761Y0228052D02*
X0321171Y0228642D01*
X0319991Y0228642D01*
X0319401Y0228052D01*
X0318135Y0228052D02*
X0317545Y0228642D01*
X0316365Y0228642D01*
X0315775Y0228052D01*
X0314510Y0228052D02*
X0314510Y0227462D01*
X0312150Y0225102D01*
X0314510Y0225102D01*
X0315775Y0225102D02*
X0318135Y0227462D01*
X0318135Y0228052D01*
X0318135Y0225102D02*
X0315775Y0225102D01*
X0314510Y0228052D02*
X0313920Y0228642D01*
X0312740Y0228642D01*
X0312150Y0228052D01*
X0310885Y0228642D02*
X0310885Y0225102D01*
X0308525Y0228642D01*
X0308525Y0225102D01*
X0307260Y0225102D02*
X0304900Y0225102D01*
X0307260Y0227462D01*
X0307260Y0228052D01*
X0306670Y0228642D01*
X0305490Y0228642D01*
X0304900Y0228052D01*
X0319401Y0225102D02*
X0321761Y0227462D01*
X0321761Y0228052D01*
X0321761Y0225102D02*
X0319401Y0225102D01*
X0323026Y0225102D02*
X0325386Y0227462D01*
X0325386Y0228052D01*
X0324796Y0228642D01*
X0325386Y0225102D02*
X0323026Y0225102D01*
X0314201Y0213204D02*
X0314201Y0210400D01*
X0310850Y0210400D02*
X0310850Y0213204D01*
X0308647Y0209237D02*
X0309237Y0208647D01*
X0309237Y0207467D01*
X0308647Y0206877D01*
X0306287Y0209237D01*
X0308647Y0209237D01*
X0306287Y0209237D02*
X0305697Y0208647D01*
X0305697Y0207467D01*
X0306287Y0206877D01*
X0308647Y0206877D01*
X0309237Y0205612D02*
X0309237Y0203252D01*
X0309237Y0204432D02*
X0305697Y0204432D01*
X0306877Y0203252D01*
X0306287Y0201987D02*
X0305697Y0201397D01*
X0305697Y0200217D01*
X0306287Y0199627D01*
X0308647Y0199627D01*
X0309237Y0200217D01*
X0309237Y0201397D01*
X0308647Y0201987D01*
X0313197Y0202377D02*
X0313197Y0204737D01*
X0314967Y0203557D02*
X0314967Y0202377D01*
X0314377Y0201112D02*
X0316737Y0201112D01*
X0316737Y0199342D01*
X0316147Y0198752D01*
X0314377Y0198752D01*
X0316737Y0197487D02*
X0316737Y0195127D01*
X0316737Y0196307D02*
X0313197Y0196307D01*
X0314377Y0195127D01*
X0313197Y0202377D02*
X0316737Y0202377D01*
X0333950Y0166805D02*
X0333950Y0163265D01*
X0336310Y0163265D01*
X0337575Y0163265D02*
X0339935Y0163265D01*
X0338755Y0163265D02*
X0338755Y0166805D01*
X0337575Y0165625D01*
X0364570Y0172119D02*
X0364570Y0175659D01*
X0365750Y0174479D01*
X0366930Y0175659D01*
X0366930Y0172119D01*
X0368195Y0172119D02*
X0369965Y0172119D01*
X0370555Y0172709D01*
X0370555Y0173299D01*
X0369965Y0173889D01*
X0368195Y0173889D01*
X0368195Y0172119D02*
X0368195Y0175659D01*
X0369965Y0175659D01*
X0370555Y0175069D01*
X0370555Y0174479D01*
X0369965Y0173889D01*
X0371820Y0173299D02*
X0373590Y0173299D01*
X0374180Y0173889D01*
X0374180Y0175069D01*
X0373590Y0175659D01*
X0371820Y0175659D01*
X0371820Y0172119D01*
X0373000Y0173299D02*
X0374180Y0172119D01*
X0375445Y0172119D02*
X0375445Y0174479D01*
X0376625Y0175659D01*
X0377805Y0174479D01*
X0377805Y0172119D01*
X0379071Y0172709D02*
X0379661Y0172119D01*
X0380841Y0172119D01*
X0381431Y0172709D01*
X0381431Y0173299D01*
X0380841Y0173889D01*
X0380251Y0173889D01*
X0380841Y0173889D02*
X0381431Y0174479D01*
X0381431Y0175069D01*
X0380841Y0175659D01*
X0379661Y0175659D01*
X0379071Y0175069D01*
X0377805Y0173889D02*
X0375445Y0173889D01*
X0382696Y0173889D02*
X0385056Y0173889D01*
X0386321Y0172709D02*
X0386321Y0175069D01*
X0386911Y0175659D01*
X0388091Y0175659D01*
X0388681Y0175069D01*
X0386321Y0172709D01*
X0386911Y0172119D01*
X0388091Y0172119D01*
X0388681Y0172709D01*
X0388681Y0175069D01*
X0384466Y0175659D02*
X0384466Y0172119D01*
X0382696Y0173889D02*
X0384466Y0175659D01*
X0391597Y0198452D02*
X0391597Y0200222D01*
X0392187Y0200812D01*
X0393367Y0200812D01*
X0393957Y0200222D01*
X0393957Y0198452D01*
X0393957Y0199632D02*
X0395137Y0200812D01*
X0394547Y0202077D02*
X0395137Y0202667D01*
X0395137Y0203847D01*
X0394547Y0204437D01*
X0393957Y0204437D01*
X0393367Y0203847D01*
X0393367Y0203257D01*
X0393367Y0203847D02*
X0392777Y0204437D01*
X0392187Y0204437D01*
X0391597Y0203847D01*
X0391597Y0202667D01*
X0392187Y0202077D01*
X0391597Y0198452D02*
X0395137Y0198452D01*
X0386277Y0203701D02*
X0385097Y0204881D01*
X0380200Y0198702D02*
X0376660Y0198702D01*
X0373700Y0205202D02*
X0373700Y0207562D01*
X0373700Y0206382D02*
X0370160Y0206382D01*
X0371340Y0205202D01*
X0370750Y0212452D02*
X0373110Y0212452D01*
X0326101Y0262600D02*
X0326101Y0265404D01*
X0310285Y0273792D02*
X0310285Y0274382D01*
X0309695Y0274972D01*
X0307925Y0274972D01*
X0307925Y0273792D01*
X0308515Y0273202D01*
X0309695Y0273202D01*
X0310285Y0273792D01*
X0309105Y0276152D02*
X0307925Y0274972D01*
X0306660Y0274972D02*
X0306070Y0274382D01*
X0304300Y0274382D01*
X0305480Y0274382D02*
X0306660Y0273202D01*
X0306660Y0274972D02*
X0306660Y0276152D01*
X0306070Y0276742D01*
X0304300Y0276742D01*
X0304300Y0273202D01*
X0309105Y0276152D02*
X0310285Y0276742D01*
X0308637Y0279327D02*
X0306277Y0281687D01*
X0305687Y0281687D01*
X0305097Y0281097D01*
X0305097Y0279917D01*
X0305687Y0279327D01*
X0308637Y0279327D02*
X0308637Y0281687D01*
X0309750Y0281600D02*
X0309750Y0284404D01*
X0308637Y0285312D02*
X0305097Y0285312D01*
X0306277Y0284132D01*
X0305097Y0282952D01*
X0308637Y0282952D01*
X0308637Y0286577D02*
X0306277Y0288937D01*
X0305687Y0288937D01*
X0305097Y0288347D01*
X0305097Y0287167D01*
X0305687Y0286577D01*
X0308637Y0286577D02*
X0308637Y0288937D01*
X0313101Y0284404D02*
X0313101Y0281600D01*
X0307200Y0295702D02*
X0303660Y0295702D01*
X0303660Y0297472D01*
X0304250Y0298062D01*
X0305430Y0298062D01*
X0306020Y0297472D01*
X0306020Y0295702D01*
X0306020Y0296882D02*
X0307200Y0298062D01*
X0305430Y0299327D02*
X0305430Y0301687D01*
X0307200Y0301097D02*
X0303660Y0301097D01*
X0305430Y0299327D01*
X0309699Y0299600D02*
X0309699Y0302404D01*
X0313050Y0302404D02*
X0313050Y0299600D01*
X0312700Y0308202D02*
X0310340Y0310562D01*
X0309750Y0310562D01*
X0309160Y0309972D01*
X0309160Y0308792D01*
X0309750Y0308202D01*
X0312700Y0308202D02*
X0312700Y0310562D01*
X0312700Y0311827D02*
X0309160Y0311827D01*
X0310340Y0313007D01*
X0309160Y0314187D01*
X0312700Y0314187D01*
X0312700Y0315452D02*
X0310340Y0317812D01*
X0309750Y0317812D01*
X0309160Y0317222D01*
X0309160Y0316042D01*
X0309750Y0315452D01*
X0312700Y0315452D02*
X0312700Y0317812D01*
X0210260Y0254302D02*
X0207900Y0254302D01*
X0209080Y0254302D02*
X0209080Y0257842D01*
X0207900Y0256662D01*
X0206635Y0257252D02*
X0206635Y0254892D01*
X0206045Y0254302D01*
X0204865Y0254302D01*
X0204275Y0254892D01*
X0204275Y0257252D01*
X0204865Y0257842D01*
X0206045Y0257842D01*
X0206635Y0257252D01*
X0205455Y0255482D02*
X0206635Y0254302D01*
X0195300Y0249312D02*
X0195300Y0246952D01*
X0192940Y0249312D01*
X0192350Y0249312D01*
X0191760Y0248722D01*
X0191760Y0247542D01*
X0192350Y0246952D01*
X0191760Y0244507D02*
X0195300Y0244507D01*
X0195300Y0243327D02*
X0195300Y0245687D01*
X0192940Y0243327D02*
X0191760Y0244507D01*
X0192350Y0242062D02*
X0193530Y0242062D01*
X0194120Y0241472D01*
X0194120Y0239702D01*
X0194120Y0240882D02*
X0195300Y0242062D01*
X0195300Y0239702D02*
X0191760Y0239702D01*
X0191760Y0241472D01*
X0192350Y0242062D01*
X0189150Y0243600D02*
X0189150Y0246404D01*
X0185799Y0246404D02*
X0185799Y0243600D01*
X0186540Y0252265D02*
X0185950Y0252855D01*
X0188310Y0255215D01*
X0188310Y0252855D01*
X0187720Y0252265D01*
X0186540Y0252265D01*
X0185950Y0252855D02*
X0185950Y0255215D01*
X0186540Y0255805D01*
X0187720Y0255805D01*
X0188310Y0255215D01*
X0189575Y0255805D02*
X0189575Y0252265D01*
X0189575Y0253445D02*
X0191935Y0255805D01*
X0190165Y0254035D02*
X0191935Y0252265D01*
X0184685Y0252265D02*
X0182325Y0252265D01*
X0183505Y0252265D02*
X0183505Y0255805D01*
X0182325Y0254625D01*
X0174810Y0255742D02*
X0172450Y0253382D01*
X0173040Y0253972D02*
X0174810Y0252202D01*
X0172450Y0252202D02*
X0172450Y0255742D01*
X0171185Y0255152D02*
X0168825Y0252792D01*
X0169415Y0252202D01*
X0170595Y0252202D01*
X0171185Y0252792D01*
X0171185Y0255152D01*
X0170595Y0255742D01*
X0169415Y0255742D01*
X0168825Y0255152D01*
X0168825Y0252792D01*
X0167560Y0252202D02*
X0165200Y0252202D01*
X0166380Y0252202D02*
X0166380Y0255742D01*
X0165200Y0254562D01*
X0166850Y0246404D02*
X0166850Y0243600D01*
X0170201Y0243600D02*
X0170201Y0246404D01*
X0172697Y0247667D02*
X0172697Y0248847D01*
X0173287Y0249437D01*
X0175647Y0247077D01*
X0176237Y0247667D01*
X0176237Y0248847D01*
X0175647Y0249437D01*
X0173287Y0249437D01*
X0172697Y0247667D02*
X0173287Y0247077D01*
X0175647Y0247077D01*
X0176237Y0245812D02*
X0176237Y0243452D01*
X0176237Y0244632D02*
X0172697Y0244632D01*
X0173877Y0243452D01*
X0174467Y0242187D02*
X0175057Y0241597D01*
X0175057Y0239827D01*
X0175057Y0241007D02*
X0176237Y0242187D01*
X0174467Y0242187D02*
X0173287Y0242187D01*
X0172697Y0241597D01*
X0172697Y0239827D01*
X0176237Y0239827D01*
X0192200Y0231342D02*
X0192200Y0228392D01*
X0192790Y0227802D01*
X0193970Y0227802D01*
X0194560Y0228392D01*
X0194560Y0231342D01*
X0195825Y0230752D02*
X0196415Y0231342D01*
X0197595Y0231342D01*
X0198185Y0230752D01*
X0198185Y0230162D01*
X0197595Y0229572D01*
X0198185Y0228982D01*
X0198185Y0228392D01*
X0197595Y0227802D01*
X0196415Y0227802D01*
X0195825Y0228392D01*
X0197005Y0229572D02*
X0197595Y0229572D01*
X0199450Y0229572D02*
X0201810Y0229572D01*
X0201220Y0231342D02*
X0199450Y0229572D01*
X0201220Y0227802D02*
X0201220Y0231342D01*
X0201297Y0215637D02*
X0201297Y0213277D01*
X0204837Y0213277D01*
X0204837Y0212012D02*
X0202477Y0212012D01*
X0203067Y0213277D02*
X0203067Y0214457D01*
X0204837Y0212012D02*
X0204837Y0210242D01*
X0204247Y0209652D01*
X0202477Y0209652D01*
X0204837Y0208387D02*
X0204837Y0206027D01*
X0204837Y0207207D02*
X0201297Y0207207D01*
X0202477Y0206027D01*
X0204247Y0204804D02*
X0204837Y0204804D01*
X0204837Y0204214D01*
X0204247Y0204214D01*
X0204247Y0204804D01*
X0204247Y0202949D02*
X0204837Y0202359D01*
X0204837Y0201179D01*
X0204247Y0200589D01*
X0201887Y0202949D01*
X0204247Y0202949D01*
X0201887Y0202949D02*
X0201297Y0202359D01*
X0201297Y0201179D01*
X0201887Y0200589D01*
X0204247Y0200589D01*
X0207950Y0202300D02*
X0207950Y0205104D01*
X0211301Y0205104D02*
X0211301Y0202300D01*
X0213797Y0201777D02*
X0213797Y0204137D01*
X0214387Y0204137D01*
X0216747Y0201777D01*
X0217337Y0201777D01*
X0216747Y0200512D02*
X0217337Y0199922D01*
X0217337Y0198742D01*
X0216747Y0198152D01*
X0214387Y0198152D01*
X0213797Y0198742D01*
X0213797Y0199922D01*
X0214387Y0200512D01*
X0219760Y0200852D02*
X0219760Y0203212D01*
X0221530Y0202032D02*
X0221530Y0200852D01*
X0220940Y0199587D02*
X0223300Y0199587D01*
X0223300Y0197817D01*
X0222710Y0197227D01*
X0220940Y0197227D01*
X0223300Y0195962D02*
X0223300Y0193602D01*
X0223300Y0194782D02*
X0219760Y0194782D01*
X0220940Y0193602D01*
X0220697Y0188437D02*
X0223057Y0186077D01*
X0222467Y0186667D02*
X0224237Y0188437D01*
X0224237Y0186077D02*
X0220697Y0186077D01*
X0221287Y0184812D02*
X0220697Y0184222D01*
X0220697Y0183042D01*
X0221287Y0182452D01*
X0223647Y0182452D01*
X0221287Y0184812D01*
X0223647Y0184812D01*
X0224237Y0184222D01*
X0224237Y0183042D01*
X0223647Y0182452D01*
X0224237Y0181187D02*
X0224237Y0178827D01*
X0224237Y0180007D02*
X0220697Y0180007D01*
X0221877Y0178827D01*
X0227625Y0175705D02*
X0229395Y0175705D01*
X0229985Y0175115D01*
X0229985Y0173935D01*
X0229395Y0173345D01*
X0227625Y0173345D01*
X0228805Y0173345D02*
X0229985Y0172165D01*
X0231250Y0172165D02*
X0233610Y0172165D01*
X0232430Y0172165D02*
X0232430Y0175705D01*
X0231250Y0174525D01*
X0234875Y0173935D02*
X0236055Y0174525D01*
X0236645Y0174525D01*
X0237235Y0173935D01*
X0237235Y0172755D01*
X0236645Y0172165D01*
X0235465Y0172165D01*
X0234875Y0172755D01*
X0234875Y0173935D02*
X0234875Y0175705D01*
X0237235Y0175705D01*
X0231902Y0178301D02*
X0229098Y0178301D01*
X0227625Y0175705D02*
X0227625Y0172165D01*
X0224300Y0170312D02*
X0222530Y0168542D01*
X0223120Y0167952D02*
X0220760Y0170312D01*
X0220760Y0167952D02*
X0224300Y0167952D01*
X0223710Y0166687D02*
X0224300Y0166097D01*
X0224300Y0164917D01*
X0223710Y0164327D01*
X0221350Y0166687D01*
X0223710Y0166687D01*
X0223710Y0164327D02*
X0221350Y0164327D01*
X0220760Y0164917D01*
X0220760Y0166097D01*
X0221350Y0166687D01*
X0224300Y0163062D02*
X0224300Y0160702D01*
X0224300Y0161882D02*
X0220760Y0161882D01*
X0221940Y0160702D01*
X0224200Y0158742D02*
X0225970Y0158742D01*
X0226560Y0158152D01*
X0226560Y0156972D01*
X0225970Y0156382D01*
X0224200Y0156382D01*
X0225380Y0156382D02*
X0226560Y0155202D01*
X0227825Y0155202D02*
X0230185Y0155202D01*
X0229005Y0155202D02*
X0229005Y0158742D01*
X0227825Y0157562D01*
X0231450Y0156972D02*
X0233810Y0156972D01*
X0233220Y0155202D02*
X0233220Y0158742D01*
X0231450Y0156972D01*
X0224200Y0155202D02*
X0224200Y0158742D01*
X0229098Y0162352D02*
X0231902Y0162352D01*
X0231902Y0165703D02*
X0229098Y0165703D01*
X0229098Y0181652D02*
X0231902Y0181652D01*
X0236550Y0194002D02*
X0238910Y0194002D01*
X0239500Y0194592D01*
X0239500Y0195772D01*
X0238910Y0196362D01*
X0239500Y0197627D02*
X0239500Y0199987D01*
X0239500Y0198807D02*
X0235960Y0198807D01*
X0237140Y0197627D01*
X0236550Y0196362D02*
X0235960Y0195772D01*
X0235960Y0194592D01*
X0236550Y0194002D01*
X0230902Y0196252D02*
X0228098Y0196252D01*
X0228098Y0199603D02*
X0230902Y0199603D01*
X0235960Y0201842D02*
X0235960Y0203022D01*
X0236550Y0203612D01*
X0237140Y0203612D01*
X0239500Y0201252D01*
X0239500Y0203612D01*
X0236550Y0201252D02*
X0235960Y0201842D01*
X0223300Y0200852D02*
X0219760Y0200852D01*
X0218924Y0207627D02*
X0221284Y0207627D01*
X0221874Y0208217D01*
X0221874Y0209397D01*
X0221284Y0209987D01*
X0221874Y0211252D02*
X0221874Y0213612D01*
X0221874Y0212432D02*
X0218334Y0212432D01*
X0219514Y0211252D01*
X0218924Y0209987D02*
X0218334Y0209397D01*
X0218334Y0208217D01*
X0218924Y0207627D01*
X0219514Y0214877D02*
X0218334Y0216057D01*
X0221874Y0216057D01*
X0221874Y0214877D02*
X0221874Y0217237D01*
X0235141Y0216985D02*
X0235141Y0218165D01*
X0235731Y0218755D01*
X0238091Y0216395D01*
X0238681Y0216985D01*
X0238681Y0218165D01*
X0238091Y0218755D01*
X0235731Y0218755D01*
X0235731Y0220020D02*
X0235141Y0220610D01*
X0235141Y0221790D01*
X0235731Y0222380D01*
X0238091Y0220020D01*
X0238681Y0220610D01*
X0238681Y0221790D01*
X0238091Y0222380D01*
X0235731Y0222380D01*
X0236321Y0223645D02*
X0238091Y0223645D01*
X0238681Y0224235D01*
X0238681Y0226005D01*
X0236321Y0226005D01*
X0236911Y0227270D02*
X0236911Y0228450D01*
X0235141Y0227270D02*
X0235141Y0229630D01*
X0235141Y0227270D02*
X0238681Y0227270D01*
X0238091Y0220020D02*
X0235731Y0220020D01*
X0235141Y0216985D02*
X0235731Y0216395D01*
X0238091Y0216395D01*
X0238681Y0215130D02*
X0238681Y0212770D01*
X0238681Y0213950D02*
X0235141Y0213950D01*
X0236321Y0212770D01*
X0194400Y0191322D02*
X0194400Y0190142D01*
X0193810Y0189552D01*
X0193220Y0189552D01*
X0192630Y0190142D01*
X0192630Y0191322D01*
X0193220Y0191912D01*
X0193810Y0191912D01*
X0194400Y0191322D01*
X0192630Y0191322D02*
X0192040Y0191912D01*
X0191450Y0191912D01*
X0190860Y0191322D01*
X0190860Y0190142D01*
X0191450Y0189552D01*
X0192040Y0189552D01*
X0192630Y0190142D01*
X0193220Y0188287D02*
X0192630Y0187697D01*
X0192630Y0187107D01*
X0192630Y0187697D02*
X0192040Y0188287D01*
X0191450Y0188287D01*
X0190860Y0187697D01*
X0190860Y0186517D01*
X0191450Y0185927D01*
X0193810Y0185927D02*
X0194400Y0186517D01*
X0194400Y0187697D01*
X0193810Y0188287D01*
X0193220Y0188287D01*
X0194400Y0184662D02*
X0194400Y0182302D01*
X0194400Y0183482D02*
X0190860Y0183482D01*
X0192040Y0182302D01*
X0191450Y0181037D02*
X0190860Y0180447D01*
X0190860Y0179267D01*
X0191450Y0178677D01*
X0192040Y0178677D01*
X0192630Y0179267D01*
X0192630Y0180447D01*
X0193220Y0181037D01*
X0193810Y0181037D01*
X0194400Y0180447D01*
X0194400Y0179267D01*
X0193810Y0178677D01*
X0193810Y0177412D02*
X0194400Y0176822D01*
X0194400Y0175642D01*
X0193810Y0175052D01*
X0193810Y0173787D02*
X0194400Y0173197D01*
X0194400Y0171427D01*
X0190860Y0171427D01*
X0190860Y0173197D01*
X0191450Y0173787D01*
X0192040Y0173787D01*
X0192630Y0173197D01*
X0192630Y0171427D01*
X0192630Y0173197D02*
X0193220Y0173787D01*
X0193810Y0173787D01*
X0192040Y0175052D02*
X0192630Y0175642D01*
X0192630Y0176822D01*
X0193220Y0177412D01*
X0193810Y0177412D01*
X0191450Y0177412D02*
X0190860Y0176822D01*
X0190860Y0175642D01*
X0191450Y0175052D01*
X0192040Y0175052D01*
X0181685Y0175452D02*
X0181685Y0173092D01*
X0181095Y0172502D01*
X0179915Y0172502D01*
X0179325Y0173092D01*
X0179915Y0174272D02*
X0181685Y0174272D01*
X0181685Y0175452D02*
X0181095Y0176042D01*
X0179915Y0176042D01*
X0179325Y0175452D01*
X0179325Y0174862D01*
X0179915Y0174272D01*
X0178060Y0174272D02*
X0177470Y0173682D01*
X0175700Y0173682D01*
X0176880Y0173682D02*
X0178060Y0172502D01*
X0178060Y0174272D02*
X0178060Y0175452D01*
X0177470Y0176042D01*
X0175700Y0176042D01*
X0175700Y0172502D01*
X0169800Y0175592D02*
X0169210Y0175002D01*
X0169800Y0175592D02*
X0169800Y0176772D01*
X0169210Y0177362D01*
X0168620Y0177362D01*
X0168030Y0176772D01*
X0168030Y0176182D01*
X0168030Y0176772D02*
X0167440Y0177362D01*
X0166850Y0177362D01*
X0166260Y0176772D01*
X0166260Y0175592D01*
X0166850Y0175002D01*
X0166850Y0178627D02*
X0166260Y0179217D01*
X0166260Y0180397D01*
X0166850Y0180987D01*
X0167440Y0180987D01*
X0168030Y0180397D01*
X0168620Y0180987D01*
X0169210Y0180987D01*
X0169800Y0180397D01*
X0169800Y0179217D01*
X0169210Y0178627D01*
X0168030Y0179807D02*
X0168030Y0180397D01*
X0169210Y0182252D02*
X0166850Y0184612D01*
X0169210Y0184612D01*
X0169800Y0184022D01*
X0169800Y0182842D01*
X0169210Y0182252D01*
X0166850Y0182252D01*
X0166260Y0182842D01*
X0166260Y0184022D01*
X0166850Y0184612D01*
X0174598Y0182003D02*
X0177402Y0182003D01*
X0177402Y0178652D02*
X0174598Y0178652D01*
X0154810Y0175152D02*
X0154810Y0174562D01*
X0154220Y0173972D01*
X0153040Y0173972D01*
X0152450Y0174562D01*
X0152450Y0175152D01*
X0153040Y0175742D01*
X0154220Y0175742D01*
X0154810Y0175152D01*
X0154220Y0173972D02*
X0154810Y0173382D01*
X0154810Y0172792D01*
X0154220Y0172202D01*
X0153040Y0172202D01*
X0152450Y0172792D01*
X0152450Y0173382D01*
X0153040Y0173972D01*
X0151185Y0172202D02*
X0148825Y0172202D01*
X0150005Y0172202D02*
X0150005Y0175742D01*
X0148825Y0174562D01*
X0147560Y0175152D02*
X0147560Y0173972D01*
X0146970Y0173382D01*
X0145200Y0173382D01*
X0146380Y0173382D02*
X0147560Y0172202D01*
X0145200Y0172202D02*
X0145200Y0175742D01*
X0146970Y0175742D01*
X0147560Y0175152D01*
X0147098Y0178352D02*
X0149902Y0178352D01*
X0149902Y0181703D02*
X0147098Y0181703D01*
X0142300Y0181952D02*
X0138760Y0181952D01*
X0139350Y0180687D02*
X0141710Y0178327D01*
X0142300Y0178917D01*
X0142300Y0180097D01*
X0141710Y0180687D01*
X0139350Y0180687D01*
X0138760Y0180097D01*
X0138760Y0178917D01*
X0139350Y0178327D01*
X0141710Y0178327D01*
X0142300Y0177062D02*
X0142300Y0174702D01*
X0142300Y0175882D02*
X0138760Y0175882D01*
X0139940Y0174702D01*
X0141120Y0181952D02*
X0138760Y0184312D01*
X0140530Y0182542D02*
X0142300Y0184312D01*
X0134435Y0188765D02*
X0132075Y0188765D01*
X0133255Y0188765D02*
X0133255Y0192305D01*
X0132075Y0191125D01*
X0130810Y0188765D02*
X0128450Y0188765D01*
X0129630Y0188765D02*
X0129630Y0192305D01*
X0128450Y0191125D01*
X0127185Y0191715D02*
X0127185Y0190535D01*
X0126595Y0189945D01*
X0124825Y0189945D01*
X0126005Y0189945D02*
X0127185Y0188765D01*
X0124825Y0188765D02*
X0124825Y0192305D01*
X0126595Y0192305D01*
X0127185Y0191715D01*
X0127300Y0195139D02*
X0127300Y0197499D01*
X0127300Y0196319D02*
X0123760Y0196319D01*
X0124940Y0195139D01*
X0125530Y0198764D02*
X0125530Y0200534D01*
X0126120Y0201124D01*
X0126710Y0201124D01*
X0127300Y0200534D01*
X0127300Y0199354D01*
X0126710Y0198764D01*
X0125530Y0198764D01*
X0124350Y0199944D01*
X0123760Y0201124D01*
X0123760Y0202389D02*
X0124940Y0203569D01*
X0123760Y0204749D01*
X0127300Y0204749D01*
X0127300Y0206015D02*
X0123760Y0206015D01*
X0125530Y0206015D02*
X0125530Y0208375D01*
X0124940Y0209640D02*
X0124940Y0212000D01*
X0127300Y0209640D01*
X0127300Y0212000D01*
X0129697Y0210382D02*
X0133237Y0210382D01*
X0133237Y0209202D02*
X0133237Y0211562D01*
X0130877Y0209202D02*
X0129697Y0210382D01*
X0129697Y0207937D02*
X0130287Y0207937D01*
X0131467Y0206757D01*
X0133237Y0206757D01*
X0131467Y0206757D02*
X0130287Y0205577D01*
X0129697Y0205577D01*
X0127300Y0208375D02*
X0123760Y0208375D01*
X0123760Y0202389D02*
X0127300Y0202389D01*
X0146799Y0202600D02*
X0146799Y0205404D01*
X0150150Y0205404D02*
X0150150Y0202600D01*
X0151260Y0201382D02*
X0154800Y0201382D01*
X0154800Y0200202D02*
X0154800Y0202562D01*
X0154800Y0203827D02*
X0151260Y0203827D01*
X0152440Y0205007D01*
X0151260Y0206187D01*
X0154800Y0206187D01*
X0151260Y0201382D02*
X0152440Y0200202D01*
X0149801Y0217000D02*
X0149801Y0219804D01*
X0152297Y0221442D02*
X0152887Y0220852D01*
X0155247Y0220852D01*
X0155837Y0221442D01*
X0155837Y0222622D01*
X0155247Y0223212D01*
X0155247Y0224477D02*
X0154657Y0224477D01*
X0154067Y0225067D01*
X0154067Y0226247D01*
X0154657Y0226837D01*
X0155247Y0226837D01*
X0155837Y0226247D01*
X0155837Y0225067D01*
X0155247Y0224477D01*
X0154067Y0225067D02*
X0153477Y0224477D01*
X0152887Y0224477D01*
X0152297Y0225067D01*
X0152297Y0226247D01*
X0152887Y0226837D01*
X0153477Y0226837D01*
X0154067Y0226247D01*
X0152887Y0223212D02*
X0152297Y0222622D01*
X0152297Y0221442D01*
X0146450Y0219804D02*
X0146450Y0217000D01*
X0138337Y0217059D02*
X0138337Y0215879D01*
X0137747Y0215289D01*
X0135387Y0217649D01*
X0137747Y0217649D01*
X0138337Y0217059D01*
X0138337Y0218914D02*
X0138337Y0219504D01*
X0137747Y0219504D01*
X0137747Y0218914D01*
X0138337Y0218914D01*
X0138337Y0220727D02*
X0138337Y0223087D01*
X0138337Y0221907D02*
X0134797Y0221907D01*
X0135977Y0220727D01*
X0135387Y0217649D02*
X0134797Y0217059D01*
X0134797Y0215879D01*
X0135387Y0215289D01*
X0137747Y0215289D01*
X0137747Y0224352D02*
X0138337Y0224942D01*
X0138337Y0226712D01*
X0135977Y0226712D01*
X0136567Y0227977D02*
X0136567Y0229157D01*
X0134797Y0227977D02*
X0134797Y0230337D01*
X0134797Y0227977D02*
X0138337Y0227977D01*
X0137747Y0224352D02*
X0135977Y0224352D01*
X0138850Y0239202D02*
X0138260Y0239792D01*
X0138260Y0240972D01*
X0138850Y0241562D01*
X0141210Y0239202D01*
X0141800Y0239792D01*
X0141800Y0240972D01*
X0141210Y0241562D01*
X0138850Y0241562D01*
X0138850Y0239202D02*
X0141210Y0239202D01*
X0141210Y0242827D02*
X0141210Y0243417D01*
X0141800Y0243417D01*
X0141800Y0242827D01*
X0141210Y0242827D01*
X0141800Y0244640D02*
X0141800Y0247000D01*
X0141800Y0245820D02*
X0138260Y0245820D01*
X0139440Y0244640D01*
X0139440Y0248265D02*
X0141210Y0248265D01*
X0141800Y0248855D01*
X0141800Y0250625D01*
X0139440Y0250625D01*
X0140030Y0251890D02*
X0140030Y0253070D01*
X0138260Y0251890D02*
X0138260Y0254250D01*
X0138260Y0251890D02*
X0141800Y0251890D01*
X0144799Y0246404D02*
X0144799Y0243600D01*
X0148150Y0243600D02*
X0148150Y0246404D01*
X0150760Y0245097D02*
X0150760Y0243917D01*
X0151350Y0243327D01*
X0151940Y0243327D01*
X0152530Y0243917D01*
X0152530Y0245687D01*
X0153710Y0245687D02*
X0151350Y0245687D01*
X0150760Y0245097D01*
X0153710Y0245687D02*
X0154300Y0245097D01*
X0154300Y0243917D01*
X0153710Y0243327D01*
X0153710Y0242062D02*
X0154300Y0241472D01*
X0154300Y0240292D01*
X0153710Y0239702D01*
X0151350Y0239702D01*
X0150760Y0240292D01*
X0150760Y0241472D01*
X0151350Y0242062D01*
X0169364Y0265365D02*
X0168774Y0265955D01*
X0169364Y0265365D02*
X0170544Y0265365D01*
X0171134Y0265955D01*
X0171134Y0266545D01*
X0170544Y0267135D01*
X0169364Y0267135D01*
X0168774Y0267725D01*
X0168774Y0268315D01*
X0169364Y0268905D01*
X0170544Y0268905D01*
X0171134Y0268315D01*
X0172399Y0268905D02*
X0174759Y0268905D01*
X0173579Y0268905D02*
X0173579Y0265365D01*
X0176025Y0265365D02*
X0176025Y0268905D01*
X0177795Y0268905D01*
X0178385Y0268315D01*
X0178385Y0267135D01*
X0177795Y0266545D01*
X0176025Y0266545D01*
X0177205Y0266545D02*
X0178385Y0265365D01*
X0179650Y0265365D02*
X0182010Y0267725D01*
X0182010Y0268315D01*
X0181420Y0268905D01*
X0180240Y0268905D01*
X0179650Y0268315D01*
X0179650Y0265365D02*
X0182010Y0265365D01*
X0183275Y0265365D02*
X0183275Y0268905D01*
X0185045Y0268905D01*
X0185635Y0268315D01*
X0185635Y0267135D01*
X0185045Y0266545D01*
X0183275Y0266545D01*
X0186900Y0265955D02*
X0187490Y0265365D01*
X0188670Y0265365D01*
X0189260Y0265955D01*
X0189260Y0266545D01*
X0188670Y0267135D01*
X0188080Y0267135D01*
X0188670Y0267135D02*
X0189260Y0267725D01*
X0189260Y0268315D01*
X0188670Y0268905D01*
X0187490Y0268905D01*
X0186900Y0268315D01*
X0190525Y0268905D02*
X0190525Y0265365D01*
X0192885Y0265365D01*
X0194150Y0265365D02*
X0196510Y0265365D01*
X0197775Y0265365D02*
X0197775Y0268905D01*
X0197775Y0267135D02*
X0200135Y0267135D01*
X0201400Y0267135D02*
X0203170Y0267135D01*
X0203761Y0266545D01*
X0203761Y0265955D01*
X0203170Y0265365D01*
X0201990Y0265365D01*
X0201400Y0265955D01*
X0201400Y0267135D01*
X0202580Y0268315D01*
X0203761Y0268905D01*
X0200135Y0268905D02*
X0200135Y0265365D01*
X0194150Y0265365D02*
X0194150Y0268905D01*
X0204765Y0172905D02*
X0204175Y0172315D01*
X0204175Y0169955D01*
X0204765Y0169365D01*
X0205945Y0169365D01*
X0206535Y0169955D01*
X0206535Y0172315D01*
X0205945Y0172905D01*
X0204765Y0172905D01*
X0205355Y0170545D02*
X0206535Y0169365D01*
X0207800Y0171135D02*
X0210160Y0171135D01*
X0209570Y0169365D02*
X0209570Y0172905D01*
X0207800Y0171135D01*
X0207615Y0160542D02*
X0208795Y0160542D01*
X0209385Y0159952D01*
X0209385Y0159362D01*
X0208795Y0158772D01*
X0209385Y0158182D01*
X0209385Y0157592D01*
X0208795Y0157002D01*
X0207615Y0157002D01*
X0207025Y0157592D01*
X0205760Y0157002D02*
X0203400Y0157002D01*
X0204580Y0157002D02*
X0204580Y0160542D01*
X0203400Y0159362D01*
X0202135Y0159952D02*
X0201545Y0160542D01*
X0200365Y0160542D01*
X0199775Y0159952D01*
X0199775Y0159362D01*
X0200365Y0158772D01*
X0201545Y0158772D01*
X0202135Y0158182D01*
X0202135Y0157592D01*
X0201545Y0157002D01*
X0200365Y0157002D01*
X0199775Y0157592D01*
X0198510Y0157592D02*
X0197920Y0157002D01*
X0196740Y0157002D01*
X0196150Y0157592D01*
X0194885Y0157592D02*
X0194295Y0157002D01*
X0192525Y0157002D01*
X0192525Y0160542D01*
X0194295Y0160542D01*
X0194885Y0159952D01*
X0194885Y0159362D01*
X0194295Y0158772D01*
X0192525Y0158772D01*
X0194295Y0158772D02*
X0194885Y0158182D01*
X0194885Y0157592D01*
X0196150Y0159362D02*
X0196740Y0158772D01*
X0197920Y0158772D01*
X0198510Y0158182D01*
X0198510Y0157592D01*
X0198510Y0159952D02*
X0197920Y0160542D01*
X0196740Y0160542D01*
X0196150Y0159952D01*
X0196150Y0159362D01*
X0207025Y0159952D02*
X0207615Y0160542D01*
X0208205Y0158772D02*
X0208795Y0158772D01*
X0210650Y0159362D02*
X0210650Y0159952D01*
X0211240Y0160542D01*
X0212420Y0160542D01*
X0213010Y0159952D01*
X0213010Y0159362D01*
X0212420Y0158772D01*
X0211240Y0158772D01*
X0210650Y0159362D01*
X0211240Y0158772D02*
X0210650Y0158182D01*
X0210650Y0157592D01*
X0211240Y0157002D01*
X0212420Y0157002D01*
X0213010Y0157592D01*
X0213010Y0158182D01*
X0212420Y0158772D01*
X0209470Y0142805D02*
X0210060Y0142215D01*
X0210060Y0141625D01*
X0209470Y0141035D01*
X0210060Y0140445D01*
X0210060Y0139855D01*
X0209470Y0139265D01*
X0208290Y0139265D01*
X0207700Y0139855D01*
X0206435Y0139855D02*
X0205845Y0139265D01*
X0204665Y0139265D01*
X0204075Y0139855D01*
X0204075Y0142215D01*
X0204665Y0142805D01*
X0205845Y0142805D01*
X0206435Y0142215D01*
X0206435Y0139855D01*
X0206435Y0139265D02*
X0205255Y0140445D01*
X0207700Y0142215D02*
X0208290Y0142805D01*
X0209470Y0142805D01*
X0209470Y0141035D02*
X0208880Y0141035D01*
X0197937Y0137422D02*
X0197937Y0136242D01*
X0197347Y0135652D01*
X0196757Y0135652D01*
X0196167Y0136242D01*
X0196167Y0137422D01*
X0196757Y0138012D01*
X0197347Y0138012D01*
X0197937Y0137422D01*
X0196167Y0137422D02*
X0195577Y0138012D01*
X0194987Y0138012D01*
X0194397Y0137422D01*
X0194397Y0136242D01*
X0194987Y0135652D01*
X0195577Y0135652D01*
X0196167Y0136242D01*
X0196757Y0134387D02*
X0197347Y0134387D01*
X0197937Y0133797D01*
X0197937Y0132617D01*
X0197347Y0132027D01*
X0197937Y0130762D02*
X0197937Y0128402D01*
X0197937Y0129582D02*
X0194397Y0129582D01*
X0195577Y0128402D01*
X0194987Y0127137D02*
X0194397Y0126547D01*
X0194397Y0125367D01*
X0194987Y0124777D01*
X0195577Y0124777D01*
X0196167Y0125367D01*
X0196167Y0126547D01*
X0196757Y0127137D01*
X0197347Y0127137D01*
X0197937Y0126547D01*
X0197937Y0125367D01*
X0197347Y0124777D01*
X0197347Y0123512D02*
X0197937Y0122922D01*
X0197937Y0121742D01*
X0197347Y0121152D01*
X0197347Y0119887D02*
X0197937Y0119297D01*
X0197937Y0117527D01*
X0194397Y0117527D01*
X0194397Y0119297D01*
X0194987Y0119887D01*
X0195577Y0119887D01*
X0196167Y0119297D01*
X0196167Y0117527D01*
X0196167Y0119297D02*
X0196757Y0119887D01*
X0197347Y0119887D01*
X0195577Y0121152D02*
X0196167Y0121742D01*
X0196167Y0122922D01*
X0196757Y0123512D01*
X0197347Y0123512D01*
X0194987Y0123512D02*
X0194397Y0122922D01*
X0194397Y0121742D01*
X0194987Y0121152D01*
X0195577Y0121152D01*
X0194987Y0132027D02*
X0194397Y0132617D01*
X0194397Y0133797D01*
X0194987Y0134387D01*
X0195577Y0134387D01*
X0196167Y0133797D01*
X0196757Y0134387D01*
X0196167Y0133797D02*
X0196167Y0133207D01*
X0183810Y0141152D02*
X0181450Y0138792D01*
X0181450Y0138202D01*
X0180185Y0138202D02*
X0177825Y0138202D01*
X0179005Y0138202D02*
X0179005Y0141742D01*
X0177825Y0140562D01*
X0176560Y0141152D02*
X0176560Y0139972D01*
X0175970Y0139382D01*
X0174200Y0139382D01*
X0175380Y0139382D02*
X0176560Y0138202D01*
X0174200Y0138202D02*
X0174200Y0141742D01*
X0175970Y0141742D01*
X0176560Y0141152D01*
X0181450Y0141742D02*
X0183810Y0141742D01*
X0183810Y0141152D01*
X0178902Y0135703D02*
X0176098Y0135703D01*
X0176098Y0132352D02*
X0178902Y0132352D01*
X0171300Y0131882D02*
X0167760Y0131882D01*
X0168940Y0130702D01*
X0171300Y0130702D02*
X0171300Y0133062D01*
X0170710Y0134327D02*
X0171300Y0134917D01*
X0171300Y0136097D01*
X0170710Y0136687D01*
X0168350Y0136687D01*
X0170710Y0134327D01*
X0168350Y0134327D01*
X0167760Y0134917D01*
X0167760Y0136097D01*
X0168350Y0136687D01*
X0167760Y0137952D02*
X0171300Y0137952D01*
X0170120Y0137952D02*
X0167760Y0140312D01*
X0169530Y0138542D02*
X0171300Y0140312D01*
X0171300Y0113312D02*
X0169530Y0111542D01*
X0170120Y0110952D02*
X0167760Y0113312D01*
X0167760Y0110952D02*
X0171300Y0110952D01*
X0170710Y0109687D02*
X0171300Y0109097D01*
X0171300Y0107917D01*
X0170710Y0107327D01*
X0168350Y0109687D01*
X0170710Y0109687D01*
X0170710Y0107327D02*
X0168350Y0107327D01*
X0167760Y0107917D01*
X0167760Y0109097D01*
X0168350Y0109687D01*
X0171300Y0106062D02*
X0171300Y0103702D01*
X0171300Y0104882D02*
X0167760Y0104882D01*
X0168940Y0103702D01*
X0173200Y0103742D02*
X0173200Y0100202D01*
X0173200Y0101382D02*
X0174970Y0101382D01*
X0175560Y0101972D01*
X0175560Y0103152D01*
X0174970Y0103742D01*
X0173200Y0103742D01*
X0174380Y0101382D02*
X0175560Y0100202D01*
X0176825Y0100202D02*
X0179185Y0100202D01*
X0178005Y0100202D02*
X0178005Y0103742D01*
X0176825Y0102562D01*
X0180450Y0101972D02*
X0182220Y0101972D01*
X0182810Y0101382D01*
X0182810Y0100792D01*
X0182220Y0100202D01*
X0181040Y0100202D01*
X0180450Y0100792D01*
X0180450Y0101972D01*
X0181630Y0103152D01*
X0182810Y0103742D01*
X0178902Y0106352D02*
X0176098Y0106352D01*
X0176098Y0109703D02*
X0178902Y0109703D01*
X0207775Y0118055D02*
X0208365Y0117465D01*
X0209545Y0117465D01*
X0210135Y0118055D01*
X0210135Y0120415D01*
X0209545Y0121005D01*
X0208365Y0121005D01*
X0207775Y0120415D01*
X0207775Y0118055D01*
X0208955Y0118645D02*
X0210135Y0117465D01*
X0211400Y0117465D02*
X0213760Y0119825D01*
X0213760Y0120415D01*
X0213170Y0121005D01*
X0211990Y0121005D01*
X0211400Y0120415D01*
X0211400Y0117465D02*
X0213760Y0117465D01*
X0221660Y0118482D02*
X0225200Y0118482D01*
X0225200Y0117302D02*
X0225200Y0119662D01*
X0224610Y0120927D02*
X0225200Y0121517D01*
X0225200Y0123287D01*
X0222840Y0123287D01*
X0223430Y0124552D02*
X0223430Y0125732D01*
X0225200Y0124552D02*
X0221660Y0124552D01*
X0221660Y0126912D01*
X0225700Y0128102D02*
X0225700Y0131642D01*
X0227470Y0131642D01*
X0228060Y0131052D01*
X0228060Y0129872D01*
X0227470Y0129282D01*
X0225700Y0129282D01*
X0226880Y0129282D02*
X0228060Y0128102D01*
X0229325Y0128102D02*
X0231685Y0128102D01*
X0230505Y0128102D02*
X0230505Y0131642D01*
X0229325Y0130462D01*
X0232950Y0131052D02*
X0233540Y0131642D01*
X0234720Y0131642D01*
X0235310Y0131052D01*
X0235310Y0130462D01*
X0234720Y0129872D01*
X0235310Y0129282D01*
X0235310Y0128692D01*
X0234720Y0128102D01*
X0233540Y0128102D01*
X0232950Y0128692D01*
X0234130Y0129872D02*
X0234720Y0129872D01*
X0232902Y0134352D02*
X0230098Y0134352D01*
X0230098Y0137703D02*
X0232902Y0137703D01*
X0225200Y0137697D02*
X0225200Y0136517D01*
X0224610Y0135927D01*
X0222250Y0138287D01*
X0224610Y0138287D01*
X0225200Y0137697D01*
X0225200Y0139552D02*
X0221660Y0139552D01*
X0222250Y0138287D02*
X0221660Y0137697D01*
X0221660Y0136517D01*
X0222250Y0135927D01*
X0224610Y0135927D01*
X0225200Y0134662D02*
X0225200Y0132302D01*
X0225200Y0133482D02*
X0221660Y0133482D01*
X0222840Y0132302D01*
X0224020Y0139552D02*
X0221660Y0141912D01*
X0223430Y0140142D02*
X0225200Y0141912D01*
X0230098Y0122703D02*
X0232902Y0122703D01*
X0232902Y0119352D02*
X0230098Y0119352D01*
X0231790Y0116742D02*
X0231200Y0116152D01*
X0231200Y0113792D01*
X0231790Y0113202D01*
X0232970Y0113202D01*
X0233560Y0113792D01*
X0234825Y0113792D02*
X0235415Y0113202D01*
X0236595Y0113202D01*
X0237185Y0113792D01*
X0237185Y0114972D01*
X0236595Y0115562D01*
X0236005Y0115562D01*
X0234825Y0114972D01*
X0234825Y0116742D01*
X0237185Y0116742D01*
X0233560Y0116152D02*
X0232970Y0116742D01*
X0231790Y0116742D01*
X0224610Y0120927D02*
X0222840Y0120927D01*
X0221660Y0118482D02*
X0222840Y0117302D01*
X0221797Y0109937D02*
X0221797Y0107577D01*
X0225337Y0107577D01*
X0225337Y0106312D02*
X0222977Y0106312D01*
X0223567Y0107577D02*
X0223567Y0108757D01*
X0225337Y0106312D02*
X0225337Y0104542D01*
X0224747Y0103952D01*
X0222977Y0103952D01*
X0225337Y0102687D02*
X0225337Y0100327D01*
X0225337Y0101507D02*
X0221797Y0101507D01*
X0222977Y0100327D01*
X0230098Y0102301D02*
X0232902Y0102301D01*
X0232720Y0099805D02*
X0231540Y0099805D01*
X0230950Y0099215D01*
X0230950Y0096855D01*
X0231540Y0096265D01*
X0232720Y0096265D01*
X0233310Y0096855D01*
X0234575Y0096265D02*
X0236935Y0098625D01*
X0236935Y0099215D01*
X0236345Y0099805D01*
X0235165Y0099805D01*
X0234575Y0099215D01*
X0233310Y0099215D02*
X0232720Y0099805D01*
X0234575Y0096265D02*
X0236935Y0096265D01*
X0232902Y0105652D02*
X0230098Y0105652D01*
X0230048Y0058059D02*
X0231230Y0056881D01*
X0231234Y0054521D01*
X0232499Y0054523D02*
X0232493Y0058063D01*
X0231231Y0056291D02*
X0228871Y0056287D01*
X0228870Y0056877D02*
X0230048Y0058059D01*
X0228870Y0056877D02*
X0228874Y0054517D01*
X0227638Y0054515D02*
X0226458Y0054513D01*
X0227048Y0054514D02*
X0227041Y0058054D01*
X0226451Y0058053D02*
X0227631Y0058055D01*
X0225187Y0057460D02*
X0225189Y0056280D01*
X0224600Y0055689D01*
X0222830Y0055686D01*
X0222832Y0054506D02*
X0222826Y0058046D01*
X0224596Y0058049D01*
X0225187Y0057460D01*
X0224010Y0055688D02*
X0225192Y0054510D01*
X0221567Y0054504D02*
X0219207Y0054500D01*
X0219201Y0058040D01*
X0221561Y0058044D01*
X0220384Y0056272D02*
X0219204Y0056270D01*
X0217940Y0055678D02*
X0217941Y0055088D01*
X0217352Y0054497D01*
X0216172Y0054495D01*
X0215581Y0055084D01*
X0216169Y0056265D02*
X0217349Y0056267D01*
X0217940Y0055678D01*
X0217937Y0057448D02*
X0217346Y0058037D01*
X0216166Y0058035D01*
X0215577Y0057444D01*
X0215578Y0056854D01*
X0216169Y0056265D01*
X0232499Y0054523D02*
X0234859Y0054527D01*
X0311422Y0113201D02*
X0314962Y0113201D01*
X0314962Y0112021D02*
X0314962Y0114381D01*
X0314372Y0115646D02*
X0312012Y0118006D01*
X0314372Y0118006D01*
X0314962Y0117416D01*
X0314962Y0116236D01*
X0314372Y0115646D01*
X0312012Y0115646D01*
X0311422Y0116236D01*
X0311422Y0117416D01*
X0312012Y0118006D01*
X0312012Y0119271D02*
X0311422Y0119861D01*
X0311422Y0121041D01*
X0312012Y0121631D01*
X0314372Y0119271D01*
X0314962Y0119861D01*
X0314962Y0121041D01*
X0314372Y0121631D01*
X0312012Y0121631D01*
X0312012Y0122897D02*
X0311422Y0123487D01*
X0311422Y0124667D01*
X0312012Y0125257D01*
X0314372Y0122897D01*
X0314962Y0123487D01*
X0314962Y0124667D01*
X0314372Y0125257D01*
X0312012Y0125257D01*
X0312602Y0126522D02*
X0314372Y0126522D01*
X0314962Y0127112D01*
X0314962Y0128882D01*
X0312602Y0128882D01*
X0313192Y0130147D02*
X0313192Y0131327D01*
X0311422Y0130147D02*
X0311422Y0132507D01*
X0311422Y0130147D02*
X0314962Y0130147D01*
X0317032Y0132785D02*
X0333568Y0132785D01*
X0333568Y0105619D01*
X0317032Y0105619D01*
X0317032Y0132785D01*
X0314372Y0122897D02*
X0312012Y0122897D01*
X0312012Y0119271D02*
X0314372Y0119271D01*
X0311422Y0113201D02*
X0312602Y0112021D01*
X0334552Y0126112D02*
X0335142Y0125522D01*
X0337502Y0125522D01*
X0338092Y0126112D01*
X0338092Y0127292D01*
X0337502Y0127882D01*
X0337502Y0129147D02*
X0336322Y0129147D01*
X0336322Y0130917D01*
X0336912Y0131507D01*
X0337502Y0131507D01*
X0338092Y0130917D01*
X0338092Y0129737D01*
X0337502Y0129147D01*
X0336322Y0129147D02*
X0335142Y0130327D01*
X0334552Y0131507D01*
X0335142Y0127882D02*
X0334552Y0127292D01*
X0334552Y0126112D01*
X0347114Y0127852D02*
X0348884Y0126082D01*
X0348884Y0128442D01*
X0350064Y0129707D02*
X0347704Y0129707D01*
X0347114Y0130297D01*
X0347114Y0131477D01*
X0347704Y0132067D01*
X0350064Y0129707D01*
X0350654Y0130297D01*
X0350654Y0131477D01*
X0350064Y0132067D01*
X0347704Y0132067D01*
X0347114Y0127852D02*
X0350654Y0127852D01*
X0350064Y0124816D02*
X0350654Y0124226D01*
X0350654Y0123046D01*
X0350064Y0122456D01*
X0350654Y0121191D02*
X0348294Y0121191D01*
X0347114Y0120011D01*
X0348294Y0118831D01*
X0350654Y0118831D01*
X0350654Y0117566D02*
X0349474Y0116386D01*
X0349474Y0116976D02*
X0349474Y0115206D01*
X0350654Y0115206D02*
X0347114Y0115206D01*
X0347114Y0116976D01*
X0347704Y0117566D01*
X0348884Y0117566D01*
X0349474Y0116976D01*
X0348884Y0118831D02*
X0348884Y0121191D01*
X0347704Y0122456D02*
X0347114Y0123046D01*
X0347114Y0124226D01*
X0347704Y0124816D01*
X0348294Y0124816D01*
X0348884Y0124226D01*
X0349474Y0124816D01*
X0350064Y0124816D01*
X0348884Y0124226D02*
X0348884Y0123636D01*
X0348294Y0113941D02*
X0347704Y0113941D01*
X0347114Y0113351D01*
X0347114Y0111581D01*
X0350654Y0111581D01*
X0350654Y0113351D01*
X0350064Y0113941D01*
X0349474Y0113941D01*
X0348884Y0113351D01*
X0348884Y0111581D01*
X0348884Y0113351D02*
X0348294Y0113941D01*
X0347114Y0110316D02*
X0350654Y0110316D01*
X0350654Y0107956D02*
X0347114Y0107956D01*
X0348294Y0109136D01*
X0347114Y0110316D01*
X0367886Y0110048D02*
X0367886Y0108278D01*
X0371426Y0108278D01*
X0371426Y0110048D01*
X0370836Y0110638D01*
X0368476Y0110638D01*
X0367886Y0110048D01*
X0369066Y0111904D02*
X0367886Y0113084D01*
X0371426Y0113084D01*
X0371426Y0111904D02*
X0371426Y0114264D01*
X0326794Y0057860D02*
X0325024Y0057869D01*
X0325005Y0054329D01*
X0325011Y0055509D02*
X0326781Y0055500D01*
X0327375Y0056087D01*
X0327381Y0057267D01*
X0326794Y0057860D01*
X0323756Y0057286D02*
X0323169Y0057879D01*
X0321989Y0057885D01*
X0321396Y0057298D01*
X0321393Y0056708D01*
X0321979Y0056115D01*
X0323159Y0056109D01*
X0323746Y0055516D01*
X0323743Y0054926D01*
X0323150Y0054339D01*
X0321970Y0054345D01*
X0321383Y0054938D01*
X0320118Y0054945D02*
X0319525Y0054358D01*
X0318345Y0054364D01*
X0317758Y0054957D01*
X0317771Y0057317D01*
X0318364Y0057904D01*
X0319544Y0057898D01*
X0320131Y0057305D01*
X0316537Y0057913D02*
X0315357Y0057920D01*
X0315947Y0057916D02*
X0315928Y0054377D01*
X0315338Y0054380D02*
X0316518Y0054373D01*
D15*
X0343790Y0213002D02*
X0344010Y0213002D01*
D16*
X0343920Y0210718D03*
X0343920Y0215318D03*
X0362420Y0214318D03*
X0362420Y0209718D03*
X0378380Y0209686D03*
X0378380Y0214286D03*
X0393420Y0214318D03*
X0393420Y0209718D03*
X0324420Y0261718D03*
X0324420Y0266318D03*
X0311480Y0266286D03*
X0311480Y0261686D03*
X0311420Y0280718D03*
X0311420Y0285318D03*
X0324420Y0285318D03*
X0324420Y0280718D03*
X0311380Y0298686D03*
X0311380Y0303286D03*
X0312520Y0214118D03*
X0312520Y0209518D03*
X0209620Y0206018D03*
X0209620Y0201418D03*
X0187480Y0242686D03*
X0187480Y0247286D03*
X0168520Y0247318D03*
X0168520Y0242718D03*
X0146480Y0242686D03*
X0146480Y0247286D03*
X0148120Y0220718D03*
X0148120Y0216118D03*
X0148480Y0206286D03*
X0148480Y0201686D03*
D17*
X0148500Y0204002D03*
X0168500Y0245002D03*
X0187500Y0245002D03*
X0311500Y0264002D03*
X0324400Y0264002D03*
X0324400Y0283002D03*
X0311400Y0283002D03*
X0311400Y0301002D03*
X0362400Y0212002D03*
X0378400Y0212002D03*
X0393400Y0212002D03*
D18*
X0325300Y0133277D03*
X0325300Y0105127D03*
D19*
X0325300Y0107735D03*
D20*
X0193450Y0202578D03*
X0193450Y0205728D03*
X0193450Y0208878D03*
X0193450Y0212027D03*
X0193450Y0215177D03*
X0193450Y0218326D03*
X0193450Y0221476D03*
X0193450Y0224626D03*
X0161550Y0224626D03*
X0161550Y0221476D03*
X0161550Y0218326D03*
X0161550Y0215177D03*
X0161550Y0212027D03*
X0161550Y0208878D03*
X0161550Y0205728D03*
X0161550Y0202578D03*
D21*
X0166476Y0197652D03*
X0169626Y0197652D03*
X0172776Y0197652D03*
X0175925Y0197652D03*
X0179075Y0197652D03*
X0182224Y0197652D03*
X0185374Y0197652D03*
X0188524Y0197652D03*
X0188524Y0229552D03*
X0185374Y0229552D03*
X0182224Y0229552D03*
X0179075Y0229552D03*
X0175925Y0229552D03*
X0172776Y0229552D03*
X0169626Y0229552D03*
X0166476Y0229552D03*
D22*
X0227184Y0197922D03*
X0231784Y0197922D03*
X0232816Y0179982D03*
X0228216Y0179982D03*
X0228184Y0164022D03*
X0232784Y0164022D03*
X0233784Y0136022D03*
X0229184Y0136022D03*
X0229184Y0121022D03*
X0233784Y0121022D03*
X0233816Y0103982D03*
X0229216Y0103982D03*
X0179784Y0108022D03*
X0175184Y0108022D03*
X0175184Y0134022D03*
X0179784Y0134022D03*
X0178284Y0180322D03*
X0173684Y0180322D03*
X0150784Y0180022D03*
X0146184Y0180022D03*
D23*
X0141099Y0196635D02*
X0135981Y0196635D01*
X0135981Y0211399D02*
X0141099Y0211399D01*
X0198588Y0182858D02*
X0198588Y0179708D01*
X0198588Y0182858D02*
X0200950Y0182858D01*
X0207250Y0182858D02*
X0209612Y0182858D01*
X0209612Y0179708D01*
X0226550Y0206491D02*
X0232850Y0206491D01*
X0234424Y0208066D01*
X0234424Y0214365D01*
X0234424Y0222239D02*
X0234424Y0230113D01*
X0224976Y0230113D01*
X0224976Y0222239D01*
X0224976Y0214365D02*
X0224976Y0208066D01*
X0226550Y0206491D01*
X0210456Y0242090D02*
X0207306Y0242090D01*
X0210456Y0242090D02*
X0210456Y0244452D01*
X0210456Y0250752D02*
X0210456Y0253114D01*
X0207306Y0253114D01*
X0333795Y0256581D02*
X0335370Y0255400D01*
X0342063Y0255400D01*
X0333795Y0256581D02*
X0333795Y0266226D01*
X0335370Y0267604D01*
X0342063Y0267604D01*
X0349543Y0267801D02*
X0358205Y0267801D01*
X0358205Y0255400D01*
X0349543Y0255400D01*
X0358764Y0235226D02*
X0357189Y0233652D01*
X0357189Y0227352D01*
X0358764Y0225778D01*
X0365063Y0225778D01*
X0372937Y0225778D02*
X0380811Y0225778D01*
X0380811Y0235226D01*
X0372937Y0235226D01*
X0365063Y0235226D02*
X0358764Y0235226D01*
X0210212Y0152558D02*
X0210212Y0149408D01*
X0210212Y0152558D02*
X0207850Y0152558D01*
X0201550Y0152558D02*
X0199188Y0152558D01*
X0199188Y0149408D01*
X0200188Y0130958D02*
X0200188Y0127808D01*
X0200188Y0130958D02*
X0202550Y0130958D01*
X0208850Y0130958D02*
X0211212Y0130958D01*
X0211212Y0127808D01*
D24*
X0231500Y0136002D03*
X0230500Y0164002D03*
X0230500Y0180002D03*
X0176000Y0180302D03*
X0148500Y0180002D03*
X0177500Y0134002D03*
X0177500Y0108002D03*
D25*
X0206387Y0076772D02*
X0210387Y0076779D01*
X0206387Y0076772D02*
X0206397Y0071272D01*
X0213411Y0062785D02*
X0233411Y0062819D01*
X0240396Y0071332D02*
X0240387Y0076832D01*
X0236387Y0076825D01*
X0304239Y0076691D02*
X0304211Y0071191D01*
X0304239Y0076691D02*
X0308239Y0076670D01*
X0311166Y0062654D02*
X0331166Y0062550D01*
X0338210Y0071013D02*
X0338239Y0076513D01*
X0334239Y0076534D01*
D26*
X0301640Y0073927D02*
X0301642Y0073967D01*
X0301648Y0074007D01*
X0301658Y0074047D01*
X0301671Y0074085D01*
X0301689Y0074121D01*
X0301709Y0074156D01*
X0301734Y0074188D01*
X0301761Y0074218D01*
X0301791Y0074245D01*
X0301823Y0074270D01*
X0301858Y0074290D01*
X0301894Y0074308D01*
X0301932Y0074321D01*
X0301972Y0074331D01*
X0302012Y0074337D01*
X0302052Y0074339D01*
X0302092Y0074337D01*
X0302132Y0074331D01*
X0302172Y0074321D01*
X0302210Y0074308D01*
X0302246Y0074290D01*
X0302281Y0074270D01*
X0302313Y0074245D01*
X0302343Y0074218D01*
X0302370Y0074188D01*
X0302395Y0074156D01*
X0302415Y0074121D01*
X0302433Y0074085D01*
X0302446Y0074047D01*
X0302456Y0074007D01*
X0302462Y0073967D01*
X0302464Y0073927D01*
X0302462Y0073887D01*
X0302456Y0073847D01*
X0302446Y0073807D01*
X0302433Y0073769D01*
X0302415Y0073733D01*
X0302395Y0073698D01*
X0302370Y0073666D01*
X0302343Y0073636D01*
X0302313Y0073609D01*
X0302281Y0073584D01*
X0302246Y0073564D01*
X0302210Y0073546D01*
X0302172Y0073533D01*
X0302132Y0073523D01*
X0302092Y0073517D01*
X0302052Y0073515D01*
X0302012Y0073517D01*
X0301972Y0073523D01*
X0301932Y0073533D01*
X0301894Y0073546D01*
X0301858Y0073564D01*
X0301823Y0073584D01*
X0301791Y0073609D01*
X0301761Y0073636D01*
X0301734Y0073666D01*
X0301709Y0073698D01*
X0301689Y0073733D01*
X0301671Y0073769D01*
X0301658Y0073807D01*
X0301648Y0073847D01*
X0301642Y0073887D01*
X0301640Y0073927D01*
X0203807Y0073993D02*
X0203809Y0074033D01*
X0203815Y0074073D01*
X0203825Y0074113D01*
X0203838Y0074151D01*
X0203856Y0074187D01*
X0203876Y0074222D01*
X0203901Y0074254D01*
X0203928Y0074284D01*
X0203958Y0074311D01*
X0203990Y0074336D01*
X0204025Y0074356D01*
X0204061Y0074374D01*
X0204099Y0074387D01*
X0204139Y0074397D01*
X0204179Y0074403D01*
X0204219Y0074405D01*
X0204259Y0074403D01*
X0204299Y0074397D01*
X0204339Y0074387D01*
X0204377Y0074374D01*
X0204413Y0074356D01*
X0204448Y0074336D01*
X0204480Y0074311D01*
X0204510Y0074284D01*
X0204537Y0074254D01*
X0204562Y0074222D01*
X0204582Y0074187D01*
X0204600Y0074151D01*
X0204613Y0074113D01*
X0204623Y0074073D01*
X0204629Y0074033D01*
X0204631Y0073993D01*
X0204629Y0073953D01*
X0204623Y0073913D01*
X0204613Y0073873D01*
X0204600Y0073835D01*
X0204582Y0073799D01*
X0204562Y0073764D01*
X0204537Y0073732D01*
X0204510Y0073702D01*
X0204480Y0073675D01*
X0204448Y0073650D01*
X0204413Y0073630D01*
X0204377Y0073612D01*
X0204339Y0073599D01*
X0204299Y0073589D01*
X0204259Y0073583D01*
X0204219Y0073581D01*
X0204179Y0073583D01*
X0204139Y0073589D01*
X0204099Y0073599D01*
X0204061Y0073612D01*
X0204025Y0073630D01*
X0203990Y0073650D01*
X0203958Y0073675D01*
X0203928Y0073702D01*
X0203901Y0073732D01*
X0203876Y0073764D01*
X0203856Y0073799D01*
X0203838Y0073835D01*
X0203825Y0073873D01*
X0203815Y0073913D01*
X0203809Y0073953D01*
X0203807Y0073993D01*
D27*
X0342350Y0235802D03*
X0342350Y0243202D03*
X0334450Y0239502D03*
D28*
X0318900Y0239452D03*
X0311500Y0239452D03*
X0315200Y0247352D03*
D29*
X0294441Y0321656D02*
X0294443Y0321781D01*
X0294449Y0321906D01*
X0294459Y0322030D01*
X0294473Y0322154D01*
X0294490Y0322278D01*
X0294512Y0322401D01*
X0294538Y0322523D01*
X0294567Y0322645D01*
X0294600Y0322765D01*
X0294638Y0322884D01*
X0294678Y0323003D01*
X0294723Y0323119D01*
X0294771Y0323234D01*
X0294823Y0323348D01*
X0294879Y0323460D01*
X0294938Y0323570D01*
X0295000Y0323678D01*
X0295066Y0323785D01*
X0295135Y0323889D01*
X0295208Y0323990D01*
X0295283Y0324090D01*
X0295362Y0324187D01*
X0295444Y0324281D01*
X0295529Y0324373D01*
X0295616Y0324462D01*
X0295707Y0324548D01*
X0295800Y0324631D01*
X0295896Y0324712D01*
X0295994Y0324789D01*
X0296094Y0324863D01*
X0296197Y0324934D01*
X0296302Y0325001D01*
X0296410Y0325066D01*
X0296519Y0325126D01*
X0296630Y0325184D01*
X0296743Y0325237D01*
X0296857Y0325287D01*
X0296973Y0325334D01*
X0297090Y0325376D01*
X0297209Y0325415D01*
X0297329Y0325451D01*
X0297450Y0325482D01*
X0297572Y0325510D01*
X0297694Y0325533D01*
X0297818Y0325553D01*
X0297942Y0325569D01*
X0298066Y0325581D01*
X0298191Y0325589D01*
X0298316Y0325593D01*
X0298440Y0325593D01*
X0298565Y0325589D01*
X0298690Y0325581D01*
X0298814Y0325569D01*
X0298938Y0325553D01*
X0299062Y0325533D01*
X0299184Y0325510D01*
X0299306Y0325482D01*
X0299427Y0325451D01*
X0299547Y0325415D01*
X0299666Y0325376D01*
X0299783Y0325334D01*
X0299899Y0325287D01*
X0300013Y0325237D01*
X0300126Y0325184D01*
X0300237Y0325126D01*
X0300347Y0325066D01*
X0300454Y0325001D01*
X0300559Y0324934D01*
X0300662Y0324863D01*
X0300762Y0324789D01*
X0300860Y0324712D01*
X0300956Y0324631D01*
X0301049Y0324548D01*
X0301140Y0324462D01*
X0301227Y0324373D01*
X0301312Y0324281D01*
X0301394Y0324187D01*
X0301473Y0324090D01*
X0301548Y0323990D01*
X0301621Y0323889D01*
X0301690Y0323785D01*
X0301756Y0323678D01*
X0301818Y0323570D01*
X0301877Y0323460D01*
X0301933Y0323348D01*
X0301985Y0323234D01*
X0302033Y0323119D01*
X0302078Y0323003D01*
X0302118Y0322884D01*
X0302156Y0322765D01*
X0302189Y0322645D01*
X0302218Y0322523D01*
X0302244Y0322401D01*
X0302266Y0322278D01*
X0302283Y0322154D01*
X0302297Y0322030D01*
X0302307Y0321906D01*
X0302313Y0321781D01*
X0302315Y0321656D01*
X0302313Y0321531D01*
X0302307Y0321406D01*
X0302297Y0321282D01*
X0302283Y0321158D01*
X0302266Y0321034D01*
X0302244Y0320911D01*
X0302218Y0320789D01*
X0302189Y0320667D01*
X0302156Y0320547D01*
X0302118Y0320428D01*
X0302078Y0320309D01*
X0302033Y0320193D01*
X0301985Y0320078D01*
X0301933Y0319964D01*
X0301877Y0319852D01*
X0301818Y0319742D01*
X0301756Y0319634D01*
X0301690Y0319527D01*
X0301621Y0319423D01*
X0301548Y0319322D01*
X0301473Y0319222D01*
X0301394Y0319125D01*
X0301312Y0319031D01*
X0301227Y0318939D01*
X0301140Y0318850D01*
X0301049Y0318764D01*
X0300956Y0318681D01*
X0300860Y0318600D01*
X0300762Y0318523D01*
X0300662Y0318449D01*
X0300559Y0318378D01*
X0300454Y0318311D01*
X0300346Y0318246D01*
X0300237Y0318186D01*
X0300126Y0318128D01*
X0300013Y0318075D01*
X0299899Y0318025D01*
X0299783Y0317978D01*
X0299666Y0317936D01*
X0299547Y0317897D01*
X0299427Y0317861D01*
X0299306Y0317830D01*
X0299184Y0317802D01*
X0299062Y0317779D01*
X0298938Y0317759D01*
X0298814Y0317743D01*
X0298690Y0317731D01*
X0298565Y0317723D01*
X0298440Y0317719D01*
X0298316Y0317719D01*
X0298191Y0317723D01*
X0298066Y0317731D01*
X0297942Y0317743D01*
X0297818Y0317759D01*
X0297694Y0317779D01*
X0297572Y0317802D01*
X0297450Y0317830D01*
X0297329Y0317861D01*
X0297209Y0317897D01*
X0297090Y0317936D01*
X0296973Y0317978D01*
X0296857Y0318025D01*
X0296743Y0318075D01*
X0296630Y0318128D01*
X0296519Y0318186D01*
X0296409Y0318246D01*
X0296302Y0318311D01*
X0296197Y0318378D01*
X0296094Y0318449D01*
X0295994Y0318523D01*
X0295896Y0318600D01*
X0295800Y0318681D01*
X0295707Y0318764D01*
X0295616Y0318850D01*
X0295529Y0318939D01*
X0295444Y0319031D01*
X0295362Y0319125D01*
X0295283Y0319222D01*
X0295208Y0319322D01*
X0295135Y0319423D01*
X0295066Y0319527D01*
X0295000Y0319634D01*
X0294938Y0319742D01*
X0294879Y0319852D01*
X0294823Y0319964D01*
X0294771Y0320078D01*
X0294723Y0320193D01*
X0294678Y0320309D01*
X0294638Y0320428D01*
X0294600Y0320547D01*
X0294567Y0320667D01*
X0294538Y0320789D01*
X0294512Y0320911D01*
X0294490Y0321034D01*
X0294473Y0321158D01*
X0294459Y0321282D01*
X0294449Y0321406D01*
X0294443Y0321531D01*
X0294441Y0321656D01*
D30*
X0359500Y0125801D03*
D31*
X0364618Y0106904D02*
X0364618Y0105329D01*
X0363831Y0106116D02*
X0365406Y0106116D01*
X0393386Y0188833D02*
X0393386Y0190407D01*
X0394173Y0189620D02*
X0392598Y0189620D01*
D32*
X0373701Y0184502D03*
D33*
X0343602Y0256341D02*
X0343602Y0266565D01*
M02*
