G75*
%MOIN*%
%OFA0B0*%
%FSLAX25Y25*%
%IPPOS*%
%LPD*%
%AMOC8*
5,1,8,0,0,1.08239X$1,22.5*
%
%ADD10C,0.00004*%
%ADD11R,0.03162X0.03635*%
%ADD12C,0.00554*%
%ADD13C,0.00396*%
%ADD14C,0.00000*%
%ADD15C,0.08674*%
%ADD16C,0.03600*%
D10*
X0138209Y0001002D02*
X0163768Y0150020D01*
X0055500Y0255555D01*
X0205122Y0277296D01*
X0272035Y0412877D01*
X0338949Y0277296D01*
X0488571Y0255555D01*
X0380303Y0150020D01*
X0405862Y0001002D01*
X0272035Y0071359D01*
X0138209Y0001002D01*
D11*
X0268844Y0221174D03*
X0268844Y0224993D03*
X0268844Y0228811D03*
X0268844Y0232630D03*
X0274356Y0232630D03*
X0274356Y0228811D03*
X0274356Y0224993D03*
X0274356Y0221174D03*
D12*
X0286259Y0225066D02*
X0289655Y0225066D01*
X0289655Y0222852D01*
X0286259Y0222852D01*
X0286259Y0225066D01*
X0286259Y0223405D02*
X0289655Y0223405D01*
X0289655Y0223958D02*
X0286259Y0223958D01*
X0286259Y0224511D02*
X0289655Y0224511D01*
X0289655Y0225064D02*
X0286259Y0225064D01*
X0286259Y0232152D02*
X0289655Y0232152D01*
X0289655Y0229938D01*
X0286259Y0229938D01*
X0286259Y0232152D01*
X0286259Y0230491D02*
X0289655Y0230491D01*
X0289655Y0231044D02*
X0286259Y0231044D01*
X0286259Y0231597D02*
X0289655Y0231597D01*
X0289655Y0232150D02*
X0286259Y0232150D01*
X0293345Y0232152D02*
X0296741Y0232152D01*
X0296741Y0229938D01*
X0293345Y0229938D01*
X0293345Y0232152D01*
X0293345Y0230491D02*
X0296741Y0230491D01*
X0296741Y0231044D02*
X0293345Y0231044D01*
X0293345Y0231597D02*
X0296741Y0231597D01*
X0296741Y0232150D02*
X0293345Y0232150D01*
X0293345Y0225066D02*
X0296741Y0225066D01*
X0296741Y0222852D01*
X0293345Y0222852D01*
X0293345Y0225066D01*
X0293345Y0223405D02*
X0296741Y0223405D01*
X0296741Y0223958D02*
X0293345Y0223958D01*
X0293345Y0224511D02*
X0296741Y0224511D01*
X0296741Y0225064D02*
X0293345Y0225064D01*
X0307259Y0244966D02*
X0310655Y0244966D01*
X0310655Y0242752D01*
X0307259Y0242752D01*
X0307259Y0244966D01*
X0307259Y0243305D02*
X0310655Y0243305D01*
X0310655Y0243858D02*
X0307259Y0243858D01*
X0307259Y0244411D02*
X0310655Y0244411D01*
X0310655Y0244964D02*
X0307259Y0244964D01*
X0307259Y0252052D02*
X0310655Y0252052D01*
X0310655Y0249838D01*
X0307259Y0249838D01*
X0307259Y0252052D01*
X0307259Y0250391D02*
X0310655Y0250391D01*
X0310655Y0250944D02*
X0307259Y0250944D01*
X0307259Y0251497D02*
X0310655Y0251497D01*
X0310655Y0252050D02*
X0307259Y0252050D01*
X0314345Y0252052D02*
X0317741Y0252052D01*
X0317741Y0249838D01*
X0314345Y0249838D01*
X0314345Y0252052D01*
X0314345Y0250391D02*
X0317741Y0250391D01*
X0317741Y0250944D02*
X0314345Y0250944D01*
X0314345Y0251497D02*
X0317741Y0251497D01*
X0317741Y0252050D02*
X0314345Y0252050D01*
X0314345Y0244966D02*
X0317741Y0244966D01*
X0317741Y0242752D01*
X0314345Y0242752D01*
X0314345Y0244966D01*
X0314345Y0243305D02*
X0317741Y0243305D01*
X0317741Y0243858D02*
X0314345Y0243858D01*
X0314345Y0244411D02*
X0317741Y0244411D01*
X0317741Y0244964D02*
X0314345Y0244964D01*
X0325659Y0266466D02*
X0329055Y0266466D01*
X0329055Y0264252D01*
X0325659Y0264252D01*
X0325659Y0266466D01*
X0325659Y0264805D02*
X0329055Y0264805D01*
X0329055Y0265358D02*
X0325659Y0265358D01*
X0325659Y0265911D02*
X0329055Y0265911D01*
X0329055Y0266464D02*
X0325659Y0266464D01*
X0325659Y0273552D02*
X0329055Y0273552D01*
X0329055Y0271338D01*
X0325659Y0271338D01*
X0325659Y0273552D01*
X0325659Y0271891D02*
X0329055Y0271891D01*
X0329055Y0272444D02*
X0325659Y0272444D01*
X0325659Y0272997D02*
X0329055Y0272997D01*
X0329055Y0273550D02*
X0325659Y0273550D01*
X0332745Y0273552D02*
X0336141Y0273552D01*
X0336141Y0271338D01*
X0332745Y0271338D01*
X0332745Y0273552D01*
X0332745Y0271891D02*
X0336141Y0271891D01*
X0336141Y0272444D02*
X0332745Y0272444D01*
X0332745Y0272997D02*
X0336141Y0272997D01*
X0336141Y0273550D02*
X0332745Y0273550D01*
X0332745Y0266466D02*
X0336141Y0266466D01*
X0336141Y0264252D01*
X0332745Y0264252D01*
X0332745Y0266466D01*
X0332745Y0264805D02*
X0336141Y0264805D01*
X0336141Y0265358D02*
X0332745Y0265358D01*
X0332745Y0265911D02*
X0336141Y0265911D01*
X0336141Y0266464D02*
X0332745Y0266464D01*
X0332855Y0225852D02*
X0329459Y0225852D01*
X0332855Y0225852D02*
X0332855Y0223638D01*
X0329459Y0223638D01*
X0329459Y0225852D01*
X0329459Y0224191D02*
X0332855Y0224191D01*
X0332855Y0224744D02*
X0329459Y0224744D01*
X0329459Y0225297D02*
X0332855Y0225297D01*
X0332855Y0225850D02*
X0329459Y0225850D01*
X0329459Y0218766D02*
X0332855Y0218766D01*
X0332855Y0216552D01*
X0329459Y0216552D01*
X0329459Y0218766D01*
X0329459Y0217105D02*
X0332855Y0217105D01*
X0332855Y0217658D02*
X0329459Y0217658D01*
X0329459Y0218211D02*
X0332855Y0218211D01*
X0332855Y0218764D02*
X0329459Y0218764D01*
X0336545Y0218766D02*
X0339941Y0218766D01*
X0339941Y0216552D01*
X0336545Y0216552D01*
X0336545Y0218766D01*
X0336545Y0217105D02*
X0339941Y0217105D01*
X0339941Y0217658D02*
X0336545Y0217658D01*
X0336545Y0218211D02*
X0339941Y0218211D01*
X0339941Y0218764D02*
X0336545Y0218764D01*
X0336545Y0225852D02*
X0339941Y0225852D01*
X0339941Y0223638D01*
X0336545Y0223638D01*
X0336545Y0225852D01*
X0336545Y0224191D02*
X0339941Y0224191D01*
X0339941Y0224744D02*
X0336545Y0224744D01*
X0336545Y0225297D02*
X0339941Y0225297D01*
X0339941Y0225850D02*
X0336545Y0225850D01*
X0308741Y0195152D02*
X0305345Y0195152D01*
X0308741Y0195152D02*
X0308741Y0192938D01*
X0305345Y0192938D01*
X0305345Y0195152D01*
X0305345Y0193491D02*
X0308741Y0193491D01*
X0308741Y0194044D02*
X0305345Y0194044D01*
X0305345Y0194597D02*
X0308741Y0194597D01*
X0308741Y0195150D02*
X0305345Y0195150D01*
X0301655Y0195152D02*
X0298259Y0195152D01*
X0301655Y0195152D02*
X0301655Y0192938D01*
X0298259Y0192938D01*
X0298259Y0195152D01*
X0298259Y0193491D02*
X0301655Y0193491D01*
X0301655Y0194044D02*
X0298259Y0194044D01*
X0298259Y0194597D02*
X0301655Y0194597D01*
X0301655Y0195150D02*
X0298259Y0195150D01*
X0298259Y0188066D02*
X0301655Y0188066D01*
X0301655Y0185852D01*
X0298259Y0185852D01*
X0298259Y0188066D01*
X0298259Y0186405D02*
X0301655Y0186405D01*
X0301655Y0186958D02*
X0298259Y0186958D01*
X0298259Y0187511D02*
X0301655Y0187511D01*
X0301655Y0188064D02*
X0298259Y0188064D01*
X0305345Y0188066D02*
X0308741Y0188066D01*
X0308741Y0185852D01*
X0305345Y0185852D01*
X0305345Y0188066D01*
X0305345Y0186405D02*
X0308741Y0186405D01*
X0308741Y0186958D02*
X0305345Y0186958D01*
X0305345Y0187511D02*
X0308741Y0187511D01*
X0308741Y0188064D02*
X0305345Y0188064D01*
X0329659Y0178652D02*
X0333055Y0178652D01*
X0333055Y0176438D01*
X0329659Y0176438D01*
X0329659Y0178652D01*
X0329659Y0176991D02*
X0333055Y0176991D01*
X0333055Y0177544D02*
X0329659Y0177544D01*
X0329659Y0178097D02*
X0333055Y0178097D01*
X0333055Y0178650D02*
X0329659Y0178650D01*
X0329659Y0171566D02*
X0333055Y0171566D01*
X0333055Y0169352D01*
X0329659Y0169352D01*
X0329659Y0171566D01*
X0329659Y0169905D02*
X0333055Y0169905D01*
X0333055Y0170458D02*
X0329659Y0170458D01*
X0329659Y0171011D02*
X0333055Y0171011D01*
X0333055Y0171564D02*
X0329659Y0171564D01*
X0336745Y0171566D02*
X0340141Y0171566D01*
X0340141Y0169352D01*
X0336745Y0169352D01*
X0336745Y0171566D01*
X0336745Y0169905D02*
X0340141Y0169905D01*
X0340141Y0170458D02*
X0336745Y0170458D01*
X0336745Y0171011D02*
X0340141Y0171011D01*
X0340141Y0171564D02*
X0336745Y0171564D01*
X0336745Y0178652D02*
X0340141Y0178652D01*
X0340141Y0176438D01*
X0336745Y0176438D01*
X0336745Y0178652D01*
X0336745Y0176991D02*
X0340141Y0176991D01*
X0340141Y0177544D02*
X0336745Y0177544D01*
X0336745Y0178097D02*
X0340141Y0178097D01*
X0340141Y0178650D02*
X0336745Y0178650D01*
X0362059Y0161552D02*
X0365455Y0161552D01*
X0365455Y0159338D01*
X0362059Y0159338D01*
X0362059Y0161552D01*
X0362059Y0159891D02*
X0365455Y0159891D01*
X0365455Y0160444D02*
X0362059Y0160444D01*
X0362059Y0160997D02*
X0365455Y0160997D01*
X0365455Y0161550D02*
X0362059Y0161550D01*
X0362059Y0154466D02*
X0365455Y0154466D01*
X0365455Y0152252D01*
X0362059Y0152252D01*
X0362059Y0154466D01*
X0362059Y0152805D02*
X0365455Y0152805D01*
X0365455Y0153358D02*
X0362059Y0153358D01*
X0362059Y0153911D02*
X0365455Y0153911D01*
X0365455Y0154464D02*
X0362059Y0154464D01*
X0369145Y0154466D02*
X0372541Y0154466D01*
X0372541Y0152252D01*
X0369145Y0152252D01*
X0369145Y0154466D01*
X0369145Y0152805D02*
X0372541Y0152805D01*
X0372541Y0153358D02*
X0369145Y0153358D01*
X0369145Y0153911D02*
X0372541Y0153911D01*
X0372541Y0154464D02*
X0369145Y0154464D01*
X0369145Y0161552D02*
X0372541Y0161552D01*
X0372541Y0159338D01*
X0369145Y0159338D01*
X0369145Y0161552D01*
X0369145Y0159891D02*
X0372541Y0159891D01*
X0372541Y0160444D02*
X0369145Y0160444D01*
X0369145Y0160997D02*
X0372541Y0160997D01*
X0372541Y0161550D02*
X0369145Y0161550D01*
X0316041Y0152152D02*
X0312645Y0152152D01*
X0316041Y0152152D02*
X0316041Y0149938D01*
X0312645Y0149938D01*
X0312645Y0152152D01*
X0312645Y0150491D02*
X0316041Y0150491D01*
X0316041Y0151044D02*
X0312645Y0151044D01*
X0312645Y0151597D02*
X0316041Y0151597D01*
X0316041Y0152150D02*
X0312645Y0152150D01*
X0308955Y0152152D02*
X0305559Y0152152D01*
X0308955Y0152152D02*
X0308955Y0149938D01*
X0305559Y0149938D01*
X0305559Y0152152D01*
X0305559Y0150491D02*
X0308955Y0150491D01*
X0308955Y0151044D02*
X0305559Y0151044D01*
X0305559Y0151597D02*
X0308955Y0151597D01*
X0308955Y0152150D02*
X0305559Y0152150D01*
X0305559Y0145066D02*
X0308955Y0145066D01*
X0308955Y0142852D01*
X0305559Y0142852D01*
X0305559Y0145066D01*
X0305559Y0143405D02*
X0308955Y0143405D01*
X0308955Y0143958D02*
X0305559Y0143958D01*
X0305559Y0144511D02*
X0308955Y0144511D01*
X0308955Y0145064D02*
X0305559Y0145064D01*
X0312645Y0145066D02*
X0316041Y0145066D01*
X0316041Y0142852D01*
X0312645Y0142852D01*
X0312645Y0145066D01*
X0312645Y0143405D02*
X0316041Y0143405D01*
X0316041Y0143958D02*
X0312645Y0143958D01*
X0312645Y0144511D02*
X0316041Y0144511D01*
X0316041Y0145064D02*
X0312645Y0145064D01*
X0277041Y0133052D02*
X0273645Y0133052D01*
X0277041Y0133052D02*
X0277041Y0130838D01*
X0273645Y0130838D01*
X0273645Y0133052D01*
X0273645Y0131391D02*
X0277041Y0131391D01*
X0277041Y0131944D02*
X0273645Y0131944D01*
X0273645Y0132497D02*
X0277041Y0132497D01*
X0277041Y0133050D02*
X0273645Y0133050D01*
X0269955Y0133052D02*
X0266559Y0133052D01*
X0269955Y0133052D02*
X0269955Y0130838D01*
X0266559Y0130838D01*
X0266559Y0133052D01*
X0266559Y0131391D02*
X0269955Y0131391D01*
X0269955Y0131944D02*
X0266559Y0131944D01*
X0266559Y0132497D02*
X0269955Y0132497D01*
X0269955Y0133050D02*
X0266559Y0133050D01*
X0266559Y0125966D02*
X0269955Y0125966D01*
X0269955Y0123752D01*
X0266559Y0123752D01*
X0266559Y0125966D01*
X0266559Y0124305D02*
X0269955Y0124305D01*
X0269955Y0124858D02*
X0266559Y0124858D01*
X0266559Y0125411D02*
X0269955Y0125411D01*
X0269955Y0125964D02*
X0266559Y0125964D01*
X0273645Y0125966D02*
X0277041Y0125966D01*
X0277041Y0123752D01*
X0273645Y0123752D01*
X0273645Y0125966D01*
X0273645Y0124305D02*
X0277041Y0124305D01*
X0277041Y0124858D02*
X0273645Y0124858D01*
X0273645Y0125411D02*
X0277041Y0125411D01*
X0277041Y0125964D02*
X0273645Y0125964D01*
X0238341Y0144866D02*
X0234945Y0144866D01*
X0238341Y0144866D02*
X0238341Y0142652D01*
X0234945Y0142652D01*
X0234945Y0144866D01*
X0234945Y0143205D02*
X0238341Y0143205D01*
X0238341Y0143758D02*
X0234945Y0143758D01*
X0234945Y0144311D02*
X0238341Y0144311D01*
X0238341Y0144864D02*
X0234945Y0144864D01*
X0231255Y0144866D02*
X0227859Y0144866D01*
X0231255Y0144866D02*
X0231255Y0142652D01*
X0227859Y0142652D01*
X0227859Y0144866D01*
X0227859Y0143205D02*
X0231255Y0143205D01*
X0231255Y0143758D02*
X0227859Y0143758D01*
X0227859Y0144311D02*
X0231255Y0144311D01*
X0231255Y0144864D02*
X0227859Y0144864D01*
X0227859Y0151952D02*
X0231255Y0151952D01*
X0231255Y0149738D01*
X0227859Y0149738D01*
X0227859Y0151952D01*
X0227859Y0150291D02*
X0231255Y0150291D01*
X0231255Y0150844D02*
X0227859Y0150844D01*
X0227859Y0151397D02*
X0231255Y0151397D01*
X0231255Y0151950D02*
X0227859Y0151950D01*
X0234945Y0151952D02*
X0238341Y0151952D01*
X0238341Y0149738D01*
X0234945Y0149738D01*
X0234945Y0151952D01*
X0234945Y0150291D02*
X0238341Y0150291D01*
X0238341Y0150844D02*
X0234945Y0150844D01*
X0234945Y0151397D02*
X0238341Y0151397D01*
X0238341Y0151950D02*
X0234945Y0151950D01*
X0213341Y0173466D02*
X0209945Y0173466D01*
X0213341Y0173466D02*
X0213341Y0171252D01*
X0209945Y0171252D01*
X0209945Y0173466D01*
X0209945Y0171805D02*
X0213341Y0171805D01*
X0213341Y0172358D02*
X0209945Y0172358D01*
X0209945Y0172911D02*
X0213341Y0172911D01*
X0213341Y0173464D02*
X0209945Y0173464D01*
X0206255Y0173466D02*
X0202859Y0173466D01*
X0206255Y0173466D02*
X0206255Y0171252D01*
X0202859Y0171252D01*
X0202859Y0173466D01*
X0202859Y0171805D02*
X0206255Y0171805D01*
X0206255Y0172358D02*
X0202859Y0172358D01*
X0202859Y0172911D02*
X0206255Y0172911D01*
X0206255Y0173464D02*
X0202859Y0173464D01*
X0202859Y0180552D02*
X0206255Y0180552D01*
X0206255Y0178338D01*
X0202859Y0178338D01*
X0202859Y0180552D01*
X0202859Y0178891D02*
X0206255Y0178891D01*
X0206255Y0179444D02*
X0202859Y0179444D01*
X0202859Y0179997D02*
X0206255Y0179997D01*
X0206255Y0180550D02*
X0202859Y0180550D01*
X0209945Y0180552D02*
X0213341Y0180552D01*
X0213341Y0178338D01*
X0209945Y0178338D01*
X0209945Y0180552D01*
X0209945Y0178891D02*
X0213341Y0178891D01*
X0213341Y0179444D02*
X0209945Y0179444D01*
X0209945Y0179997D02*
X0213341Y0179997D01*
X0213341Y0180550D02*
X0209945Y0180550D01*
X0235359Y0188066D02*
X0238755Y0188066D01*
X0238755Y0185852D01*
X0235359Y0185852D01*
X0235359Y0188066D01*
X0235359Y0186405D02*
X0238755Y0186405D01*
X0238755Y0186958D02*
X0235359Y0186958D01*
X0235359Y0187511D02*
X0238755Y0187511D01*
X0238755Y0188064D02*
X0235359Y0188064D01*
X0235359Y0195152D02*
X0238755Y0195152D01*
X0238755Y0192938D01*
X0235359Y0192938D01*
X0235359Y0195152D01*
X0235359Y0193491D02*
X0238755Y0193491D01*
X0238755Y0194044D02*
X0235359Y0194044D01*
X0235359Y0194597D02*
X0238755Y0194597D01*
X0238755Y0195150D02*
X0235359Y0195150D01*
X0242445Y0195152D02*
X0245841Y0195152D01*
X0245841Y0192938D01*
X0242445Y0192938D01*
X0242445Y0195152D01*
X0242445Y0193491D02*
X0245841Y0193491D01*
X0245841Y0194044D02*
X0242445Y0194044D01*
X0242445Y0194597D02*
X0245841Y0194597D01*
X0245841Y0195150D02*
X0242445Y0195150D01*
X0242445Y0188066D02*
X0245841Y0188066D01*
X0245841Y0185852D01*
X0242445Y0185852D01*
X0242445Y0188066D01*
X0242445Y0186405D02*
X0245841Y0186405D01*
X0245841Y0186958D02*
X0242445Y0186958D01*
X0242445Y0187511D02*
X0245841Y0187511D01*
X0245841Y0188064D02*
X0242445Y0188064D01*
X0266759Y0198266D02*
X0270155Y0198266D01*
X0270155Y0196052D01*
X0266759Y0196052D01*
X0266759Y0198266D01*
X0266759Y0196605D02*
X0270155Y0196605D01*
X0270155Y0197158D02*
X0266759Y0197158D01*
X0266759Y0197711D02*
X0270155Y0197711D01*
X0270155Y0198264D02*
X0266759Y0198264D01*
X0273845Y0198266D02*
X0277241Y0198266D01*
X0277241Y0196052D01*
X0273845Y0196052D01*
X0273845Y0198266D01*
X0273845Y0196605D02*
X0277241Y0196605D01*
X0277241Y0197158D02*
X0273845Y0197158D01*
X0273845Y0197711D02*
X0277241Y0197711D01*
X0277241Y0198264D02*
X0273845Y0198264D01*
X0273845Y0205352D02*
X0277241Y0205352D01*
X0277241Y0203138D01*
X0273845Y0203138D01*
X0273845Y0205352D01*
X0273845Y0203691D02*
X0277241Y0203691D01*
X0277241Y0204244D02*
X0273845Y0204244D01*
X0273845Y0204797D02*
X0277241Y0204797D01*
X0277241Y0205350D02*
X0273845Y0205350D01*
X0270155Y0205352D02*
X0266759Y0205352D01*
X0270155Y0205352D02*
X0270155Y0203138D01*
X0266759Y0203138D01*
X0266759Y0205352D01*
X0266759Y0203691D02*
X0270155Y0203691D01*
X0270155Y0204244D02*
X0266759Y0204244D01*
X0266759Y0204797D02*
X0270155Y0204797D01*
X0270155Y0205350D02*
X0266759Y0205350D01*
X0257841Y0225066D02*
X0254445Y0225066D01*
X0257841Y0225066D02*
X0257841Y0222852D01*
X0254445Y0222852D01*
X0254445Y0225066D01*
X0254445Y0223405D02*
X0257841Y0223405D01*
X0257841Y0223958D02*
X0254445Y0223958D01*
X0254445Y0224511D02*
X0257841Y0224511D01*
X0257841Y0225064D02*
X0254445Y0225064D01*
X0250755Y0225066D02*
X0247359Y0225066D01*
X0250755Y0225066D02*
X0250755Y0222852D01*
X0247359Y0222852D01*
X0247359Y0225066D01*
X0247359Y0223405D02*
X0250755Y0223405D01*
X0250755Y0223958D02*
X0247359Y0223958D01*
X0247359Y0224511D02*
X0250755Y0224511D01*
X0250755Y0225064D02*
X0247359Y0225064D01*
X0247359Y0232152D02*
X0250755Y0232152D01*
X0250755Y0229938D01*
X0247359Y0229938D01*
X0247359Y0232152D01*
X0247359Y0230491D02*
X0250755Y0230491D01*
X0250755Y0231044D02*
X0247359Y0231044D01*
X0247359Y0231597D02*
X0250755Y0231597D01*
X0250755Y0232150D02*
X0247359Y0232150D01*
X0254445Y0232152D02*
X0257841Y0232152D01*
X0257841Y0229938D01*
X0254445Y0229938D01*
X0254445Y0232152D01*
X0254445Y0230491D02*
X0257841Y0230491D01*
X0257841Y0231044D02*
X0254445Y0231044D01*
X0254445Y0231597D02*
X0257841Y0231597D01*
X0257841Y0232150D02*
X0254445Y0232150D01*
X0238141Y0245466D02*
X0234745Y0245466D01*
X0238141Y0245466D02*
X0238141Y0243252D01*
X0234745Y0243252D01*
X0234745Y0245466D01*
X0234745Y0243805D02*
X0238141Y0243805D01*
X0238141Y0244358D02*
X0234745Y0244358D01*
X0234745Y0244911D02*
X0238141Y0244911D01*
X0238141Y0245464D02*
X0234745Y0245464D01*
X0231055Y0245466D02*
X0227659Y0245466D01*
X0231055Y0245466D02*
X0231055Y0243252D01*
X0227659Y0243252D01*
X0227659Y0245466D01*
X0227659Y0243805D02*
X0231055Y0243805D01*
X0231055Y0244358D02*
X0227659Y0244358D01*
X0227659Y0244911D02*
X0231055Y0244911D01*
X0231055Y0245464D02*
X0227659Y0245464D01*
X0227659Y0252552D02*
X0231055Y0252552D01*
X0231055Y0250338D01*
X0227659Y0250338D01*
X0227659Y0252552D01*
X0227659Y0250891D02*
X0231055Y0250891D01*
X0231055Y0251444D02*
X0227659Y0251444D01*
X0227659Y0251997D02*
X0231055Y0251997D01*
X0231055Y0252550D02*
X0227659Y0252550D01*
X0234745Y0252552D02*
X0238141Y0252552D01*
X0238141Y0250338D01*
X0234745Y0250338D01*
X0234745Y0252552D01*
X0234745Y0250891D02*
X0238141Y0250891D01*
X0238141Y0251444D02*
X0234745Y0251444D01*
X0234745Y0251997D02*
X0238141Y0251997D01*
X0238141Y0252550D02*
X0234745Y0252550D01*
X0218341Y0266466D02*
X0214945Y0266466D01*
X0218341Y0266466D02*
X0218341Y0264252D01*
X0214945Y0264252D01*
X0214945Y0266466D01*
X0214945Y0264805D02*
X0218341Y0264805D01*
X0218341Y0265358D02*
X0214945Y0265358D01*
X0214945Y0265911D02*
X0218341Y0265911D01*
X0218341Y0266464D02*
X0214945Y0266464D01*
X0211255Y0266466D02*
X0207859Y0266466D01*
X0211255Y0266466D02*
X0211255Y0264252D01*
X0207859Y0264252D01*
X0207859Y0266466D01*
X0207859Y0264805D02*
X0211255Y0264805D01*
X0211255Y0265358D02*
X0207859Y0265358D01*
X0207859Y0265911D02*
X0211255Y0265911D01*
X0211255Y0266464D02*
X0207859Y0266464D01*
X0207859Y0273552D02*
X0211255Y0273552D01*
X0211255Y0271338D01*
X0207859Y0271338D01*
X0207859Y0273552D01*
X0207859Y0271891D02*
X0211255Y0271891D01*
X0211255Y0272444D02*
X0207859Y0272444D01*
X0207859Y0272997D02*
X0211255Y0272997D01*
X0211255Y0273550D02*
X0207859Y0273550D01*
X0214945Y0273552D02*
X0218341Y0273552D01*
X0218341Y0271338D01*
X0214945Y0271338D01*
X0214945Y0273552D01*
X0214945Y0271891D02*
X0218341Y0271891D01*
X0218341Y0272444D02*
X0214945Y0272444D01*
X0214945Y0272997D02*
X0218341Y0272997D01*
X0218341Y0273550D02*
X0214945Y0273550D01*
X0266859Y0271552D02*
X0270255Y0271552D01*
X0270255Y0269338D01*
X0266859Y0269338D01*
X0266859Y0271552D01*
X0266859Y0269891D02*
X0270255Y0269891D01*
X0270255Y0270444D02*
X0266859Y0270444D01*
X0266859Y0270997D02*
X0270255Y0270997D01*
X0270255Y0271550D02*
X0266859Y0271550D01*
X0273945Y0271552D02*
X0277341Y0271552D01*
X0277341Y0269338D01*
X0273945Y0269338D01*
X0273945Y0271552D01*
X0273945Y0269891D02*
X0277341Y0269891D01*
X0277341Y0270444D02*
X0273945Y0270444D01*
X0273945Y0270997D02*
X0277341Y0270997D01*
X0277341Y0271550D02*
X0273945Y0271550D01*
X0273945Y0264466D02*
X0277341Y0264466D01*
X0277341Y0262252D01*
X0273945Y0262252D01*
X0273945Y0264466D01*
X0273945Y0262805D02*
X0277341Y0262805D01*
X0277341Y0263358D02*
X0273945Y0263358D01*
X0273945Y0263911D02*
X0277341Y0263911D01*
X0277341Y0264464D02*
X0273945Y0264464D01*
X0270255Y0264466D02*
X0266859Y0264466D01*
X0270255Y0264466D02*
X0270255Y0262252D01*
X0266859Y0262252D01*
X0266859Y0264466D01*
X0266859Y0262805D02*
X0270255Y0262805D01*
X0270255Y0263358D02*
X0266859Y0263358D01*
X0266859Y0263911D02*
X0270255Y0263911D01*
X0270255Y0264464D02*
X0266859Y0264464D01*
X0214441Y0225752D02*
X0211045Y0225752D01*
X0214441Y0225752D02*
X0214441Y0223538D01*
X0211045Y0223538D01*
X0211045Y0225752D01*
X0211045Y0224091D02*
X0214441Y0224091D01*
X0214441Y0224644D02*
X0211045Y0224644D01*
X0211045Y0225197D02*
X0214441Y0225197D01*
X0214441Y0225750D02*
X0211045Y0225750D01*
X0207355Y0225752D02*
X0203959Y0225752D01*
X0207355Y0225752D02*
X0207355Y0223538D01*
X0203959Y0223538D01*
X0203959Y0225752D01*
X0203959Y0224091D02*
X0207355Y0224091D01*
X0207355Y0224644D02*
X0203959Y0224644D01*
X0203959Y0225197D02*
X0207355Y0225197D01*
X0207355Y0225750D02*
X0203959Y0225750D01*
X0203959Y0218666D02*
X0207355Y0218666D01*
X0207355Y0216452D01*
X0203959Y0216452D01*
X0203959Y0218666D01*
X0203959Y0217005D02*
X0207355Y0217005D01*
X0207355Y0217558D02*
X0203959Y0217558D01*
X0203959Y0218111D02*
X0207355Y0218111D01*
X0207355Y0218664D02*
X0203959Y0218664D01*
X0211045Y0218666D02*
X0214441Y0218666D01*
X0214441Y0216452D01*
X0211045Y0216452D01*
X0211045Y0218666D01*
X0211045Y0217005D02*
X0214441Y0217005D01*
X0214441Y0217558D02*
X0211045Y0217558D01*
X0211045Y0218111D02*
X0214441Y0218111D01*
X0214441Y0218664D02*
X0211045Y0218664D01*
X0151441Y0232766D02*
X0148045Y0232766D01*
X0151441Y0232766D02*
X0151441Y0230552D01*
X0148045Y0230552D01*
X0148045Y0232766D01*
X0148045Y0231105D02*
X0151441Y0231105D01*
X0151441Y0231658D02*
X0148045Y0231658D01*
X0148045Y0232211D02*
X0151441Y0232211D01*
X0151441Y0232764D02*
X0148045Y0232764D01*
X0144355Y0232766D02*
X0140959Y0232766D01*
X0144355Y0232766D02*
X0144355Y0230552D01*
X0140959Y0230552D01*
X0140959Y0232766D01*
X0140959Y0231105D02*
X0144355Y0231105D01*
X0144355Y0231658D02*
X0140959Y0231658D01*
X0140959Y0232211D02*
X0144355Y0232211D01*
X0144355Y0232764D02*
X0140959Y0232764D01*
X0140959Y0239852D02*
X0144355Y0239852D01*
X0144355Y0237638D01*
X0140959Y0237638D01*
X0140959Y0239852D01*
X0140959Y0238191D02*
X0144355Y0238191D01*
X0144355Y0238744D02*
X0140959Y0238744D01*
X0140959Y0239297D02*
X0144355Y0239297D01*
X0144355Y0239850D02*
X0140959Y0239850D01*
X0148045Y0239852D02*
X0151441Y0239852D01*
X0151441Y0237638D01*
X0148045Y0237638D01*
X0148045Y0239852D01*
X0148045Y0238191D02*
X0151441Y0238191D01*
X0151441Y0238744D02*
X0148045Y0238744D01*
X0148045Y0239297D02*
X0151441Y0239297D01*
X0151441Y0239850D02*
X0148045Y0239850D01*
X0086641Y0247366D02*
X0083245Y0247366D01*
X0086641Y0247366D02*
X0086641Y0245152D01*
X0083245Y0245152D01*
X0083245Y0247366D01*
X0083245Y0245705D02*
X0086641Y0245705D01*
X0086641Y0246258D02*
X0083245Y0246258D01*
X0083245Y0246811D02*
X0086641Y0246811D01*
X0086641Y0247364D02*
X0083245Y0247364D01*
X0079555Y0247366D02*
X0076159Y0247366D01*
X0079555Y0247366D02*
X0079555Y0245152D01*
X0076159Y0245152D01*
X0076159Y0247366D01*
X0076159Y0245705D02*
X0079555Y0245705D01*
X0079555Y0246258D02*
X0076159Y0246258D01*
X0076159Y0246811D02*
X0079555Y0246811D01*
X0079555Y0247364D02*
X0076159Y0247364D01*
X0076159Y0254452D02*
X0079555Y0254452D01*
X0079555Y0252238D01*
X0076159Y0252238D01*
X0076159Y0254452D01*
X0076159Y0252791D02*
X0079555Y0252791D01*
X0079555Y0253344D02*
X0076159Y0253344D01*
X0076159Y0253897D02*
X0079555Y0253897D01*
X0079555Y0254450D02*
X0076159Y0254450D01*
X0083245Y0254452D02*
X0086641Y0254452D01*
X0086641Y0252238D01*
X0083245Y0252238D01*
X0083245Y0254452D01*
X0083245Y0252791D02*
X0086641Y0252791D01*
X0086641Y0253344D02*
X0083245Y0253344D01*
X0083245Y0253897D02*
X0086641Y0253897D01*
X0086641Y0254450D02*
X0083245Y0254450D01*
X0171459Y0161652D02*
X0174855Y0161652D01*
X0174855Y0159438D01*
X0171459Y0159438D01*
X0171459Y0161652D01*
X0171459Y0159991D02*
X0174855Y0159991D01*
X0174855Y0160544D02*
X0171459Y0160544D01*
X0171459Y0161097D02*
X0174855Y0161097D01*
X0174855Y0161650D02*
X0171459Y0161650D01*
X0178545Y0161652D02*
X0181941Y0161652D01*
X0181941Y0159438D01*
X0178545Y0159438D01*
X0178545Y0161652D01*
X0178545Y0159991D02*
X0181941Y0159991D01*
X0181941Y0160544D02*
X0178545Y0160544D01*
X0178545Y0161097D02*
X0181941Y0161097D01*
X0181941Y0161650D02*
X0178545Y0161650D01*
X0178545Y0154566D02*
X0181941Y0154566D01*
X0181941Y0152352D01*
X0178545Y0152352D01*
X0178545Y0154566D01*
X0178545Y0152905D02*
X0181941Y0152905D01*
X0181941Y0153458D02*
X0178545Y0153458D01*
X0178545Y0154011D02*
X0181941Y0154011D01*
X0181941Y0154564D02*
X0178545Y0154564D01*
X0174855Y0154566D02*
X0171459Y0154566D01*
X0174855Y0154566D02*
X0174855Y0152352D01*
X0171459Y0152352D01*
X0171459Y0154566D01*
X0171459Y0152905D02*
X0174855Y0152905D01*
X0174855Y0153458D02*
X0171459Y0153458D01*
X0171459Y0154011D02*
X0174855Y0154011D01*
X0174855Y0154564D02*
X0171459Y0154564D01*
X0188659Y0091652D02*
X0192055Y0091652D01*
X0192055Y0089438D01*
X0188659Y0089438D01*
X0188659Y0091652D01*
X0188659Y0089991D02*
X0192055Y0089991D01*
X0192055Y0090544D02*
X0188659Y0090544D01*
X0188659Y0091097D02*
X0192055Y0091097D01*
X0192055Y0091650D02*
X0188659Y0091650D01*
X0195745Y0091652D02*
X0199141Y0091652D01*
X0199141Y0089438D01*
X0195745Y0089438D01*
X0195745Y0091652D01*
X0195745Y0089991D02*
X0199141Y0089991D01*
X0199141Y0090544D02*
X0195745Y0090544D01*
X0195745Y0091097D02*
X0199141Y0091097D01*
X0199141Y0091650D02*
X0195745Y0091650D01*
X0195745Y0084566D02*
X0199141Y0084566D01*
X0199141Y0082352D01*
X0195745Y0082352D01*
X0195745Y0084566D01*
X0195745Y0082905D02*
X0199141Y0082905D01*
X0199141Y0083458D02*
X0195745Y0083458D01*
X0195745Y0084011D02*
X0199141Y0084011D01*
X0199141Y0084564D02*
X0195745Y0084564D01*
X0192055Y0084566D02*
X0188659Y0084566D01*
X0192055Y0084566D02*
X0192055Y0082352D01*
X0188659Y0082352D01*
X0188659Y0084566D01*
X0188659Y0082905D02*
X0192055Y0082905D01*
X0192055Y0083458D02*
X0188659Y0083458D01*
X0188659Y0084011D02*
X0192055Y0084011D01*
X0192055Y0084564D02*
X0188659Y0084564D01*
X0159541Y0030552D02*
X0156145Y0030552D01*
X0159541Y0030552D02*
X0159541Y0028338D01*
X0156145Y0028338D01*
X0156145Y0030552D01*
X0156145Y0028891D02*
X0159541Y0028891D01*
X0159541Y0029444D02*
X0156145Y0029444D01*
X0156145Y0029997D02*
X0159541Y0029997D01*
X0159541Y0030550D02*
X0156145Y0030550D01*
X0152455Y0030552D02*
X0149059Y0030552D01*
X0152455Y0030552D02*
X0152455Y0028338D01*
X0149059Y0028338D01*
X0149059Y0030552D01*
X0149059Y0028891D02*
X0152455Y0028891D01*
X0152455Y0029444D02*
X0149059Y0029444D01*
X0149059Y0029997D02*
X0152455Y0029997D01*
X0152455Y0030550D02*
X0149059Y0030550D01*
X0149059Y0023466D02*
X0152455Y0023466D01*
X0152455Y0021252D01*
X0149059Y0021252D01*
X0149059Y0023466D01*
X0149059Y0021805D02*
X0152455Y0021805D01*
X0152455Y0022358D02*
X0149059Y0022358D01*
X0149059Y0022911D02*
X0152455Y0022911D01*
X0152455Y0023464D02*
X0149059Y0023464D01*
X0156145Y0023466D02*
X0159541Y0023466D01*
X0159541Y0021252D01*
X0156145Y0021252D01*
X0156145Y0023466D01*
X0156145Y0021805D02*
X0159541Y0021805D01*
X0159541Y0022358D02*
X0156145Y0022358D01*
X0156145Y0022911D02*
X0159541Y0022911D01*
X0159541Y0023464D02*
X0156145Y0023464D01*
X0266859Y0085366D02*
X0270255Y0085366D01*
X0270255Y0083152D01*
X0266859Y0083152D01*
X0266859Y0085366D01*
X0266859Y0083705D02*
X0270255Y0083705D01*
X0270255Y0084258D02*
X0266859Y0084258D01*
X0266859Y0084811D02*
X0270255Y0084811D01*
X0270255Y0085364D02*
X0266859Y0085364D01*
X0273945Y0085366D02*
X0277341Y0085366D01*
X0277341Y0083152D01*
X0273945Y0083152D01*
X0273945Y0085366D01*
X0273945Y0083705D02*
X0277341Y0083705D01*
X0277341Y0084258D02*
X0273945Y0084258D01*
X0273945Y0084811D02*
X0277341Y0084811D01*
X0277341Y0085364D02*
X0273945Y0085364D01*
X0273945Y0092452D02*
X0277341Y0092452D01*
X0277341Y0090238D01*
X0273945Y0090238D01*
X0273945Y0092452D01*
X0273945Y0090791D02*
X0277341Y0090791D01*
X0277341Y0091344D02*
X0273945Y0091344D01*
X0273945Y0091897D02*
X0277341Y0091897D01*
X0277341Y0092450D02*
X0273945Y0092450D01*
X0270255Y0092452D02*
X0266859Y0092452D01*
X0270255Y0092452D02*
X0270255Y0090238D01*
X0266859Y0090238D01*
X0266859Y0092452D01*
X0266859Y0090791D02*
X0270255Y0090791D01*
X0270255Y0091344D02*
X0266859Y0091344D01*
X0266859Y0091897D02*
X0270255Y0091897D01*
X0270255Y0092450D02*
X0266859Y0092450D01*
X0344459Y0091852D02*
X0347855Y0091852D01*
X0347855Y0089638D01*
X0344459Y0089638D01*
X0344459Y0091852D01*
X0344459Y0090191D02*
X0347855Y0090191D01*
X0347855Y0090744D02*
X0344459Y0090744D01*
X0344459Y0091297D02*
X0347855Y0091297D01*
X0347855Y0091850D02*
X0344459Y0091850D01*
X0351545Y0091852D02*
X0354941Y0091852D01*
X0354941Y0089638D01*
X0351545Y0089638D01*
X0351545Y0091852D01*
X0351545Y0090191D02*
X0354941Y0090191D01*
X0354941Y0090744D02*
X0351545Y0090744D01*
X0351545Y0091297D02*
X0354941Y0091297D01*
X0354941Y0091850D02*
X0351545Y0091850D01*
X0351545Y0084766D02*
X0354941Y0084766D01*
X0354941Y0082552D01*
X0351545Y0082552D01*
X0351545Y0084766D01*
X0351545Y0083105D02*
X0354941Y0083105D01*
X0354941Y0083658D02*
X0351545Y0083658D01*
X0351545Y0084211D02*
X0354941Y0084211D01*
X0354941Y0084764D02*
X0351545Y0084764D01*
X0347855Y0084766D02*
X0344459Y0084766D01*
X0347855Y0084766D02*
X0347855Y0082552D01*
X0344459Y0082552D01*
X0344459Y0084766D01*
X0344459Y0083105D02*
X0347855Y0083105D01*
X0347855Y0083658D02*
X0344459Y0083658D01*
X0344459Y0084211D02*
X0347855Y0084211D01*
X0347855Y0084764D02*
X0344459Y0084764D01*
X0384559Y0030352D02*
X0387955Y0030352D01*
X0387955Y0028138D01*
X0384559Y0028138D01*
X0384559Y0030352D01*
X0384559Y0028691D02*
X0387955Y0028691D01*
X0387955Y0029244D02*
X0384559Y0029244D01*
X0384559Y0029797D02*
X0387955Y0029797D01*
X0387955Y0030350D02*
X0384559Y0030350D01*
X0384559Y0023266D02*
X0387955Y0023266D01*
X0387955Y0021052D01*
X0384559Y0021052D01*
X0384559Y0023266D01*
X0384559Y0021605D02*
X0387955Y0021605D01*
X0387955Y0022158D02*
X0384559Y0022158D01*
X0384559Y0022711D02*
X0387955Y0022711D01*
X0387955Y0023264D02*
X0384559Y0023264D01*
X0391645Y0023266D02*
X0395041Y0023266D01*
X0395041Y0021052D01*
X0391645Y0021052D01*
X0391645Y0023266D01*
X0391645Y0021605D02*
X0395041Y0021605D01*
X0395041Y0022158D02*
X0391645Y0022158D01*
X0391645Y0022711D02*
X0395041Y0022711D01*
X0395041Y0023264D02*
X0391645Y0023264D01*
X0391645Y0030352D02*
X0395041Y0030352D01*
X0395041Y0028138D01*
X0391645Y0028138D01*
X0391645Y0030352D01*
X0391645Y0028691D02*
X0395041Y0028691D01*
X0395041Y0029244D02*
X0391645Y0029244D01*
X0391645Y0029797D02*
X0395041Y0029797D01*
X0395041Y0030350D02*
X0391645Y0030350D01*
X0277141Y0165166D02*
X0273745Y0165166D01*
X0277141Y0165166D02*
X0277141Y0162952D01*
X0273745Y0162952D01*
X0273745Y0165166D01*
X0273745Y0163505D02*
X0277141Y0163505D01*
X0277141Y0164058D02*
X0273745Y0164058D01*
X0273745Y0164611D02*
X0277141Y0164611D01*
X0277141Y0165164D02*
X0273745Y0165164D01*
X0270055Y0165166D02*
X0266659Y0165166D01*
X0270055Y0165166D02*
X0270055Y0162952D01*
X0266659Y0162952D01*
X0266659Y0165166D01*
X0266659Y0163505D02*
X0270055Y0163505D01*
X0270055Y0164058D02*
X0266659Y0164058D01*
X0266659Y0164611D02*
X0270055Y0164611D01*
X0270055Y0165164D02*
X0266659Y0165164D01*
X0266659Y0172252D02*
X0270055Y0172252D01*
X0270055Y0170038D01*
X0266659Y0170038D01*
X0266659Y0172252D01*
X0266659Y0170591D02*
X0270055Y0170591D01*
X0270055Y0171144D02*
X0266659Y0171144D01*
X0266659Y0171697D02*
X0270055Y0171697D01*
X0270055Y0172250D02*
X0266659Y0172250D01*
X0273745Y0172252D02*
X0277141Y0172252D01*
X0277141Y0170038D01*
X0273745Y0170038D01*
X0273745Y0172252D01*
X0273745Y0170591D02*
X0277141Y0170591D01*
X0277141Y0171144D02*
X0273745Y0171144D01*
X0273745Y0171697D02*
X0277141Y0171697D01*
X0277141Y0172250D02*
X0273745Y0172250D01*
X0391559Y0232466D02*
X0394955Y0232466D01*
X0394955Y0230252D01*
X0391559Y0230252D01*
X0391559Y0232466D01*
X0391559Y0230805D02*
X0394955Y0230805D01*
X0394955Y0231358D02*
X0391559Y0231358D01*
X0391559Y0231911D02*
X0394955Y0231911D01*
X0394955Y0232464D02*
X0391559Y0232464D01*
X0391559Y0239552D02*
X0394955Y0239552D01*
X0394955Y0237338D01*
X0391559Y0237338D01*
X0391559Y0239552D01*
X0391559Y0237891D02*
X0394955Y0237891D01*
X0394955Y0238444D02*
X0391559Y0238444D01*
X0391559Y0238997D02*
X0394955Y0238997D01*
X0394955Y0239550D02*
X0391559Y0239550D01*
X0398645Y0239552D02*
X0402041Y0239552D01*
X0402041Y0237338D01*
X0398645Y0237338D01*
X0398645Y0239552D01*
X0398645Y0237891D02*
X0402041Y0237891D01*
X0402041Y0238444D02*
X0398645Y0238444D01*
X0398645Y0238997D02*
X0402041Y0238997D01*
X0402041Y0239550D02*
X0398645Y0239550D01*
X0398645Y0232466D02*
X0402041Y0232466D01*
X0402041Y0230252D01*
X0398645Y0230252D01*
X0398645Y0232466D01*
X0398645Y0230805D02*
X0402041Y0230805D01*
X0402041Y0231358D02*
X0398645Y0231358D01*
X0398645Y0231911D02*
X0402041Y0231911D01*
X0402041Y0232464D02*
X0398645Y0232464D01*
X0457259Y0247366D02*
X0460655Y0247366D01*
X0460655Y0245152D01*
X0457259Y0245152D01*
X0457259Y0247366D01*
X0457259Y0245705D02*
X0460655Y0245705D01*
X0460655Y0246258D02*
X0457259Y0246258D01*
X0457259Y0246811D02*
X0460655Y0246811D01*
X0460655Y0247364D02*
X0457259Y0247364D01*
X0457259Y0254452D02*
X0460655Y0254452D01*
X0460655Y0252238D01*
X0457259Y0252238D01*
X0457259Y0254452D01*
X0457259Y0252791D02*
X0460655Y0252791D01*
X0460655Y0253344D02*
X0457259Y0253344D01*
X0457259Y0253897D02*
X0460655Y0253897D01*
X0460655Y0254450D02*
X0457259Y0254450D01*
X0464345Y0254452D02*
X0467741Y0254452D01*
X0467741Y0252238D01*
X0464345Y0252238D01*
X0464345Y0254452D01*
X0464345Y0252791D02*
X0467741Y0252791D01*
X0467741Y0253344D02*
X0464345Y0253344D01*
X0464345Y0253897D02*
X0467741Y0253897D01*
X0467741Y0254450D02*
X0464345Y0254450D01*
X0464345Y0247366D02*
X0467741Y0247366D01*
X0467741Y0245152D01*
X0464345Y0245152D01*
X0464345Y0247366D01*
X0464345Y0245705D02*
X0467741Y0245705D01*
X0467741Y0246258D02*
X0464345Y0246258D01*
X0464345Y0246811D02*
X0467741Y0246811D01*
X0467741Y0247364D02*
X0464345Y0247364D01*
X0277241Y0324166D02*
X0273845Y0324166D01*
X0277241Y0324166D02*
X0277241Y0321952D01*
X0273845Y0321952D01*
X0273845Y0324166D01*
X0273845Y0322505D02*
X0277241Y0322505D01*
X0277241Y0323058D02*
X0273845Y0323058D01*
X0273845Y0323611D02*
X0277241Y0323611D01*
X0277241Y0324164D02*
X0273845Y0324164D01*
X0270155Y0324166D02*
X0266759Y0324166D01*
X0270155Y0324166D02*
X0270155Y0321952D01*
X0266759Y0321952D01*
X0266759Y0324166D01*
X0266759Y0322505D02*
X0270155Y0322505D01*
X0270155Y0323058D02*
X0266759Y0323058D01*
X0266759Y0323611D02*
X0270155Y0323611D01*
X0270155Y0324164D02*
X0266759Y0324164D01*
X0266759Y0331252D02*
X0270155Y0331252D01*
X0270155Y0329038D01*
X0266759Y0329038D01*
X0266759Y0331252D01*
X0266759Y0329591D02*
X0270155Y0329591D01*
X0270155Y0330144D02*
X0266759Y0330144D01*
X0266759Y0330697D02*
X0270155Y0330697D01*
X0270155Y0331250D02*
X0266759Y0331250D01*
X0273845Y0331252D02*
X0277241Y0331252D01*
X0277241Y0329038D01*
X0273845Y0329038D01*
X0273845Y0331252D01*
X0273845Y0329591D02*
X0277241Y0329591D01*
X0277241Y0330144D02*
X0273845Y0330144D01*
X0273845Y0330697D02*
X0277241Y0330697D01*
X0277241Y0331250D02*
X0273845Y0331250D01*
X0273845Y0385766D02*
X0277241Y0385766D01*
X0277241Y0383552D01*
X0273845Y0383552D01*
X0273845Y0385766D01*
X0273845Y0384105D02*
X0277241Y0384105D01*
X0277241Y0384658D02*
X0273845Y0384658D01*
X0273845Y0385211D02*
X0277241Y0385211D01*
X0277241Y0385764D02*
X0273845Y0385764D01*
X0270155Y0385766D02*
X0266759Y0385766D01*
X0270155Y0385766D02*
X0270155Y0383552D01*
X0266759Y0383552D01*
X0266759Y0385766D01*
X0266759Y0384105D02*
X0270155Y0384105D01*
X0270155Y0384658D02*
X0266759Y0384658D01*
X0266759Y0385211D02*
X0270155Y0385211D01*
X0270155Y0385764D02*
X0266759Y0385764D01*
X0266759Y0392852D02*
X0270155Y0392852D01*
X0270155Y0390638D01*
X0266759Y0390638D01*
X0266759Y0392852D01*
X0266759Y0391191D02*
X0270155Y0391191D01*
X0270155Y0391744D02*
X0266759Y0391744D01*
X0266759Y0392297D02*
X0270155Y0392297D01*
X0270155Y0392850D02*
X0266759Y0392850D01*
X0273845Y0392852D02*
X0277241Y0392852D01*
X0277241Y0390638D01*
X0273845Y0390638D01*
X0273845Y0392852D01*
X0273845Y0391191D02*
X0277241Y0391191D01*
X0277241Y0391744D02*
X0273845Y0391744D01*
X0273845Y0392297D02*
X0277241Y0392297D01*
X0277241Y0392850D02*
X0273845Y0392850D01*
D13*
X0273766Y0388994D02*
X0277320Y0388994D01*
X0277320Y0387410D01*
X0273766Y0387410D01*
X0273766Y0388994D01*
X0273766Y0387805D02*
X0277320Y0387805D01*
X0277320Y0388200D02*
X0273766Y0388200D01*
X0273766Y0388595D02*
X0277320Y0388595D01*
X0277320Y0388990D02*
X0273766Y0388990D01*
X0270234Y0388994D02*
X0266680Y0388994D01*
X0270234Y0388994D02*
X0270234Y0387410D01*
X0266680Y0387410D01*
X0266680Y0388994D01*
X0266680Y0387805D02*
X0270234Y0387805D01*
X0270234Y0388200D02*
X0266680Y0388200D01*
X0266680Y0388595D02*
X0270234Y0388595D01*
X0270234Y0388990D02*
X0266680Y0388990D01*
X0266680Y0327394D02*
X0270234Y0327394D01*
X0270234Y0325810D01*
X0266680Y0325810D01*
X0266680Y0327394D01*
X0266680Y0326205D02*
X0270234Y0326205D01*
X0270234Y0326600D02*
X0266680Y0326600D01*
X0266680Y0326995D02*
X0270234Y0326995D01*
X0270234Y0327390D02*
X0266680Y0327390D01*
X0273766Y0327394D02*
X0277320Y0327394D01*
X0277320Y0325810D01*
X0273766Y0325810D01*
X0273766Y0327394D01*
X0273766Y0326205D02*
X0277320Y0326205D01*
X0277320Y0326600D02*
X0273766Y0326600D01*
X0273766Y0326995D02*
X0277320Y0326995D01*
X0277320Y0327390D02*
X0273766Y0327390D01*
X0273866Y0267694D02*
X0277420Y0267694D01*
X0277420Y0266110D01*
X0273866Y0266110D01*
X0273866Y0267694D01*
X0273866Y0266505D02*
X0277420Y0266505D01*
X0277420Y0266900D02*
X0273866Y0266900D01*
X0273866Y0267295D02*
X0277420Y0267295D01*
X0277420Y0267690D02*
X0273866Y0267690D01*
X0270334Y0267694D02*
X0266780Y0267694D01*
X0270334Y0267694D02*
X0270334Y0266110D01*
X0266780Y0266110D01*
X0266780Y0267694D01*
X0266780Y0266505D02*
X0270334Y0266505D01*
X0270334Y0266900D02*
X0266780Y0266900D01*
X0266780Y0267295D02*
X0270334Y0267295D01*
X0270334Y0267690D02*
X0266780Y0267690D01*
X0238220Y0248694D02*
X0234666Y0248694D01*
X0238220Y0248694D02*
X0238220Y0247110D01*
X0234666Y0247110D01*
X0234666Y0248694D01*
X0234666Y0247505D02*
X0238220Y0247505D01*
X0238220Y0247900D02*
X0234666Y0247900D01*
X0234666Y0248295D02*
X0238220Y0248295D01*
X0238220Y0248690D02*
X0234666Y0248690D01*
X0231134Y0248694D02*
X0227580Y0248694D01*
X0231134Y0248694D02*
X0231134Y0247110D01*
X0227580Y0247110D01*
X0227580Y0248694D01*
X0227580Y0247505D02*
X0231134Y0247505D01*
X0231134Y0247900D02*
X0227580Y0247900D01*
X0227580Y0248295D02*
X0231134Y0248295D01*
X0231134Y0248690D02*
X0227580Y0248690D01*
X0218420Y0269694D02*
X0214866Y0269694D01*
X0218420Y0269694D02*
X0218420Y0268110D01*
X0214866Y0268110D01*
X0214866Y0269694D01*
X0214866Y0268505D02*
X0218420Y0268505D01*
X0218420Y0268900D02*
X0214866Y0268900D01*
X0214866Y0269295D02*
X0218420Y0269295D01*
X0218420Y0269690D02*
X0214866Y0269690D01*
X0211334Y0269694D02*
X0207780Y0269694D01*
X0211334Y0269694D02*
X0211334Y0268110D01*
X0207780Y0268110D01*
X0207780Y0269694D01*
X0207780Y0268505D02*
X0211334Y0268505D01*
X0211334Y0268900D02*
X0207780Y0268900D01*
X0207780Y0269295D02*
X0211334Y0269295D01*
X0211334Y0269690D02*
X0207780Y0269690D01*
X0151520Y0235994D02*
X0147966Y0235994D01*
X0151520Y0235994D02*
X0151520Y0234410D01*
X0147966Y0234410D01*
X0147966Y0235994D01*
X0147966Y0234805D02*
X0151520Y0234805D01*
X0151520Y0235200D02*
X0147966Y0235200D01*
X0147966Y0235595D02*
X0151520Y0235595D01*
X0151520Y0235990D02*
X0147966Y0235990D01*
X0144434Y0235994D02*
X0140880Y0235994D01*
X0144434Y0235994D02*
X0144434Y0234410D01*
X0140880Y0234410D01*
X0140880Y0235994D01*
X0140880Y0234805D02*
X0144434Y0234805D01*
X0144434Y0235200D02*
X0140880Y0235200D01*
X0140880Y0235595D02*
X0144434Y0235595D01*
X0144434Y0235990D02*
X0140880Y0235990D01*
X0086720Y0250594D02*
X0083166Y0250594D01*
X0086720Y0250594D02*
X0086720Y0249010D01*
X0083166Y0249010D01*
X0083166Y0250594D01*
X0083166Y0249405D02*
X0086720Y0249405D01*
X0086720Y0249800D02*
X0083166Y0249800D01*
X0083166Y0250195D02*
X0086720Y0250195D01*
X0086720Y0250590D02*
X0083166Y0250590D01*
X0079634Y0250594D02*
X0076080Y0250594D01*
X0079634Y0250594D02*
X0079634Y0249010D01*
X0076080Y0249010D01*
X0076080Y0250594D01*
X0076080Y0249405D02*
X0079634Y0249405D01*
X0079634Y0249800D02*
X0076080Y0249800D01*
X0076080Y0250195D02*
X0079634Y0250195D01*
X0079634Y0250590D02*
X0076080Y0250590D01*
X0171380Y0157794D02*
X0174934Y0157794D01*
X0174934Y0156210D01*
X0171380Y0156210D01*
X0171380Y0157794D01*
X0171380Y0156605D02*
X0174934Y0156605D01*
X0174934Y0157000D02*
X0171380Y0157000D01*
X0171380Y0157395D02*
X0174934Y0157395D01*
X0174934Y0157790D02*
X0171380Y0157790D01*
X0178466Y0157794D02*
X0182020Y0157794D01*
X0182020Y0156210D01*
X0178466Y0156210D01*
X0178466Y0157794D01*
X0178466Y0156605D02*
X0182020Y0156605D01*
X0182020Y0157000D02*
X0178466Y0157000D01*
X0178466Y0157395D02*
X0182020Y0157395D01*
X0182020Y0157790D02*
X0178466Y0157790D01*
X0202780Y0176694D02*
X0206334Y0176694D01*
X0206334Y0175110D01*
X0202780Y0175110D01*
X0202780Y0176694D01*
X0202780Y0175505D02*
X0206334Y0175505D01*
X0206334Y0175900D02*
X0202780Y0175900D01*
X0202780Y0176295D02*
X0206334Y0176295D01*
X0206334Y0176690D02*
X0202780Y0176690D01*
X0209866Y0176694D02*
X0213420Y0176694D01*
X0213420Y0175110D01*
X0209866Y0175110D01*
X0209866Y0176694D01*
X0209866Y0175505D02*
X0213420Y0175505D01*
X0213420Y0175900D02*
X0209866Y0175900D01*
X0209866Y0176295D02*
X0213420Y0176295D01*
X0213420Y0176690D02*
X0209866Y0176690D01*
X0235280Y0191294D02*
X0238834Y0191294D01*
X0238834Y0189710D01*
X0235280Y0189710D01*
X0235280Y0191294D01*
X0235280Y0190105D02*
X0238834Y0190105D01*
X0238834Y0190500D02*
X0235280Y0190500D01*
X0235280Y0190895D02*
X0238834Y0190895D01*
X0238834Y0191290D02*
X0235280Y0191290D01*
X0242366Y0191294D02*
X0245920Y0191294D01*
X0245920Y0189710D01*
X0242366Y0189710D01*
X0242366Y0191294D01*
X0242366Y0190105D02*
X0245920Y0190105D01*
X0245920Y0190500D02*
X0242366Y0190500D01*
X0242366Y0190895D02*
X0245920Y0190895D01*
X0245920Y0191290D02*
X0242366Y0191290D01*
X0266680Y0201494D02*
X0270234Y0201494D01*
X0270234Y0199910D01*
X0266680Y0199910D01*
X0266680Y0201494D01*
X0266680Y0200305D02*
X0270234Y0200305D01*
X0270234Y0200700D02*
X0266680Y0200700D01*
X0266680Y0201095D02*
X0270234Y0201095D01*
X0270234Y0201490D02*
X0266680Y0201490D01*
X0273766Y0201494D02*
X0277320Y0201494D01*
X0277320Y0199910D01*
X0273766Y0199910D01*
X0273766Y0201494D01*
X0273766Y0200305D02*
X0277320Y0200305D01*
X0277320Y0200700D02*
X0273766Y0200700D01*
X0273766Y0201095D02*
X0277320Y0201095D01*
X0277320Y0201490D02*
X0273766Y0201490D01*
X0298180Y0191294D02*
X0301734Y0191294D01*
X0301734Y0189710D01*
X0298180Y0189710D01*
X0298180Y0191294D01*
X0298180Y0190105D02*
X0301734Y0190105D01*
X0301734Y0190500D02*
X0298180Y0190500D01*
X0298180Y0190895D02*
X0301734Y0190895D01*
X0301734Y0191290D02*
X0298180Y0191290D01*
X0305266Y0191294D02*
X0308820Y0191294D01*
X0308820Y0189710D01*
X0305266Y0189710D01*
X0305266Y0191294D01*
X0305266Y0190105D02*
X0308820Y0190105D01*
X0308820Y0190500D02*
X0305266Y0190500D01*
X0305266Y0190895D02*
X0308820Y0190895D01*
X0308820Y0191290D02*
X0305266Y0191290D01*
X0329580Y0174794D02*
X0333134Y0174794D01*
X0333134Y0173210D01*
X0329580Y0173210D01*
X0329580Y0174794D01*
X0329580Y0173605D02*
X0333134Y0173605D01*
X0333134Y0174000D02*
X0329580Y0174000D01*
X0329580Y0174395D02*
X0333134Y0174395D01*
X0333134Y0174790D02*
X0329580Y0174790D01*
X0336666Y0174794D02*
X0340220Y0174794D01*
X0340220Y0173210D01*
X0336666Y0173210D01*
X0336666Y0174794D01*
X0336666Y0173605D02*
X0340220Y0173605D01*
X0340220Y0174000D02*
X0336666Y0174000D01*
X0336666Y0174395D02*
X0340220Y0174395D01*
X0340220Y0174790D02*
X0336666Y0174790D01*
X0361980Y0157694D02*
X0365534Y0157694D01*
X0365534Y0156110D01*
X0361980Y0156110D01*
X0361980Y0157694D01*
X0361980Y0156505D02*
X0365534Y0156505D01*
X0365534Y0156900D02*
X0361980Y0156900D01*
X0361980Y0157295D02*
X0365534Y0157295D01*
X0365534Y0157690D02*
X0361980Y0157690D01*
X0369066Y0157694D02*
X0372620Y0157694D01*
X0372620Y0156110D01*
X0369066Y0156110D01*
X0369066Y0157694D01*
X0369066Y0156505D02*
X0372620Y0156505D01*
X0372620Y0156900D02*
X0369066Y0156900D01*
X0369066Y0157295D02*
X0372620Y0157295D01*
X0372620Y0157690D02*
X0369066Y0157690D01*
X0316120Y0148294D02*
X0312566Y0148294D01*
X0316120Y0148294D02*
X0316120Y0146710D01*
X0312566Y0146710D01*
X0312566Y0148294D01*
X0312566Y0147105D02*
X0316120Y0147105D01*
X0316120Y0147500D02*
X0312566Y0147500D01*
X0312566Y0147895D02*
X0316120Y0147895D01*
X0316120Y0148290D02*
X0312566Y0148290D01*
X0309034Y0148294D02*
X0305480Y0148294D01*
X0309034Y0148294D02*
X0309034Y0146710D01*
X0305480Y0146710D01*
X0305480Y0148294D01*
X0305480Y0147105D02*
X0309034Y0147105D01*
X0309034Y0147500D02*
X0305480Y0147500D01*
X0305480Y0147895D02*
X0309034Y0147895D01*
X0309034Y0148290D02*
X0305480Y0148290D01*
X0277220Y0168394D02*
X0273666Y0168394D01*
X0277220Y0168394D02*
X0277220Y0166810D01*
X0273666Y0166810D01*
X0273666Y0168394D01*
X0273666Y0167205D02*
X0277220Y0167205D01*
X0277220Y0167600D02*
X0273666Y0167600D01*
X0273666Y0167995D02*
X0277220Y0167995D01*
X0277220Y0168390D02*
X0273666Y0168390D01*
X0270134Y0168394D02*
X0266580Y0168394D01*
X0270134Y0168394D02*
X0270134Y0166810D01*
X0266580Y0166810D01*
X0266580Y0168394D01*
X0266580Y0167205D02*
X0270134Y0167205D01*
X0270134Y0167600D02*
X0266580Y0167600D01*
X0266580Y0167995D02*
X0270134Y0167995D01*
X0270134Y0168390D02*
X0266580Y0168390D01*
X0238420Y0148094D02*
X0234866Y0148094D01*
X0238420Y0148094D02*
X0238420Y0146510D01*
X0234866Y0146510D01*
X0234866Y0148094D01*
X0234866Y0146905D02*
X0238420Y0146905D01*
X0238420Y0147300D02*
X0234866Y0147300D01*
X0234866Y0147695D02*
X0238420Y0147695D01*
X0238420Y0148090D02*
X0234866Y0148090D01*
X0231334Y0148094D02*
X0227780Y0148094D01*
X0231334Y0148094D02*
X0231334Y0146510D01*
X0227780Y0146510D01*
X0227780Y0148094D01*
X0227780Y0146905D02*
X0231334Y0146905D01*
X0231334Y0147300D02*
X0227780Y0147300D01*
X0227780Y0147695D02*
X0231334Y0147695D01*
X0231334Y0148090D02*
X0227780Y0148090D01*
X0266480Y0129194D02*
X0270034Y0129194D01*
X0270034Y0127610D01*
X0266480Y0127610D01*
X0266480Y0129194D01*
X0266480Y0128005D02*
X0270034Y0128005D01*
X0270034Y0128400D02*
X0266480Y0128400D01*
X0266480Y0128795D02*
X0270034Y0128795D01*
X0270034Y0129190D02*
X0266480Y0129190D01*
X0273566Y0129194D02*
X0277120Y0129194D01*
X0277120Y0127610D01*
X0273566Y0127610D01*
X0273566Y0129194D01*
X0273566Y0128005D02*
X0277120Y0128005D01*
X0277120Y0128400D02*
X0273566Y0128400D01*
X0273566Y0128795D02*
X0277120Y0128795D01*
X0277120Y0129190D02*
X0273566Y0129190D01*
X0273866Y0088594D02*
X0277420Y0088594D01*
X0277420Y0087010D01*
X0273866Y0087010D01*
X0273866Y0088594D01*
X0273866Y0087405D02*
X0277420Y0087405D01*
X0277420Y0087800D02*
X0273866Y0087800D01*
X0273866Y0088195D02*
X0277420Y0088195D01*
X0277420Y0088590D02*
X0273866Y0088590D01*
X0270334Y0088594D02*
X0266780Y0088594D01*
X0270334Y0088594D02*
X0270334Y0087010D01*
X0266780Y0087010D01*
X0266780Y0088594D01*
X0266780Y0087405D02*
X0270334Y0087405D01*
X0270334Y0087800D02*
X0266780Y0087800D01*
X0266780Y0088195D02*
X0270334Y0088195D01*
X0270334Y0088590D02*
X0266780Y0088590D01*
X0199220Y0087794D02*
X0195666Y0087794D01*
X0199220Y0087794D02*
X0199220Y0086210D01*
X0195666Y0086210D01*
X0195666Y0087794D01*
X0195666Y0086605D02*
X0199220Y0086605D01*
X0199220Y0087000D02*
X0195666Y0087000D01*
X0195666Y0087395D02*
X0199220Y0087395D01*
X0199220Y0087790D02*
X0195666Y0087790D01*
X0192134Y0087794D02*
X0188580Y0087794D01*
X0192134Y0087794D02*
X0192134Y0086210D01*
X0188580Y0086210D01*
X0188580Y0087794D01*
X0188580Y0086605D02*
X0192134Y0086605D01*
X0192134Y0087000D02*
X0188580Y0087000D01*
X0188580Y0087395D02*
X0192134Y0087395D01*
X0192134Y0087790D02*
X0188580Y0087790D01*
X0159620Y0026694D02*
X0156066Y0026694D01*
X0159620Y0026694D02*
X0159620Y0025110D01*
X0156066Y0025110D01*
X0156066Y0026694D01*
X0156066Y0025505D02*
X0159620Y0025505D01*
X0159620Y0025900D02*
X0156066Y0025900D01*
X0156066Y0026295D02*
X0159620Y0026295D01*
X0159620Y0026690D02*
X0156066Y0026690D01*
X0152534Y0026694D02*
X0148980Y0026694D01*
X0152534Y0026694D02*
X0152534Y0025110D01*
X0148980Y0025110D01*
X0148980Y0026694D01*
X0148980Y0025505D02*
X0152534Y0025505D01*
X0152534Y0025900D02*
X0148980Y0025900D01*
X0148980Y0026295D02*
X0152534Y0026295D01*
X0152534Y0026690D02*
X0148980Y0026690D01*
X0344380Y0087994D02*
X0347934Y0087994D01*
X0347934Y0086410D01*
X0344380Y0086410D01*
X0344380Y0087994D01*
X0344380Y0086805D02*
X0347934Y0086805D01*
X0347934Y0087200D02*
X0344380Y0087200D01*
X0344380Y0087595D02*
X0347934Y0087595D01*
X0347934Y0087990D02*
X0344380Y0087990D01*
X0351466Y0087994D02*
X0355020Y0087994D01*
X0355020Y0086410D01*
X0351466Y0086410D01*
X0351466Y0087994D01*
X0351466Y0086805D02*
X0355020Y0086805D01*
X0355020Y0087200D02*
X0351466Y0087200D01*
X0351466Y0087595D02*
X0355020Y0087595D01*
X0355020Y0087990D02*
X0351466Y0087990D01*
X0384480Y0026494D02*
X0388034Y0026494D01*
X0388034Y0024910D01*
X0384480Y0024910D01*
X0384480Y0026494D01*
X0384480Y0025305D02*
X0388034Y0025305D01*
X0388034Y0025700D02*
X0384480Y0025700D01*
X0384480Y0026095D02*
X0388034Y0026095D01*
X0388034Y0026490D02*
X0384480Y0026490D01*
X0391566Y0026494D02*
X0395120Y0026494D01*
X0395120Y0024910D01*
X0391566Y0024910D01*
X0391566Y0026494D01*
X0391566Y0025305D02*
X0395120Y0025305D01*
X0395120Y0025700D02*
X0391566Y0025700D01*
X0391566Y0026095D02*
X0395120Y0026095D01*
X0395120Y0026490D02*
X0391566Y0026490D01*
X0340020Y0221994D02*
X0336466Y0221994D01*
X0340020Y0221994D02*
X0340020Y0220410D01*
X0336466Y0220410D01*
X0336466Y0221994D01*
X0336466Y0220805D02*
X0340020Y0220805D01*
X0340020Y0221200D02*
X0336466Y0221200D01*
X0336466Y0221595D02*
X0340020Y0221595D01*
X0340020Y0221990D02*
X0336466Y0221990D01*
X0332934Y0221994D02*
X0329380Y0221994D01*
X0332934Y0221994D02*
X0332934Y0220410D01*
X0329380Y0220410D01*
X0329380Y0221994D01*
X0329380Y0220805D02*
X0332934Y0220805D01*
X0332934Y0221200D02*
X0329380Y0221200D01*
X0329380Y0221595D02*
X0332934Y0221595D01*
X0332934Y0221990D02*
X0329380Y0221990D01*
X0317820Y0248194D02*
X0314266Y0248194D01*
X0317820Y0248194D02*
X0317820Y0246610D01*
X0314266Y0246610D01*
X0314266Y0248194D01*
X0314266Y0247005D02*
X0317820Y0247005D01*
X0317820Y0247400D02*
X0314266Y0247400D01*
X0314266Y0247795D02*
X0317820Y0247795D01*
X0317820Y0248190D02*
X0314266Y0248190D01*
X0310734Y0248194D02*
X0307180Y0248194D01*
X0310734Y0248194D02*
X0310734Y0246610D01*
X0307180Y0246610D01*
X0307180Y0248194D01*
X0307180Y0247005D02*
X0310734Y0247005D01*
X0310734Y0247400D02*
X0307180Y0247400D01*
X0307180Y0247795D02*
X0310734Y0247795D01*
X0310734Y0248190D02*
X0307180Y0248190D01*
X0296820Y0228294D02*
X0293266Y0228294D01*
X0296820Y0228294D02*
X0296820Y0226710D01*
X0293266Y0226710D01*
X0293266Y0228294D01*
X0293266Y0227105D02*
X0296820Y0227105D01*
X0296820Y0227500D02*
X0293266Y0227500D01*
X0293266Y0227895D02*
X0296820Y0227895D01*
X0296820Y0228290D02*
X0293266Y0228290D01*
X0289734Y0228294D02*
X0286180Y0228294D01*
X0289734Y0228294D02*
X0289734Y0226710D01*
X0286180Y0226710D01*
X0286180Y0228294D01*
X0286180Y0227105D02*
X0289734Y0227105D01*
X0289734Y0227500D02*
X0286180Y0227500D01*
X0286180Y0227895D02*
X0289734Y0227895D01*
X0289734Y0228290D02*
X0286180Y0228290D01*
X0257920Y0228294D02*
X0254366Y0228294D01*
X0257920Y0228294D02*
X0257920Y0226710D01*
X0254366Y0226710D01*
X0254366Y0228294D01*
X0254366Y0227105D02*
X0257920Y0227105D01*
X0257920Y0227500D02*
X0254366Y0227500D01*
X0254366Y0227895D02*
X0257920Y0227895D01*
X0257920Y0228290D02*
X0254366Y0228290D01*
X0250834Y0228294D02*
X0247280Y0228294D01*
X0250834Y0228294D02*
X0250834Y0226710D01*
X0247280Y0226710D01*
X0247280Y0228294D01*
X0247280Y0227105D02*
X0250834Y0227105D01*
X0250834Y0227500D02*
X0247280Y0227500D01*
X0247280Y0227895D02*
X0250834Y0227895D01*
X0250834Y0228290D02*
X0247280Y0228290D01*
X0214520Y0221894D02*
X0210966Y0221894D01*
X0214520Y0221894D02*
X0214520Y0220310D01*
X0210966Y0220310D01*
X0210966Y0221894D01*
X0210966Y0220705D02*
X0214520Y0220705D01*
X0214520Y0221100D02*
X0210966Y0221100D01*
X0210966Y0221495D02*
X0214520Y0221495D01*
X0214520Y0221890D02*
X0210966Y0221890D01*
X0207434Y0221894D02*
X0203880Y0221894D01*
X0207434Y0221894D02*
X0207434Y0220310D01*
X0203880Y0220310D01*
X0203880Y0221894D01*
X0203880Y0220705D02*
X0207434Y0220705D01*
X0207434Y0221100D02*
X0203880Y0221100D01*
X0203880Y0221495D02*
X0207434Y0221495D01*
X0207434Y0221890D02*
X0203880Y0221890D01*
X0325580Y0269694D02*
X0329134Y0269694D01*
X0329134Y0268110D01*
X0325580Y0268110D01*
X0325580Y0269694D01*
X0325580Y0268505D02*
X0329134Y0268505D01*
X0329134Y0268900D02*
X0325580Y0268900D01*
X0325580Y0269295D02*
X0329134Y0269295D01*
X0329134Y0269690D02*
X0325580Y0269690D01*
X0332666Y0269694D02*
X0336220Y0269694D01*
X0336220Y0268110D01*
X0332666Y0268110D01*
X0332666Y0269694D01*
X0332666Y0268505D02*
X0336220Y0268505D01*
X0336220Y0268900D02*
X0332666Y0268900D01*
X0332666Y0269295D02*
X0336220Y0269295D01*
X0336220Y0269690D02*
X0332666Y0269690D01*
X0391480Y0235694D02*
X0395034Y0235694D01*
X0395034Y0234110D01*
X0391480Y0234110D01*
X0391480Y0235694D01*
X0391480Y0234505D02*
X0395034Y0234505D01*
X0395034Y0234900D02*
X0391480Y0234900D01*
X0391480Y0235295D02*
X0395034Y0235295D01*
X0395034Y0235690D02*
X0391480Y0235690D01*
X0398566Y0235694D02*
X0402120Y0235694D01*
X0402120Y0234110D01*
X0398566Y0234110D01*
X0398566Y0235694D01*
X0398566Y0234505D02*
X0402120Y0234505D01*
X0402120Y0234900D02*
X0398566Y0234900D01*
X0398566Y0235295D02*
X0402120Y0235295D01*
X0402120Y0235690D02*
X0398566Y0235690D01*
X0457180Y0250594D02*
X0460734Y0250594D01*
X0460734Y0249010D01*
X0457180Y0249010D01*
X0457180Y0250594D01*
X0457180Y0249405D02*
X0460734Y0249405D01*
X0460734Y0249800D02*
X0457180Y0249800D01*
X0457180Y0250195D02*
X0460734Y0250195D01*
X0460734Y0250590D02*
X0457180Y0250590D01*
X0464266Y0250594D02*
X0467820Y0250594D01*
X0467820Y0249010D01*
X0464266Y0249010D01*
X0464266Y0250594D01*
X0464266Y0249405D02*
X0467820Y0249405D01*
X0467820Y0249800D02*
X0464266Y0249800D01*
X0464266Y0250195D02*
X0467820Y0250195D01*
X0467820Y0250590D02*
X0464266Y0250590D01*
D14*
X0294441Y0321656D02*
X0294443Y0321781D01*
X0294449Y0321906D01*
X0294459Y0322030D01*
X0294473Y0322154D01*
X0294490Y0322278D01*
X0294512Y0322401D01*
X0294538Y0322523D01*
X0294567Y0322645D01*
X0294600Y0322765D01*
X0294638Y0322884D01*
X0294678Y0323003D01*
X0294723Y0323119D01*
X0294771Y0323234D01*
X0294823Y0323348D01*
X0294879Y0323460D01*
X0294938Y0323570D01*
X0295000Y0323678D01*
X0295066Y0323785D01*
X0295135Y0323889D01*
X0295208Y0323990D01*
X0295283Y0324090D01*
X0295362Y0324187D01*
X0295444Y0324281D01*
X0295529Y0324373D01*
X0295616Y0324462D01*
X0295707Y0324548D01*
X0295800Y0324631D01*
X0295896Y0324712D01*
X0295994Y0324789D01*
X0296094Y0324863D01*
X0296197Y0324934D01*
X0296302Y0325001D01*
X0296410Y0325066D01*
X0296519Y0325126D01*
X0296630Y0325184D01*
X0296743Y0325237D01*
X0296857Y0325287D01*
X0296973Y0325334D01*
X0297090Y0325376D01*
X0297209Y0325415D01*
X0297329Y0325451D01*
X0297450Y0325482D01*
X0297572Y0325510D01*
X0297694Y0325533D01*
X0297818Y0325553D01*
X0297942Y0325569D01*
X0298066Y0325581D01*
X0298191Y0325589D01*
X0298316Y0325593D01*
X0298440Y0325593D01*
X0298565Y0325589D01*
X0298690Y0325581D01*
X0298814Y0325569D01*
X0298938Y0325553D01*
X0299062Y0325533D01*
X0299184Y0325510D01*
X0299306Y0325482D01*
X0299427Y0325451D01*
X0299547Y0325415D01*
X0299666Y0325376D01*
X0299783Y0325334D01*
X0299899Y0325287D01*
X0300013Y0325237D01*
X0300126Y0325184D01*
X0300237Y0325126D01*
X0300347Y0325066D01*
X0300454Y0325001D01*
X0300559Y0324934D01*
X0300662Y0324863D01*
X0300762Y0324789D01*
X0300860Y0324712D01*
X0300956Y0324631D01*
X0301049Y0324548D01*
X0301140Y0324462D01*
X0301227Y0324373D01*
X0301312Y0324281D01*
X0301394Y0324187D01*
X0301473Y0324090D01*
X0301548Y0323990D01*
X0301621Y0323889D01*
X0301690Y0323785D01*
X0301756Y0323678D01*
X0301818Y0323570D01*
X0301877Y0323460D01*
X0301933Y0323348D01*
X0301985Y0323234D01*
X0302033Y0323119D01*
X0302078Y0323003D01*
X0302118Y0322884D01*
X0302156Y0322765D01*
X0302189Y0322645D01*
X0302218Y0322523D01*
X0302244Y0322401D01*
X0302266Y0322278D01*
X0302283Y0322154D01*
X0302297Y0322030D01*
X0302307Y0321906D01*
X0302313Y0321781D01*
X0302315Y0321656D01*
X0302313Y0321531D01*
X0302307Y0321406D01*
X0302297Y0321282D01*
X0302283Y0321158D01*
X0302266Y0321034D01*
X0302244Y0320911D01*
X0302218Y0320789D01*
X0302189Y0320667D01*
X0302156Y0320547D01*
X0302118Y0320428D01*
X0302078Y0320309D01*
X0302033Y0320193D01*
X0301985Y0320078D01*
X0301933Y0319964D01*
X0301877Y0319852D01*
X0301818Y0319742D01*
X0301756Y0319634D01*
X0301690Y0319527D01*
X0301621Y0319423D01*
X0301548Y0319322D01*
X0301473Y0319222D01*
X0301394Y0319125D01*
X0301312Y0319031D01*
X0301227Y0318939D01*
X0301140Y0318850D01*
X0301049Y0318764D01*
X0300956Y0318681D01*
X0300860Y0318600D01*
X0300762Y0318523D01*
X0300662Y0318449D01*
X0300559Y0318378D01*
X0300454Y0318311D01*
X0300346Y0318246D01*
X0300237Y0318186D01*
X0300126Y0318128D01*
X0300013Y0318075D01*
X0299899Y0318025D01*
X0299783Y0317978D01*
X0299666Y0317936D01*
X0299547Y0317897D01*
X0299427Y0317861D01*
X0299306Y0317830D01*
X0299184Y0317802D01*
X0299062Y0317779D01*
X0298938Y0317759D01*
X0298814Y0317743D01*
X0298690Y0317731D01*
X0298565Y0317723D01*
X0298440Y0317719D01*
X0298316Y0317719D01*
X0298191Y0317723D01*
X0298066Y0317731D01*
X0297942Y0317743D01*
X0297818Y0317759D01*
X0297694Y0317779D01*
X0297572Y0317802D01*
X0297450Y0317830D01*
X0297329Y0317861D01*
X0297209Y0317897D01*
X0297090Y0317936D01*
X0296973Y0317978D01*
X0296857Y0318025D01*
X0296743Y0318075D01*
X0296630Y0318128D01*
X0296519Y0318186D01*
X0296409Y0318246D01*
X0296302Y0318311D01*
X0296197Y0318378D01*
X0296094Y0318449D01*
X0295994Y0318523D01*
X0295896Y0318600D01*
X0295800Y0318681D01*
X0295707Y0318764D01*
X0295616Y0318850D01*
X0295529Y0318939D01*
X0295444Y0319031D01*
X0295362Y0319125D01*
X0295283Y0319222D01*
X0295208Y0319322D01*
X0295135Y0319423D01*
X0295066Y0319527D01*
X0295000Y0319634D01*
X0294938Y0319742D01*
X0294879Y0319852D01*
X0294823Y0319964D01*
X0294771Y0320078D01*
X0294723Y0320193D01*
X0294678Y0320309D01*
X0294638Y0320428D01*
X0294600Y0320547D01*
X0294567Y0320667D01*
X0294538Y0320789D01*
X0294512Y0320911D01*
X0294490Y0321034D01*
X0294473Y0321158D01*
X0294459Y0321282D01*
X0294449Y0321406D01*
X0294443Y0321531D01*
X0294441Y0321656D01*
D15*
X0298378Y0321656D03*
D16*
X0291750Y0309127D03*
X0319875Y0303502D03*
X0316750Y0294127D03*
X0319875Y0284752D03*
X0319875Y0281002D03*
X0315500Y0277877D03*
X0316125Y0271627D03*
X0318625Y0269127D03*
X0311125Y0271627D03*
X0307375Y0264127D03*
X0301750Y0268502D03*
X0308625Y0254752D03*
X0314250Y0254127D03*
X0319875Y0247877D03*
X0319875Y0244127D03*
X0323000Y0239127D03*
X0320500Y0234127D03*
X0328000Y0233502D03*
X0329875Y0227877D03*
X0333625Y0231002D03*
X0343000Y0227252D03*
X0341750Y0222877D03*
X0345500Y0221002D03*
X0349250Y0212252D03*
X0338625Y0212252D03*
X0335500Y0214127D03*
X0333000Y0206002D03*
X0343000Y0202877D03*
X0344250Y0197252D03*
X0336750Y0182877D03*
X0327375Y0176627D03*
X0323625Y0176627D03*
X0321750Y0173502D03*
X0316125Y0167877D03*
X0298625Y0183502D03*
X0296125Y0187877D03*
X0296125Y0192877D03*
X0286125Y0197877D03*
X0279250Y0201002D03*
X0266125Y0209127D03*
X0262375Y0209127D03*
X0264875Y0204127D03*
X0251750Y0207252D03*
X0254250Y0214127D03*
X0244875Y0221002D03*
X0259875Y0224127D03*
X0259875Y0230377D03*
X0263625Y0230377D03*
X0278000Y0232252D03*
X0284250Y0231002D03*
X0278000Y0226627D03*
X0283000Y0222877D03*
X0278000Y0217877D03*
X0296750Y0219127D03*
X0302375Y0219127D03*
X0308000Y0213502D03*
X0319875Y0209752D03*
X0319250Y0206002D03*
X0319875Y0219127D03*
X0327375Y0221627D03*
X0309875Y0231002D03*
X0307375Y0240377D03*
X0298000Y0234127D03*
X0292375Y0239127D03*
X0279875Y0256627D03*
X0279250Y0261002D03*
X0286750Y0263502D03*
X0272375Y0272877D03*
X0264875Y0270377D03*
X0264875Y0266627D03*
X0258625Y0264127D03*
X0244875Y0261002D03*
X0246125Y0251627D03*
X0225500Y0251627D03*
X0225500Y0247877D03*
X0216125Y0243502D03*
X0217375Y0237252D03*
X0219875Y0228502D03*
X0221750Y0225377D03*
X0227375Y0231002D03*
X0226750Y0234752D03*
X0226750Y0218502D03*
X0224250Y0215377D03*
X0209875Y0214752D03*
X0203625Y0197252D03*
X0201125Y0189752D03*
X0197375Y0182252D03*
X0185500Y0187252D03*
X0183000Y0184752D03*
X0173000Y0186627D03*
X0155500Y0191627D03*
X0151750Y0196627D03*
X0158000Y0198502D03*
X0165500Y0206002D03*
X0153000Y0208502D03*
X0152375Y0218502D03*
X0149250Y0226002D03*
X0143000Y0224752D03*
X0153625Y0235377D03*
X0164250Y0244127D03*
X0169250Y0235377D03*
X0169875Y0226002D03*
X0165500Y0221627D03*
X0165500Y0217877D03*
X0178625Y0218502D03*
X0178625Y0222252D03*
X0182375Y0218502D03*
X0178625Y0208502D03*
X0148000Y0189127D03*
X0149250Y0184127D03*
X0137375Y0189127D03*
X0132375Y0201002D03*
X0160500Y0169127D03*
X0168625Y0161002D03*
X0176750Y0166627D03*
X0186125Y0161002D03*
X0185500Y0155377D03*
X0176750Y0151627D03*
X0172375Y0150377D03*
X0180500Y0144752D03*
X0186125Y0136002D03*
X0181750Y0129752D03*
X0178000Y0129752D03*
X0181750Y0122252D03*
X0175500Y0116002D03*
X0172375Y0120377D03*
X0189250Y0104127D03*
X0196750Y0106627D03*
X0191125Y0098502D03*
X0186125Y0099127D03*
X0181750Y0092252D03*
X0208000Y0081627D03*
X0209875Y0077877D03*
X0237375Y0091627D03*
X0239250Y0087877D03*
X0245500Y0085377D03*
X0218625Y0106627D03*
X0205500Y0118502D03*
X0214875Y0127877D03*
X0237375Y0131627D03*
X0244250Y0134127D03*
X0252375Y0129752D03*
X0240500Y0124752D03*
X0243000Y0147252D03*
X0243000Y0151002D03*
X0236750Y0154127D03*
X0241750Y0159127D03*
X0250500Y0164127D03*
X0261125Y0161627D03*
X0264250Y0167252D03*
X0263000Y0171002D03*
X0266750Y0182252D03*
X0258000Y0187252D03*
X0248000Y0187252D03*
X0243000Y0182252D03*
X0240500Y0184752D03*
X0233000Y0190377D03*
X0227375Y0192252D03*
X0228625Y0184127D03*
X0221125Y0176627D03*
X0225500Y0172252D03*
X0230500Y0160377D03*
X0218625Y0152252D03*
X0216125Y0149752D03*
X0214875Y0156002D03*
X0204250Y0149752D03*
X0197375Y0147252D03*
X0194875Y0167252D03*
X0191125Y0166627D03*
X0217375Y0184752D03*
X0214875Y0189752D03*
X0233000Y0202252D03*
X0280500Y0158502D03*
X0279875Y0143502D03*
X0301750Y0133502D03*
X0304250Y0136627D03*
X0310500Y0141627D03*
X0291750Y0119752D03*
X0291750Y0107877D03*
X0294250Y0097877D03*
X0291750Y0090377D03*
X0291750Y0084752D03*
X0294250Y0081627D03*
X0301125Y0081002D03*
X0306125Y0078502D03*
X0314875Y0068502D03*
X0331125Y0068502D03*
X0340500Y0071627D03*
X0349875Y0081002D03*
X0338000Y0102877D03*
X0325500Y0097877D03*
X0356125Y0118502D03*
X0379875Y0127877D03*
X0367375Y0136627D03*
X0350500Y0150377D03*
X0367375Y0158502D03*
X0375500Y0157252D03*
X0376750Y0161002D03*
X0369875Y0167877D03*
X0379250Y0184752D03*
X0376750Y0192252D03*
X0366750Y0211002D03*
X0369250Y0223502D03*
X0358000Y0224752D03*
X0356125Y0236002D03*
X0361125Y0241002D03*
X0358625Y0255377D03*
X0346125Y0257877D03*
X0348000Y0264752D03*
X0332375Y0262252D03*
X0328625Y0262252D03*
X0323625Y0255377D03*
X0264875Y0279127D03*
X0258625Y0274127D03*
X0220500Y0270377D03*
X0213000Y0267252D03*
X0211750Y0262252D03*
X0319875Y0188502D03*
X0387375Y0221002D03*
X0404875Y0224752D03*
X0404250Y0231002D03*
X0396750Y0236627D03*
X0451125Y0246627D03*
X0454875Y0246627D03*
X0469875Y0253502D03*
X0285500Y0352252D03*
X0264250Y0352252D03*
X0264875Y0370377D03*
X0272375Y0369127D03*
X0279250Y0388502D03*
X0272375Y0394127D03*
X0091750Y0249752D03*
X0091125Y0246002D03*
X0088625Y0252252D03*
X0074250Y0250377D03*
X0101750Y0239752D03*
X0166750Y0051627D03*
X0170500Y0051627D03*
X0174875Y0029752D03*
X0165500Y0029752D03*
X0382375Y0029752D03*
X0396750Y0027252D03*
M02*
