G75*
%MOIN*%
%OFA0B0*%
%FSLAX25Y25*%
%IPPOS*%
%LPD*%
%AMOC8*
5,1,8,0,0,1.08239X$1,22.5*
%
%ADD10C,0.00004*%
%ADD11C,0.00500*%
%ADD12C,0.00800*%
%ADD13C,0.00000*%
D10*
X0138209Y0001002D02*
X0163768Y0150020D01*
X0055500Y0255555D01*
X0205122Y0277296D01*
X0272035Y0412877D01*
X0338949Y0277296D01*
X0488571Y0255555D01*
X0380303Y0150020D01*
X0405862Y0001002D01*
X0272035Y0071359D01*
X0138209Y0001002D01*
D11*
X0153119Y0021965D02*
X0155481Y0021965D01*
X0158237Y0024130D02*
X0158237Y0024524D01*
X0158237Y0027280D02*
X0158237Y0027674D01*
X0155442Y0027949D02*
X0155442Y0027162D01*
X0155442Y0027949D02*
X0154654Y0027949D01*
X0155442Y0027949D02*
X0153867Y0026374D01*
X0153119Y0029839D02*
X0155481Y0029839D01*
X0150363Y0027674D02*
X0150363Y0027280D01*
X0150363Y0024524D02*
X0150363Y0024130D01*
X0192719Y0083065D02*
X0195081Y0083065D01*
X0197837Y0085230D02*
X0197837Y0085624D01*
X0197837Y0088380D02*
X0197837Y0088774D01*
X0195042Y0089049D02*
X0195042Y0088262D01*
X0195042Y0089049D02*
X0194254Y0089049D01*
X0195042Y0089049D02*
X0193467Y0087474D01*
X0192719Y0090939D02*
X0195081Y0090939D01*
X0189963Y0088774D02*
X0189963Y0088380D01*
X0189963Y0085624D02*
X0189963Y0085230D01*
X0231919Y0143365D02*
X0234281Y0143365D01*
X0237037Y0145530D02*
X0237037Y0145924D01*
X0237037Y0148680D02*
X0237037Y0149074D01*
X0234242Y0149349D02*
X0234242Y0148562D01*
X0234242Y0149349D02*
X0232667Y0147774D01*
X0233454Y0149349D02*
X0234242Y0149349D01*
X0234281Y0151239D02*
X0231919Y0151239D01*
X0229163Y0149074D02*
X0229163Y0148680D01*
X0229163Y0145924D02*
X0229163Y0145530D01*
X0209281Y0171965D02*
X0206919Y0171965D01*
X0204163Y0174130D02*
X0204163Y0174524D01*
X0204163Y0177280D02*
X0204163Y0177674D01*
X0206919Y0179839D02*
X0209281Y0179839D01*
X0209242Y0177949D02*
X0209242Y0177162D01*
X0209242Y0177949D02*
X0208454Y0177949D01*
X0209242Y0177949D02*
X0207667Y0176374D01*
X0212037Y0177280D02*
X0212037Y0177674D01*
X0212037Y0174524D02*
X0212037Y0174130D01*
X0236663Y0188730D02*
X0236663Y0189124D01*
X0236663Y0191880D02*
X0236663Y0192274D01*
X0239419Y0194439D02*
X0241781Y0194439D01*
X0241742Y0192549D02*
X0241742Y0191762D01*
X0241742Y0192549D02*
X0240954Y0192549D01*
X0241742Y0192549D02*
X0240167Y0190974D01*
X0244537Y0191880D02*
X0244537Y0192274D01*
X0244537Y0189124D02*
X0244537Y0188730D01*
X0241781Y0186565D02*
X0239419Y0186565D01*
X0268063Y0198930D02*
X0268063Y0199324D01*
X0268063Y0202080D02*
X0268063Y0202474D01*
X0270819Y0204639D02*
X0273181Y0204639D01*
X0273142Y0202749D02*
X0273142Y0201962D01*
X0273142Y0202749D02*
X0272354Y0202749D01*
X0273142Y0202749D02*
X0271567Y0201174D01*
X0275937Y0202080D02*
X0275937Y0202474D01*
X0275937Y0199324D02*
X0275937Y0198930D01*
X0273181Y0196765D02*
X0270819Y0196765D01*
X0266954Y0219146D02*
X0276246Y0219146D01*
X0276246Y0223674D01*
X0266954Y0223674D01*
X0266954Y0219146D01*
X0269828Y0221272D02*
X0269830Y0221356D01*
X0269836Y0221439D01*
X0269846Y0221522D01*
X0269860Y0221605D01*
X0269877Y0221687D01*
X0269899Y0221768D01*
X0269924Y0221847D01*
X0269953Y0221926D01*
X0269986Y0222003D01*
X0270022Y0222078D01*
X0270062Y0222152D01*
X0270105Y0222224D01*
X0270152Y0222293D01*
X0270202Y0222360D01*
X0270255Y0222425D01*
X0270311Y0222487D01*
X0270369Y0222547D01*
X0270431Y0222604D01*
X0270495Y0222657D01*
X0270562Y0222708D01*
X0270631Y0222755D01*
X0270702Y0222800D01*
X0270775Y0222840D01*
X0270850Y0222877D01*
X0270927Y0222911D01*
X0271005Y0222941D01*
X0271084Y0222967D01*
X0271165Y0222990D01*
X0271247Y0223008D01*
X0271329Y0223023D01*
X0271412Y0223034D01*
X0271495Y0223041D01*
X0271579Y0223044D01*
X0271663Y0223043D01*
X0271746Y0223038D01*
X0271830Y0223029D01*
X0271912Y0223016D01*
X0271994Y0223000D01*
X0272075Y0222979D01*
X0272156Y0222955D01*
X0272234Y0222927D01*
X0272312Y0222895D01*
X0272388Y0222859D01*
X0272462Y0222820D01*
X0272534Y0222778D01*
X0272604Y0222732D01*
X0272672Y0222683D01*
X0272737Y0222631D01*
X0272800Y0222576D01*
X0272860Y0222518D01*
X0272918Y0222457D01*
X0272972Y0222393D01*
X0273024Y0222327D01*
X0273072Y0222259D01*
X0273117Y0222188D01*
X0273158Y0222115D01*
X0273197Y0222041D01*
X0273231Y0221965D01*
X0273262Y0221887D01*
X0273289Y0221808D01*
X0273313Y0221727D01*
X0273332Y0221646D01*
X0273348Y0221564D01*
X0273360Y0221481D01*
X0273368Y0221397D01*
X0273372Y0221314D01*
X0273372Y0221230D01*
X0273368Y0221147D01*
X0273360Y0221063D01*
X0273348Y0220980D01*
X0273332Y0220898D01*
X0273313Y0220817D01*
X0273289Y0220736D01*
X0273262Y0220657D01*
X0273231Y0220579D01*
X0273197Y0220503D01*
X0273158Y0220429D01*
X0273117Y0220356D01*
X0273072Y0220285D01*
X0273024Y0220217D01*
X0272972Y0220151D01*
X0272918Y0220087D01*
X0272860Y0220026D01*
X0272800Y0219968D01*
X0272737Y0219913D01*
X0272672Y0219861D01*
X0272604Y0219812D01*
X0272534Y0219766D01*
X0272462Y0219724D01*
X0272388Y0219685D01*
X0272312Y0219649D01*
X0272234Y0219617D01*
X0272156Y0219589D01*
X0272075Y0219565D01*
X0271994Y0219544D01*
X0271912Y0219528D01*
X0271830Y0219515D01*
X0271746Y0219506D01*
X0271663Y0219501D01*
X0271579Y0219500D01*
X0271495Y0219503D01*
X0271412Y0219510D01*
X0271329Y0219521D01*
X0271247Y0219536D01*
X0271165Y0219554D01*
X0271084Y0219577D01*
X0271005Y0219603D01*
X0270927Y0219633D01*
X0270850Y0219667D01*
X0270775Y0219704D01*
X0270702Y0219744D01*
X0270631Y0219789D01*
X0270562Y0219836D01*
X0270495Y0219887D01*
X0270431Y0219940D01*
X0270369Y0219997D01*
X0270311Y0220057D01*
X0270255Y0220119D01*
X0270202Y0220184D01*
X0270152Y0220251D01*
X0270105Y0220320D01*
X0270062Y0220392D01*
X0270022Y0220466D01*
X0269986Y0220541D01*
X0269953Y0220618D01*
X0269924Y0220697D01*
X0269899Y0220776D01*
X0269877Y0220857D01*
X0269860Y0220939D01*
X0269846Y0221022D01*
X0269836Y0221105D01*
X0269830Y0221188D01*
X0269828Y0221272D01*
X0266954Y0223674D02*
X0266954Y0234658D01*
X0276246Y0234658D01*
X0276246Y0223674D01*
X0269435Y0231902D02*
X0269437Y0231995D01*
X0269443Y0232087D01*
X0269453Y0232179D01*
X0269467Y0232270D01*
X0269484Y0232361D01*
X0269506Y0232451D01*
X0269531Y0232540D01*
X0269560Y0232628D01*
X0269593Y0232714D01*
X0269630Y0232799D01*
X0269670Y0232883D01*
X0269714Y0232964D01*
X0269761Y0233044D01*
X0269811Y0233122D01*
X0269865Y0233197D01*
X0269922Y0233270D01*
X0269982Y0233340D01*
X0270045Y0233408D01*
X0270111Y0233473D01*
X0270179Y0233535D01*
X0270250Y0233595D01*
X0270324Y0233651D01*
X0270400Y0233704D01*
X0270478Y0233753D01*
X0270558Y0233800D01*
X0270640Y0233842D01*
X0270724Y0233882D01*
X0270809Y0233917D01*
X0270896Y0233949D01*
X0270984Y0233978D01*
X0271073Y0234002D01*
X0271163Y0234023D01*
X0271254Y0234039D01*
X0271346Y0234052D01*
X0271438Y0234061D01*
X0271531Y0234066D01*
X0271623Y0234067D01*
X0271716Y0234064D01*
X0271808Y0234057D01*
X0271900Y0234046D01*
X0271991Y0234031D01*
X0272082Y0234013D01*
X0272172Y0233990D01*
X0272260Y0233964D01*
X0272348Y0233934D01*
X0272434Y0233900D01*
X0272518Y0233863D01*
X0272601Y0233821D01*
X0272682Y0233777D01*
X0272762Y0233729D01*
X0272839Y0233678D01*
X0272913Y0233623D01*
X0272986Y0233565D01*
X0273056Y0233505D01*
X0273123Y0233441D01*
X0273187Y0233375D01*
X0273249Y0233305D01*
X0273307Y0233234D01*
X0273362Y0233160D01*
X0273414Y0233083D01*
X0273463Y0233004D01*
X0273509Y0232924D01*
X0273551Y0232841D01*
X0273589Y0232757D01*
X0273624Y0232671D01*
X0273655Y0232584D01*
X0273682Y0232496D01*
X0273705Y0232406D01*
X0273725Y0232316D01*
X0273741Y0232225D01*
X0273753Y0232133D01*
X0273761Y0232041D01*
X0273765Y0231948D01*
X0273765Y0231856D01*
X0273761Y0231763D01*
X0273753Y0231671D01*
X0273741Y0231579D01*
X0273725Y0231488D01*
X0273705Y0231398D01*
X0273682Y0231308D01*
X0273655Y0231220D01*
X0273624Y0231133D01*
X0273589Y0231047D01*
X0273551Y0230963D01*
X0273509Y0230880D01*
X0273463Y0230800D01*
X0273414Y0230721D01*
X0273362Y0230644D01*
X0273307Y0230570D01*
X0273249Y0230499D01*
X0273187Y0230429D01*
X0273123Y0230363D01*
X0273056Y0230299D01*
X0272986Y0230239D01*
X0272913Y0230181D01*
X0272839Y0230126D01*
X0272762Y0230075D01*
X0272683Y0230027D01*
X0272601Y0229983D01*
X0272518Y0229941D01*
X0272434Y0229904D01*
X0272348Y0229870D01*
X0272260Y0229840D01*
X0272172Y0229814D01*
X0272082Y0229791D01*
X0271991Y0229773D01*
X0271900Y0229758D01*
X0271808Y0229747D01*
X0271716Y0229740D01*
X0271623Y0229737D01*
X0271531Y0229738D01*
X0271438Y0229743D01*
X0271346Y0229752D01*
X0271254Y0229765D01*
X0271163Y0229781D01*
X0271073Y0229802D01*
X0270984Y0229826D01*
X0270896Y0229855D01*
X0270809Y0229887D01*
X0270724Y0229922D01*
X0270640Y0229962D01*
X0270558Y0230004D01*
X0270478Y0230051D01*
X0270400Y0230100D01*
X0270324Y0230153D01*
X0270250Y0230209D01*
X0270179Y0230269D01*
X0270111Y0230331D01*
X0270045Y0230396D01*
X0269982Y0230464D01*
X0269922Y0230534D01*
X0269865Y0230607D01*
X0269811Y0230682D01*
X0269761Y0230760D01*
X0269714Y0230840D01*
X0269670Y0230921D01*
X0269630Y0231005D01*
X0269593Y0231090D01*
X0269560Y0231176D01*
X0269531Y0231264D01*
X0269506Y0231353D01*
X0269484Y0231443D01*
X0269467Y0231534D01*
X0269453Y0231625D01*
X0269443Y0231717D01*
X0269437Y0231809D01*
X0269435Y0231902D01*
X0256537Y0229274D02*
X0256537Y0228880D01*
X0256537Y0226124D02*
X0256537Y0225730D01*
X0253781Y0223565D02*
X0251419Y0223565D01*
X0248663Y0225730D02*
X0248663Y0226124D01*
X0248663Y0228880D02*
X0248663Y0229274D01*
X0251419Y0231439D02*
X0253781Y0231439D01*
X0253742Y0229549D02*
X0253742Y0228762D01*
X0253742Y0229549D02*
X0252954Y0229549D01*
X0253742Y0229549D02*
X0252167Y0227974D01*
X0234081Y0243965D02*
X0231719Y0243965D01*
X0228963Y0246130D02*
X0228963Y0246524D01*
X0228963Y0249280D02*
X0228963Y0249674D01*
X0231719Y0251839D02*
X0234081Y0251839D01*
X0234042Y0249949D02*
X0234042Y0249162D01*
X0234042Y0249949D02*
X0233254Y0249949D01*
X0234042Y0249949D02*
X0232467Y0248374D01*
X0236837Y0249280D02*
X0236837Y0249674D01*
X0236837Y0246524D02*
X0236837Y0246130D01*
X0217037Y0267130D02*
X0217037Y0267524D01*
X0217037Y0270280D02*
X0217037Y0270674D01*
X0214242Y0270949D02*
X0214242Y0270162D01*
X0214242Y0270949D02*
X0213454Y0270949D01*
X0214242Y0270949D02*
X0212667Y0269374D01*
X0211919Y0272839D02*
X0214281Y0272839D01*
X0209163Y0270674D02*
X0209163Y0270280D01*
X0209163Y0267524D02*
X0209163Y0267130D01*
X0211919Y0264965D02*
X0214281Y0264965D01*
X0210381Y0225039D02*
X0208019Y0225039D01*
X0209554Y0223149D02*
X0210342Y0223149D01*
X0210342Y0222362D01*
X0210342Y0223149D02*
X0208767Y0221574D01*
X0205263Y0222480D02*
X0205263Y0222874D01*
X0205263Y0219724D02*
X0205263Y0219330D01*
X0208019Y0217165D02*
X0210381Y0217165D01*
X0213137Y0219330D02*
X0213137Y0219724D01*
X0213137Y0222480D02*
X0213137Y0222874D01*
X0150137Y0233430D02*
X0150137Y0233824D01*
X0150137Y0236580D02*
X0150137Y0236974D01*
X0147342Y0237249D02*
X0145767Y0235674D01*
X0147342Y0236462D02*
X0147342Y0237249D01*
X0146554Y0237249D01*
X0147381Y0239139D02*
X0145019Y0239139D01*
X0142263Y0236974D02*
X0142263Y0236580D01*
X0142263Y0233824D02*
X0142263Y0233430D01*
X0145019Y0231265D02*
X0147381Y0231265D01*
X0085337Y0248030D02*
X0085337Y0248424D01*
X0085337Y0251180D02*
X0085337Y0251574D01*
X0082542Y0251849D02*
X0082542Y0251062D01*
X0082542Y0251849D02*
X0081754Y0251849D01*
X0082542Y0251849D02*
X0080967Y0250274D01*
X0080219Y0253739D02*
X0082581Y0253739D01*
X0077463Y0251574D02*
X0077463Y0251180D01*
X0077463Y0248424D02*
X0077463Y0248030D01*
X0080219Y0245865D02*
X0082581Y0245865D01*
X0172763Y0158774D02*
X0172763Y0158380D01*
X0172763Y0155624D02*
X0172763Y0155230D01*
X0175519Y0153065D02*
X0177881Y0153065D01*
X0180637Y0155230D02*
X0180637Y0155624D01*
X0180637Y0158380D02*
X0180637Y0158774D01*
X0177842Y0159049D02*
X0177842Y0158262D01*
X0177842Y0159049D02*
X0177054Y0159049D01*
X0177842Y0159049D02*
X0176267Y0157474D01*
X0175519Y0160939D02*
X0177881Y0160939D01*
X0267963Y0165830D02*
X0267963Y0166224D01*
X0267963Y0168980D02*
X0267963Y0169374D01*
X0270719Y0171539D02*
X0273081Y0171539D01*
X0273042Y0169649D02*
X0273042Y0168862D01*
X0273042Y0169649D02*
X0272254Y0169649D01*
X0273042Y0169649D02*
X0271467Y0168074D01*
X0275837Y0168980D02*
X0275837Y0169374D01*
X0275837Y0166224D02*
X0275837Y0165830D01*
X0273081Y0163665D02*
X0270719Y0163665D01*
X0299563Y0188730D02*
X0299563Y0189124D01*
X0299563Y0191880D02*
X0299563Y0192274D01*
X0302319Y0194439D02*
X0304681Y0194439D01*
X0304642Y0192549D02*
X0304642Y0191762D01*
X0304642Y0192549D02*
X0303854Y0192549D01*
X0304642Y0192549D02*
X0303067Y0190974D01*
X0307437Y0191880D02*
X0307437Y0192274D01*
X0307437Y0189124D02*
X0307437Y0188730D01*
X0304681Y0186565D02*
X0302319Y0186565D01*
X0330963Y0175774D02*
X0330963Y0175380D01*
X0330963Y0172624D02*
X0330963Y0172230D01*
X0333719Y0170065D02*
X0336081Y0170065D01*
X0338837Y0172230D02*
X0338837Y0172624D01*
X0338837Y0175380D02*
X0338837Y0175774D01*
X0336042Y0176049D02*
X0336042Y0175262D01*
X0336042Y0176049D02*
X0335254Y0176049D01*
X0336042Y0176049D02*
X0334467Y0174474D01*
X0333719Y0177939D02*
X0336081Y0177939D01*
X0363363Y0158674D02*
X0363363Y0158280D01*
X0363363Y0155524D02*
X0363363Y0155130D01*
X0366119Y0152965D02*
X0368481Y0152965D01*
X0371237Y0155130D02*
X0371237Y0155524D01*
X0371237Y0158280D02*
X0371237Y0158674D01*
X0368442Y0158949D02*
X0368442Y0158162D01*
X0368442Y0158949D02*
X0367654Y0158949D01*
X0368442Y0158949D02*
X0366867Y0157374D01*
X0366119Y0160839D02*
X0368481Y0160839D01*
X0314737Y0149274D02*
X0314737Y0148880D01*
X0314737Y0146124D02*
X0314737Y0145730D01*
X0311981Y0143565D02*
X0309619Y0143565D01*
X0306863Y0145730D02*
X0306863Y0146124D01*
X0306863Y0148880D02*
X0306863Y0149274D01*
X0309619Y0151439D02*
X0311981Y0151439D01*
X0311942Y0149549D02*
X0311942Y0148762D01*
X0311942Y0149549D02*
X0310367Y0147974D01*
X0311154Y0149549D02*
X0311942Y0149549D01*
X0275737Y0130174D02*
X0275737Y0129780D01*
X0275737Y0127024D02*
X0275737Y0126630D01*
X0272981Y0124465D02*
X0270619Y0124465D01*
X0267863Y0126630D02*
X0267863Y0127024D01*
X0267863Y0129780D02*
X0267863Y0130174D01*
X0270619Y0132339D02*
X0272981Y0132339D01*
X0272942Y0130449D02*
X0272942Y0129662D01*
X0272942Y0130449D02*
X0272154Y0130449D01*
X0272942Y0130449D02*
X0271367Y0128874D01*
X0270919Y0091739D02*
X0273281Y0091739D01*
X0273242Y0089849D02*
X0273242Y0089062D01*
X0273242Y0089849D02*
X0272454Y0089849D01*
X0273242Y0089849D02*
X0271667Y0088274D01*
X0268163Y0089180D02*
X0268163Y0089574D01*
X0268163Y0086424D02*
X0268163Y0086030D01*
X0270919Y0083865D02*
X0273281Y0083865D01*
X0276037Y0086030D02*
X0276037Y0086424D01*
X0276037Y0089180D02*
X0276037Y0089574D01*
X0345763Y0088974D02*
X0345763Y0088580D01*
X0345763Y0085824D02*
X0345763Y0085430D01*
X0348519Y0083265D02*
X0350881Y0083265D01*
X0353637Y0085430D02*
X0353637Y0085824D01*
X0353637Y0088580D02*
X0353637Y0088974D01*
X0350842Y0089249D02*
X0350842Y0088462D01*
X0350842Y0089249D02*
X0350054Y0089249D01*
X0350842Y0089249D02*
X0349267Y0087674D01*
X0348519Y0091139D02*
X0350881Y0091139D01*
X0388619Y0029639D02*
X0390981Y0029639D01*
X0390942Y0027749D02*
X0390942Y0026962D01*
X0390942Y0027749D02*
X0390154Y0027749D01*
X0390942Y0027749D02*
X0389367Y0026174D01*
X0385863Y0027080D02*
X0385863Y0027474D01*
X0385863Y0024324D02*
X0385863Y0023930D01*
X0388619Y0021765D02*
X0390981Y0021765D01*
X0393737Y0023930D02*
X0393737Y0024324D01*
X0393737Y0027080D02*
X0393737Y0027474D01*
X0335881Y0217265D02*
X0333519Y0217265D01*
X0330763Y0219430D02*
X0330763Y0219824D01*
X0330763Y0222580D02*
X0330763Y0222974D01*
X0333519Y0225139D02*
X0335881Y0225139D01*
X0335842Y0223249D02*
X0335842Y0222462D01*
X0335842Y0223249D02*
X0335054Y0223249D01*
X0335842Y0223249D02*
X0334267Y0221674D01*
X0338637Y0222580D02*
X0338637Y0222974D01*
X0338637Y0219824D02*
X0338637Y0219430D01*
X0313681Y0243465D02*
X0311319Y0243465D01*
X0308563Y0245630D02*
X0308563Y0246024D01*
X0308563Y0248780D02*
X0308563Y0249174D01*
X0311319Y0251339D02*
X0313681Y0251339D01*
X0313642Y0249449D02*
X0313642Y0248662D01*
X0313642Y0249449D02*
X0312854Y0249449D01*
X0313642Y0249449D02*
X0312067Y0247874D01*
X0316437Y0248780D02*
X0316437Y0249174D01*
X0316437Y0246024D02*
X0316437Y0245630D01*
X0295437Y0229274D02*
X0295437Y0228880D01*
X0295437Y0226124D02*
X0295437Y0225730D01*
X0292681Y0223565D02*
X0290319Y0223565D01*
X0287563Y0225730D02*
X0287563Y0226124D01*
X0287563Y0228880D02*
X0287563Y0229274D01*
X0290319Y0231439D02*
X0292681Y0231439D01*
X0292642Y0229549D02*
X0292642Y0228762D01*
X0292642Y0229549D02*
X0291854Y0229549D01*
X0292642Y0229549D02*
X0291067Y0227974D01*
X0273281Y0262965D02*
X0270919Y0262965D01*
X0268163Y0265130D02*
X0268163Y0265524D01*
X0268163Y0268280D02*
X0268163Y0268674D01*
X0270919Y0270839D02*
X0273281Y0270839D01*
X0273242Y0268949D02*
X0273242Y0268162D01*
X0273242Y0268949D02*
X0272454Y0268949D01*
X0273242Y0268949D02*
X0271667Y0267374D01*
X0276037Y0268280D02*
X0276037Y0268674D01*
X0276037Y0265524D02*
X0276037Y0265130D01*
X0326963Y0267130D02*
X0326963Y0267524D01*
X0326963Y0270280D02*
X0326963Y0270674D01*
X0329719Y0272839D02*
X0332081Y0272839D01*
X0332042Y0270949D02*
X0332042Y0270162D01*
X0332042Y0270949D02*
X0331254Y0270949D01*
X0332042Y0270949D02*
X0330467Y0269374D01*
X0334837Y0270280D02*
X0334837Y0270674D01*
X0334837Y0267524D02*
X0334837Y0267130D01*
X0332081Y0264965D02*
X0329719Y0264965D01*
X0392863Y0236674D02*
X0392863Y0236280D01*
X0392863Y0233524D02*
X0392863Y0233130D01*
X0395619Y0230965D02*
X0397981Y0230965D01*
X0400737Y0233130D02*
X0400737Y0233524D01*
X0400737Y0236280D02*
X0400737Y0236674D01*
X0397942Y0236949D02*
X0397942Y0236162D01*
X0397942Y0236949D02*
X0397154Y0236949D01*
X0397942Y0236949D02*
X0396367Y0235374D01*
X0395619Y0238839D02*
X0397981Y0238839D01*
X0458563Y0248030D02*
X0458563Y0248424D01*
X0458563Y0251180D02*
X0458563Y0251574D01*
X0461319Y0253739D02*
X0463681Y0253739D01*
X0463642Y0251849D02*
X0463642Y0251062D01*
X0463642Y0251849D02*
X0462854Y0251849D01*
X0463642Y0251849D02*
X0462067Y0250274D01*
X0466437Y0251180D02*
X0466437Y0251574D01*
X0466437Y0248424D02*
X0466437Y0248030D01*
X0463681Y0245865D02*
X0461319Y0245865D01*
X0275937Y0324830D02*
X0275937Y0325224D01*
X0275937Y0327980D02*
X0275937Y0328374D01*
X0273142Y0328649D02*
X0273142Y0327862D01*
X0273142Y0328649D02*
X0272354Y0328649D01*
X0273142Y0328649D02*
X0271567Y0327074D01*
X0270819Y0330539D02*
X0273181Y0330539D01*
X0268063Y0328374D02*
X0268063Y0327980D01*
X0268063Y0325224D02*
X0268063Y0324830D01*
X0270819Y0322665D02*
X0273181Y0322665D01*
X0273181Y0384265D02*
X0270819Y0384265D01*
X0268063Y0386430D02*
X0268063Y0386824D01*
X0268063Y0389580D02*
X0268063Y0389974D01*
X0270819Y0392139D02*
X0273181Y0392139D01*
X0273142Y0390249D02*
X0273142Y0389462D01*
X0273142Y0390249D02*
X0272354Y0390249D01*
X0273142Y0390249D02*
X0271567Y0388674D01*
X0275937Y0389580D02*
X0275937Y0389974D01*
X0275937Y0386824D02*
X0275937Y0386430D01*
D12*
X0276364Y0234855D02*
X0266836Y0234855D01*
X0266836Y0218949D01*
X0276364Y0218949D01*
X0276364Y0234855D01*
D13*
X0294441Y0321656D02*
X0294443Y0321781D01*
X0294449Y0321906D01*
X0294459Y0322030D01*
X0294473Y0322154D01*
X0294490Y0322278D01*
X0294512Y0322401D01*
X0294538Y0322523D01*
X0294567Y0322645D01*
X0294600Y0322765D01*
X0294638Y0322884D01*
X0294678Y0323003D01*
X0294723Y0323119D01*
X0294771Y0323234D01*
X0294823Y0323348D01*
X0294879Y0323460D01*
X0294938Y0323570D01*
X0295000Y0323678D01*
X0295066Y0323785D01*
X0295135Y0323889D01*
X0295208Y0323990D01*
X0295283Y0324090D01*
X0295362Y0324187D01*
X0295444Y0324281D01*
X0295529Y0324373D01*
X0295616Y0324462D01*
X0295707Y0324548D01*
X0295800Y0324631D01*
X0295896Y0324712D01*
X0295994Y0324789D01*
X0296094Y0324863D01*
X0296197Y0324934D01*
X0296302Y0325001D01*
X0296410Y0325066D01*
X0296519Y0325126D01*
X0296630Y0325184D01*
X0296743Y0325237D01*
X0296857Y0325287D01*
X0296973Y0325334D01*
X0297090Y0325376D01*
X0297209Y0325415D01*
X0297329Y0325451D01*
X0297450Y0325482D01*
X0297572Y0325510D01*
X0297694Y0325533D01*
X0297818Y0325553D01*
X0297942Y0325569D01*
X0298066Y0325581D01*
X0298191Y0325589D01*
X0298316Y0325593D01*
X0298440Y0325593D01*
X0298565Y0325589D01*
X0298690Y0325581D01*
X0298814Y0325569D01*
X0298938Y0325553D01*
X0299062Y0325533D01*
X0299184Y0325510D01*
X0299306Y0325482D01*
X0299427Y0325451D01*
X0299547Y0325415D01*
X0299666Y0325376D01*
X0299783Y0325334D01*
X0299899Y0325287D01*
X0300013Y0325237D01*
X0300126Y0325184D01*
X0300237Y0325126D01*
X0300347Y0325066D01*
X0300454Y0325001D01*
X0300559Y0324934D01*
X0300662Y0324863D01*
X0300762Y0324789D01*
X0300860Y0324712D01*
X0300956Y0324631D01*
X0301049Y0324548D01*
X0301140Y0324462D01*
X0301227Y0324373D01*
X0301312Y0324281D01*
X0301394Y0324187D01*
X0301473Y0324090D01*
X0301548Y0323990D01*
X0301621Y0323889D01*
X0301690Y0323785D01*
X0301756Y0323678D01*
X0301818Y0323570D01*
X0301877Y0323460D01*
X0301933Y0323348D01*
X0301985Y0323234D01*
X0302033Y0323119D01*
X0302078Y0323003D01*
X0302118Y0322884D01*
X0302156Y0322765D01*
X0302189Y0322645D01*
X0302218Y0322523D01*
X0302244Y0322401D01*
X0302266Y0322278D01*
X0302283Y0322154D01*
X0302297Y0322030D01*
X0302307Y0321906D01*
X0302313Y0321781D01*
X0302315Y0321656D01*
X0302313Y0321531D01*
X0302307Y0321406D01*
X0302297Y0321282D01*
X0302283Y0321158D01*
X0302266Y0321034D01*
X0302244Y0320911D01*
X0302218Y0320789D01*
X0302189Y0320667D01*
X0302156Y0320547D01*
X0302118Y0320428D01*
X0302078Y0320309D01*
X0302033Y0320193D01*
X0301985Y0320078D01*
X0301933Y0319964D01*
X0301877Y0319852D01*
X0301818Y0319742D01*
X0301756Y0319634D01*
X0301690Y0319527D01*
X0301621Y0319423D01*
X0301548Y0319322D01*
X0301473Y0319222D01*
X0301394Y0319125D01*
X0301312Y0319031D01*
X0301227Y0318939D01*
X0301140Y0318850D01*
X0301049Y0318764D01*
X0300956Y0318681D01*
X0300860Y0318600D01*
X0300762Y0318523D01*
X0300662Y0318449D01*
X0300559Y0318378D01*
X0300454Y0318311D01*
X0300346Y0318246D01*
X0300237Y0318186D01*
X0300126Y0318128D01*
X0300013Y0318075D01*
X0299899Y0318025D01*
X0299783Y0317978D01*
X0299666Y0317936D01*
X0299547Y0317897D01*
X0299427Y0317861D01*
X0299306Y0317830D01*
X0299184Y0317802D01*
X0299062Y0317779D01*
X0298938Y0317759D01*
X0298814Y0317743D01*
X0298690Y0317731D01*
X0298565Y0317723D01*
X0298440Y0317719D01*
X0298316Y0317719D01*
X0298191Y0317723D01*
X0298066Y0317731D01*
X0297942Y0317743D01*
X0297818Y0317759D01*
X0297694Y0317779D01*
X0297572Y0317802D01*
X0297450Y0317830D01*
X0297329Y0317861D01*
X0297209Y0317897D01*
X0297090Y0317936D01*
X0296973Y0317978D01*
X0296857Y0318025D01*
X0296743Y0318075D01*
X0296630Y0318128D01*
X0296519Y0318186D01*
X0296409Y0318246D01*
X0296302Y0318311D01*
X0296197Y0318378D01*
X0296094Y0318449D01*
X0295994Y0318523D01*
X0295896Y0318600D01*
X0295800Y0318681D01*
X0295707Y0318764D01*
X0295616Y0318850D01*
X0295529Y0318939D01*
X0295444Y0319031D01*
X0295362Y0319125D01*
X0295283Y0319222D01*
X0295208Y0319322D01*
X0295135Y0319423D01*
X0295066Y0319527D01*
X0295000Y0319634D01*
X0294938Y0319742D01*
X0294879Y0319852D01*
X0294823Y0319964D01*
X0294771Y0320078D01*
X0294723Y0320193D01*
X0294678Y0320309D01*
X0294638Y0320428D01*
X0294600Y0320547D01*
X0294567Y0320667D01*
X0294538Y0320789D01*
X0294512Y0320911D01*
X0294490Y0321034D01*
X0294473Y0321158D01*
X0294459Y0321282D01*
X0294449Y0321406D01*
X0294443Y0321531D01*
X0294441Y0321656D01*
M02*
